Primae-Asc Cursive Bold.ufo
<glyph name="exclam" format="2">
	<unicode hex="0021"/>
	<advance width="788"/>
	<outline>
		<contour>
			<point x="401" y="481" type="curve" smooth="yes"/>
			<point x="445" y="481"/>
			<point x="466" y="513"/>
			<point x="497" y="602" type="curve" smooth="yes"/>
			<point x="557" y="777"/>
			<point x="648" y="1035"/>
			<point x="707" y="1190" type="curve" smooth="yes"/>
			<point x="732" y="1255"/>
			<point x="738" y="1276"/>
			<point x="738" y="1302" type="curve" smooth="yes"/>
			<point x="738" y="1357"/>
			<point x="669" y="1400"/>
			<point x="596" y="1400" type="curve" smooth="yes"/>
			<point x="549" y="1400"/>
			<point x="513" y="1382"/>
			<point x="498" y="1332" type="curve" smooth="yes"/>
			<point x="425" y="1085"/>
			<point x="372" y="887"/>
			<point x="321" y="690" type="curve" smooth="yes"/>
			<point x="302" y="615"/>
			<point x="296" y="589"/>
			<point x="296" y="557" type="curve" smooth="yes"/>
			<point x="296" y="512"/>
			<point x="341" y="481"/>
		</contour>
		<contour>
			<point x="240" y="-12" type="curve" smooth="yes"/>
			<point x="330" y="-12"/>
			<point x="417" y="73"/>
			<point x="417" y="171" type="curve" smooth="yes"/>
			<point x="417" y="239"/>
			<point x="366" y="291"/>
			<point x="295" y="291" type="curve" smooth="yes"/>
			<point x="207" y="291"/>
			<point x="130" y="213"/>
			<point x="130" y="115" type="curve" smooth="yes"/>
			<point x="130" y="36"/>
			<point x="181" y="-12"/>
		</contour>
	</outline>
</glyph>
<glyph name="dollar" format="2">
	<unicode hex="0024"/>
	<advance width="1200"/>
	<outline>
		<contour>
			<point x="10" y="155" type="curve" smooth="yes"/>
			<point x="10" y="120"/>
			<point x="26" y="94"/>
			<point x="85" y="62" type="curve" smooth="yes"/>
			<point x="172" y="15"/>
			<point x="321" y="-17"/>
			<point x="452" y="-17" type="curve" smooth="yes"/>
			<point x="786" y="-17"/>
			<point x="1028" y="195"/>
			<point x="1028" y="485" type="curve" smooth="yes"/>
			<point x="1028" y="647"/>
			<point x="929" y="817"/>
			<point x="723" y="916" type="curve"/>
			<point x="599" y="954" type="line"/>
			<point x="488" y="1008"/>
			<point x="440" y="1068"/>
			<point x="440" y="1164" type="curve" smooth="yes"/>
			<point x="440" y="1299"/>
			<point x="547" y="1405"/>
			<point x="750" y="1405" type="curve" smooth="yes"/>
			<point x="847" y="1405"/>
			<point x="914" y="1381"/>
			<point x="970" y="1362" type="curve" smooth="yes"/>
			<point x="1006" y="1350"/>
			<point x="1039" y="1336"/>
			<point x="1064" y="1336" type="curve" smooth="yes"/>
			<point x="1113" y="1336"/>
			<point x="1149" y="1404"/>
			<point x="1149" y="1448" type="curve" smooth="yes"/>
			<point x="1149" y="1491"/>
			<point x="1111" y="1523"/>
			<point x="1043" y="1556" type="curve" smooth="yes"/>
			<point x="960" y="1596"/>
			<point x="874" y="1625"/>
			<point x="755" y="1625" type="curve" smooth="yes"/>
			<point x="433" y="1625"/>
			<point x="210" y="1410"/>
			<point x="210" y="1147" type="curve" smooth="yes"/>
			<point x="210" y="968"/>
			<point x="309" y="834"/>
			<point x="516" y="721" type="curve"/>
			<point x="650" y="676" type="line"/>
			<point x="755" y="629"/>
			<point x="798" y="561"/>
			<point x="798" y="467" type="curve" smooth="yes"/>
			<point x="798" y="317"/>
			<point x="675" y="203"/>
			<point x="491" y="203" type="curve" smooth="yes"/>
			<point x="395" y="203"/>
			<point x="299" y="217"/>
			<point x="214" y="246" type="curve" smooth="yes"/>
			<point x="168" y="262"/>
			<point x="135" y="272"/>
			<point x="107" y="272" type="curve" smooth="yes"/>
			<point x="49" y="272"/>
			<point x="10" y="203"/>
		</contour>
		<contour>
			<point x="393" y="-212" type="curve" smooth="yes"/>
			<point x="440" y="-212"/>
			<point x="463" y="-195"/>
			<point x="476" y="-143" type="curve" smooth="yes"/>
			<point x="941" y="1667" type="line" smooth="yes"/>
			<point x="949" y="1698"/>
			<point x="955" y="1718"/>
			<point x="955" y="1743" type="curve" smooth="yes"/>
			<point x="955" y="1780"/>
			<point x="902" y="1809"/>
			<point x="828" y="1809" type="curve" smooth="yes"/>
			<point x="787" y="1809"/>
			<point x="767" y="1791"/>
			<point x="752" y="1732" type="curve" smooth="yes"/>
			<point x="289" y="-68" type="line" smooth="yes"/>
			<point x="280" y="-102"/>
			<point x="275" y="-121"/>
			<point x="275" y="-136" type="curve" smooth="yes"/>
			<point x="275" y="-176"/>
			<point x="333" y="-212"/>
		</contour>
	</outline>
</glyph>
<glyph name="parenright" format="2">
	<unicode hex="0029"/>
	<advance width="744"/>
	<outline>
		<contour>
			<point x="364" y="1746" type="curve" smooth="yes"/>
			<point x="300" y="1746"/>
			<point x="219" y="1678"/>
			<point x="219" y="1623" type="curve" smooth="yes"/>
			<point x="219" y="1604"/>
			<point x="225" y="1584"/>
			<point x="250" y="1537" type="curve" smooth="yes"/>
			<point x="267" y="1504"/>
			<point x="279" y="1480"/>
			<point x="303" y="1429" type="curve" smooth="yes"/>
			<point x="392" y="1236"/>
			<point x="444" y="1033"/>
			<point x="444" y="822" type="curve" smooth="yes"/>
			<point x="444" y="506"/>
			<point x="308" y="168"/>
			<point x="2" y="-150" type="curve" smooth="yes"/>
			<point x="-60" y="-214"/>
			<point x="-70" y="-235"/>
			<point x="-70" y="-259" type="curve" smooth="yes"/>
			<point x="-70" y="-307"/>
			<point x="-22" y="-347"/>
			<point x="9" y="-347" type="curve" smooth="yes"/>
			<point x="51" y="-347"/>
			<point x="85" y="-334"/>
			<point x="162" y="-250" type="curve" smooth="yes"/>
			<point x="470" y="81"/>
			<point x="664" y="498"/>
			<point x="664" y="889" type="curve" smooth="yes"/>
			<point x="664" y="1208"/>
			<point x="573" y="1465"/>
			<point x="478" y="1648" type="curve" smooth="yes"/>
			<point x="438" y="1726"/>
			<point x="403" y="1746"/>
		</contour>
	</outline>
</glyph>
<glyph name="plus" format="2">
	<unicode hex="002B"/>
	<advance width="1200"/>
	<outline>
		<contour>
			<point x="521" y="338" type="curve" smooth="yes"/>
			<point x="566" y="338"/>
			<point x="598" y="349"/>
			<point x="629" y="474" type="curve" smooth="yes"/>
			<point x="780" y="1084" type="line" smooth="yes"/>
			<point x="801" y="1167"/>
			<point x="808" y="1201"/>
			<point x="808" y="1221" type="curve" smooth="yes"/>
			<point x="808" y="1284"/>
			<point x="752" y="1315"/>
			<point x="655" y="1315" type="curve" smooth="yes"/>
			<point x="612" y="1315"/>
			<point x="579" y="1293"/>
			<point x="560" y="1212" type="curve" smooth="yes"/>
			<point x="412" y="571" type="line" smooth="yes"/>
			<point x="390" y="479"/>
			<point x="385" y="446"/>
			<point x="385" y="415" type="curve" smooth="yes"/>
			<point x="385" y="376"/>
			<point x="450" y="338"/>
		</contour>
		<contour>
			<point x="243" y="712" type="curve" smooth="yes"/>
			<point x="467" y="712"/>
			<point x="760" y="713"/>
			<point x="910" y="721" type="curve" smooth="yes"/>
			<point x="1037" y="727"/>
			<point x="1061" y="787"/>
			<point x="1061" y="857" type="curve" smooth="yes"/>
			<point x="1061" y="906"/>
			<point x="1039" y="935"/>
			<point x="971" y="935" type="curve" smooth="yes"/>
			<point x="791" y="933"/>
			<point x="471" y="932"/>
			<point x="243" y="932" type="curve" smooth="yes"/>
			<point x="164" y="932"/>
			<point x="142" y="875"/>
			<point x="142" y="804" type="curve" smooth="yes"/>
			<point x="142" y="753"/>
			<point x="164" y="712"/>
		</contour>
	</outline>
</glyph>
<glyph name="zero" format="2">
	<unicode hex="0030"/>
	<advance width="1274"/>
	<outline>
		<contour>
			<point x="462" y="-17" type="curve" smooth="yes"/>
			<point x="855" y="-17"/>
			<point x="1194" y="568"/>
			<point x="1194" y="1126" type="curve" smooth="yes"/>
			<point x="1194" y="1466"/>
			<point x="1032" y="1619"/>
			<point x="832" y="1619" type="curve" smooth="yes"/>
			<point x="439" y="1619"/>
			<point x="100" y="1034"/>
			<point x="100" y="476" type="curve" smooth="yes"/>
			<point x="100" y="136"/>
			<point x="262" y="-17"/>
		</contour>
		<contour>
			<point x="500" y="203" type="curve" smooth="yes"/>
			<point x="410" y="203"/>
			<point x="350" y="292"/>
			<point x="350" y="503" type="curve" smooth="yes"/>
			<point x="350" y="953"/>
			<point x="597" y="1399"/>
			<point x="794" y="1399" type="curve" smooth="yes"/>
			<point x="884" y="1399"/>
			<point x="944" y="1310"/>
			<point x="944" y="1099" type="curve" smooth="yes"/>
			<point x="944" y="649"/>
			<point x="697" y="203"/>
		</contour>
	</outline>
</glyph>
<glyph name="one" format="2">
	<unicode hex="0031"/>
	<advance width="931"/>
	<outline>
		<contour>
			<point x="375" y="-12" type="curve" smooth="yes"/>
			<point x="431" y="-12"/>
			<point x="475" y="-4"/>
			<point x="494" y="77" type="curve" smooth="yes"/>
			<point x="605" y="546"/>
			<point x="737" y="1051"/>
			<point x="857" y="1451" type="curve" smooth="yes"/>
			<point x="877" y="1518"/>
			<point x="881" y="1535"/>
			<point x="881" y="1547" type="curve" smooth="yes"/>
			<point x="881" y="1587"/>
			<point x="838" y="1619"/>
			<point x="794" y="1619" type="curve" smooth="yes"/>
			<point x="771" y="1619"/>
			<point x="758" y="1614"/>
			<point x="697" y="1578" type="curve" smooth="yes"/>
			<point x="585" y="1511"/>
			<point x="403" y="1410"/>
			<point x="206" y="1311" type="curve" smooth="yes"/>
			<point x="148" y="1282"/>
			<point x="140" y="1258"/>
			<point x="140" y="1227" type="curve" smooth="yes"/>
			<point x="140" y="1162"/>
			<point x="187" y="1100"/>
			<point x="239" y="1100" type="curve" smooth="yes"/>
			<point x="265" y="1100"/>
			<point x="283" y="1104"/>
			<point x="329" y="1126" type="curve" smooth="yes"/>
			<point x="399" y="1159"/>
			<point x="558" y="1237"/>
			<point x="632" y="1277" type="curve"/>
			<point x="576" y="1296" type="line"/>
			<point x="515" y="1099"/>
			<point x="389" y="632"/>
			<point x="267" y="148" type="curve" smooth="yes"/>
			<point x="257" y="110"/>
			<point x="255" y="97"/>
			<point x="255" y="83" type="curve" smooth="yes"/>
			<point x="255" y="23"/>
			<point x="311" y="-12"/>
		</contour>
	</outline>
</glyph>
<glyph name="three" format="2">
	<unicode hex="0033"/>
	<advance width="1192"/>
	<outline>
		<contour>
			<point x="435" y="-12" type="curve" smooth="yes"/>
			<point x="753" y="-12"/>
			<point x="987" y="193"/>
			<point x="987" y="468" type="curve" smooth="yes"/>
			<point x="987" y="634"/>
			<point x="889" y="777"/>
			<point x="733" y="848" type="curve"/>
			<point x="726" y="814" type="line"/>
			<point x="946" y="885"/>
			<point x="1112" y="1067"/>
			<point x="1112" y="1277" type="curve" smooth="yes"/>
			<point x="1112" y="1474"/>
			<point x="960" y="1614"/>
			<point x="728" y="1614" type="curve" smooth="yes"/>
			<point x="582" y="1614"/>
			<point x="433" y="1569"/>
			<point x="333" y="1502" type="curve" smooth="yes"/>
			<point x="273" y="1462"/>
			<point x="255" y="1435"/>
			<point x="255" y="1400" type="curve" smooth="yes"/>
			<point x="255" y="1340"/>
			<point x="311" y="1290"/>
			<point x="349" y="1290" type="curve" smooth="yes"/>
			<point x="374" y="1290"/>
			<point x="399" y="1300"/>
			<point x="429" y="1316" type="curve" smooth="yes"/>
			<point x="519" y="1364"/>
			<point x="601" y="1394"/>
			<point x="684" y="1394" type="curve" smooth="yes"/>
			<point x="798" y="1394"/>
			<point x="872" y="1331"/>
			<point x="872" y="1224" type="curve" smooth="yes"/>
			<point x="872" y="1105"/>
			<point x="769" y="997"/>
			<point x="600" y="924" type="curve"/>
			<point x="535" y="944"/>
			<point x="470" y="963"/>
			<point x="412" y="963" type="curve" smooth="yes"/>
			<point x="341" y="963"/>
			<point x="294" y="919"/>
			<point x="294" y="831" type="curve" smooth="yes"/>
			<point x="294" y="741"/>
			<point x="347" y="698"/>
			<point x="426" y="698" type="curve" smooth="yes"/>
			<point x="469" y="698"/>
			<point x="523" y="710"/>
			<point x="609" y="747" type="curve"/>
			<point x="685" y="702"/>
			<point x="742" y="613"/>
			<point x="742" y="494" type="curve" smooth="yes"/>
			<point x="742" y="323"/>
			<point x="627" y="208"/>
			<point x="438" y="208" type="curve" smooth="yes"/>
			<point x="346" y="208"/>
			<point x="261" y="238"/>
			<point x="168" y="288" type="curve" smooth="yes"/>
			<point x="137" y="305"/>
			<point x="122" y="312"/>
			<point x="103" y="312" type="curve" smooth="yes"/>
			<point x="45" y="312"/>
			<point x="-10" y="243"/>
			<point x="-10" y="187" type="curve" smooth="yes"/>
			<point x="-10" y="158"/>
			<point x="2" y="133"/>
			<point x="56" y="95" type="curve" smooth="yes"/>
			<point x="144" y="33"/>
			<point x="284" y="-12"/>
		</contour>
	</outline>
</glyph>
<glyph name="five" format="2">
	<unicode hex="0035"/>
	<advance width="1176"/>
	<outline>
		<contour>
			<point x="421" y="-12" type="curve" smooth="yes"/>
			<point x="753" y="-12"/>
			<point x="1026" y="223"/>
			<point x="1026" y="588" type="curve" smooth="yes"/>
			<point x="1026" y="858"/>
			<point x="877" y="1005"/>
			<point x="672" y="1005" type="curve" smooth="yes"/>
			<point x="575" y="1005"/>
			<point x="469" y="980"/>
			<point x="378" y="937" type="curve"/>
			<point x="400" y="890" type="line"/>
			<point x="534" y="1387" type="line"/>
			<point x="582" y="1379"/>
			<point x="686" y="1368"/>
			<point x="804" y="1368" type="curve" smooth="yes"/>
			<point x="873" y="1368"/>
			<point x="972" y="1373"/>
			<point x="1037" y="1389" type="curve" smooth="yes"/>
			<point x="1106" y="1406"/>
			<point x="1141" y="1445"/>
			<point x="1141" y="1533" type="curve" smooth="yes"/>
			<point x="1141" y="1595"/>
			<point x="1114" y="1614"/>
			<point x="1081" y="1614" type="curve" smooth="yes"/>
			<point x="1059" y="1614"/>
			<point x="1026" y="1611"/>
			<point x="976" y="1606" type="curve" smooth="yes"/>
			<point x="917" y="1600"/>
			<point x="850" y="1597"/>
			<point x="771" y="1597" type="curve" smooth="yes"/>
			<point x="703" y="1597"/>
			<point x="629" y="1600"/>
			<point x="592" y="1604" type="curve" smooth="yes"/>
			<point x="555" y="1608"/>
			<point x="499" y="1614"/>
			<point x="462" y="1614" type="curve" smooth="yes"/>
			<point x="398" y="1614"/>
			<point x="358" y="1576"/>
			<point x="340" y="1509" type="curve" smooth="yes"/>
			<point x="212" y="1036" type="line" smooth="yes"/>
			<point x="199" y="988"/>
			<point x="194" y="964"/>
			<point x="194" y="935" type="curve" smooth="yes"/>
			<point x="194" y="847"/>
			<point x="276" y="774"/>
			<point x="333" y="774" type="curve" smooth="yes"/>
			<point x="365" y="774"/>
			<point x="393" y="780"/>
			<point x="435" y="790" type="curve" smooth="yes"/>
			<point x="486" y="802"/>
			<point x="542" y="812"/>
			<point x="600" y="812" type="curve" smooth="yes"/>
			<point x="725" y="812"/>
			<point x="785" y="716"/>
			<point x="785" y="557" type="curve" smooth="yes"/>
			<point x="785" y="351"/>
			<point x="627" y="202"/>
			<point x="457" y="202" type="curve" smooth="yes"/>
			<point x="346" y="202"/>
			<point x="248" y="244"/>
			<point x="167" y="294" type="curve" smooth="yes"/>
			<point x="125" y="320"/>
			<point x="107" y="326"/>
			<point x="84" y="326" type="curve" smooth="yes"/>
			<point x="42" y="326"/>
			<point x="-20" y="263"/>
			<point x="-20" y="206" type="curve" smooth="yes"/>
			<point x="-20" y="188"/>
			<point x="-7" y="155"/>
			<point x="33" y="122" type="curve" smooth="yes"/>
			<point x="120" y="50"/>
			<point x="283" y="-12"/>
		</contour>
	</outline>
</glyph>
<glyph name="six" format="2">
	<unicode hex="0036"/>
	<advance width="1231"/>
	<outline>
		<contour>
			<point x="997" y="1366" type="curve" smooth="yes"/>
			<point x="1028" y="1350"/>
			<point x="1042" y="1343"/>
			<point x="1064" y="1343" type="curve" smooth="yes"/>
			<point x="1116" y="1343"/>
			<point x="1171" y="1404"/>
			<point x="1171" y="1464" type="curve" smooth="yes"/>
			<point x="1171" y="1491"/>
			<point x="1152" y="1526"/>
			<point x="1106" y="1558" type="curve" smooth="yes"/>
			<point x="1034" y="1608"/>
			<point x="959" y="1625"/>
			<point x="872" y="1625" type="curve" smooth="yes"/>
			<point x="470" y="1625"/>
			<point x="100" y="1116"/>
			<point x="100" y="499" type="curve" smooth="yes"/>
			<point x="100" y="146"/>
			<point x="265" y="-12"/>
			<point x="482" y="-12" type="curve" smooth="yes"/>
			<point x="791" y="-12"/>
			<point x="1079" y="277"/>
			<point x="1079" y="663" type="curve" smooth="yes"/>
			<point x="1079" y="852"/>
			<point x="965" y="988"/>
			<point x="763" y="988" type="curve" smooth="yes"/>
			<point x="618" y="988"/>
			<point x="464" y="934"/>
			<point x="253" y="727" type="curve"/>
			<point x="320" y="615" type="line"/>
			<point x="413" y="709"/>
			<point x="560" y="798"/>
			<point x="682" y="798" type="curve" smooth="yes"/>
			<point x="785" y="798"/>
			<point x="839" y="732"/>
			<point x="839" y="607" type="curve" smooth="yes"/>
			<point x="839" y="379"/>
			<point x="670" y="178"/>
			<point x="519" y="178" type="curve" smooth="yes"/>
			<point x="405" y="178"/>
			<point x="340" y="290"/>
			<point x="340" y="479" type="curve" smooth="yes"/>
			<point x="340" y="961"/>
			<point x="588" y="1405"/>
			<point x="843" y="1405" type="curve" smooth="yes"/>
			<point x="915" y="1405"/>
			<point x="957" y="1387"/>
		</contour>
	</outline>
</glyph>
<glyph name="eight" format="2">
	<unicode hex="0038"/>
	<advance width="1264"/>
	<outline>
		<contour>
			<point x="278" y="1159" type="curve" smooth="yes"/>
			<point x="278" y="1026"/>
			<point x="327" y="919"/>
			<point x="510" y="797" type="curve" smooth="yes"/>
			<point x="798" y="606"/>
			<point x="834" y="526"/>
			<point x="834" y="426" type="curve" smooth="yes"/>
			<point x="834" y="294"/>
			<point x="703" y="175"/>
			<point x="521" y="175" type="curve" smooth="yes"/>
			<point x="375" y="175"/>
			<point x="285" y="256"/>
			<point x="285" y="379" type="curve" smooth="yes"/>
			<point x="285" y="513"/>
			<point x="392" y="644"/>
			<point x="623" y="750" type="curve"/>
			<point x="515" y="886" type="line"/>
			<point x="199" y="742"/>
			<point x="65" y="542"/>
			<point x="65" y="322" type="curve" smooth="yes"/>
			<point x="65" y="108"/>
			<point x="231" y="-25"/>
			<point x="476" y="-25" type="curve" smooth="yes"/>
			<point x="787" y="-25"/>
			<point x="1072" y="176"/>
			<point x="1072" y="488" type="curve" smooth="yes"/>
			<point x="1072" y="633"/>
			<point x="983" y="752"/>
			<point x="769" y="901" type="curve" smooth="yes"/>
			<point x="550" y="1054"/>
			<point x="515" y="1120"/>
			<point x="515" y="1215" type="curve" smooth="yes"/>
			<point x="515" y="1340"/>
			<point x="635" y="1425"/>
			<point x="779" y="1425" type="curve" smooth="yes"/>
			<point x="889" y="1425"/>
			<point x="965" y="1356"/>
			<point x="965" y="1262" type="curve" smooth="yes"/>
			<point x="965" y="1136"/>
			<point x="853" y="1034"/>
			<point x="683" y="952" type="curve"/>
			<point x="810" y="830" type="line"/>
			<point x="1058" y="963"/>
			<point x="1199" y="1131"/>
			<point x="1199" y="1331" type="curve" smooth="yes"/>
			<point x="1199" y="1508"/>
			<point x="1059" y="1625"/>
			<point x="833" y="1625" type="curve" smooth="yes"/>
			<point x="510" y="1625"/>
			<point x="278" y="1400"/>
		</contour>
	</outline>
</glyph>
<glyph name="nine" format="2">
	<unicode hex="0039"/>
	<advance width="1175"/>
	<outline>
		<contour>
			<point x="955" y="859" type="curve"/>
			<point x="865" y="901" type="line"/>
			<point x="785" y="841"/>
			<point x="708" y="812"/>
			<point x="615" y="812" type="curve" smooth="yes"/>
			<point x="466" y="812"/>
			<point x="380" y="903"/>
			<point x="380" y="1064" type="curve" smooth="yes"/>
			<point x="380" y="1262"/>
			<point x="517" y="1425"/>
			<point x="680" y="1425" type="curve" smooth="yes"/>
			<point x="813" y="1425"/>
			<point x="895" y="1336"/>
			<point x="895" y="1125" type="curve" smooth="yes"/>
			<point x="895" y="907"/>
			<point x="803" y="687"/>
			<point x="307" y="181" type="curve" smooth="yes"/>
			<point x="260" y="134"/>
			<point x="252" y="110"/>
			<point x="252" y="80" type="curve" smooth="yes"/>
			<point x="252" y="25"/>
			<point x="314" y="-25"/>
			<point x="351" y="-25" type="curve" smooth="yes"/>
			<point x="393" y="-25"/>
			<point x="423" y="-8"/>
			<point x="482" y="52" type="curve" smooth="yes"/>
			<point x="1014" y="592"/>
			<point x="1135" y="892"/>
			<point x="1135" y="1165" type="curve" smooth="yes"/>
			<point x="1135" y="1451"/>
			<point x="963" y="1625"/>
			<point x="712" y="1625" type="curve" smooth="yes"/>
			<point x="385" y="1625"/>
			<point x="140" y="1351"/>
			<point x="140" y="1040" type="curve" smooth="yes"/>
			<point x="140" y="800"/>
			<point x="310" y="622"/>
			<point x="519" y="622" type="curve" smooth="yes"/>
			<point x="674" y="622"/>
			<point x="815" y="695"/>
		</contour>
	</outline>
</glyph>
<glyph name="equal" format="2">
	<unicode hex="003D"/>
	<advance width="1200"/>
	<outline>
		<contour>
			<point x="306" y="890" type="curve" smooth="yes"/>
			<point x="530" y="890"/>
			<point x="823" y="891"/>
			<point x="1005" y="900" type="curve" smooth="yes"/>
			<point x="1100" y="905"/>
			<point x="1124" y="965"/>
			<point x="1124" y="1035" type="curve" smooth="yes"/>
			<point x="1124" y="1084"/>
			<point x="1102" y="1113"/>
			<point x="1034" y="1113" type="curve" smooth="yes"/>
			<point x="854" y="1111"/>
			<point x="534" y="1110"/>
			<point x="306" y="1110" type="curve" smooth="yes"/>
			<point x="227" y="1110"/>
			<point x="205" y="1053"/>
			<point x="205" y="982" type="curve" smooth="yes"/>
			<point x="205" y="931"/>
			<point x="227" y="890"/>
		</contour>
		<contour>
			<point x="207" y="491" type="curve" smooth="yes"/>
			<point x="431" y="491"/>
			<point x="724" y="492"/>
			<point x="906" y="501" type="curve" smooth="yes"/>
			<point x="1001" y="506"/>
			<point x="1025" y="566"/>
			<point x="1025" y="636" type="curve" smooth="yes"/>
			<point x="1025" y="685"/>
			<point x="1003" y="714"/>
			<point x="935" y="714" type="curve" smooth="yes"/>
			<point x="755" y="712"/>
			<point x="435" y="711"/>
			<point x="207" y="711" type="curve" smooth="yes"/>
			<point x="128" y="711"/>
			<point x="106" y="654"/>
			<point x="106" y="583" type="curve" smooth="yes"/>
			<point x="106" y="532"/>
			<point x="128" y="491"/>
		</contour>
	</outline>
</glyph>
<glyph name="question" format="2">
	<unicode hex="003F"/>
	<advance width="1017"/>
	<outline>
		<contour>
			<point x="449" y="393" type="curve" smooth="yes"/>
			<point x="540" y="393"/>
			<point x="646" y="435"/>
			<point x="714" y="489" type="curve" smooth="yes"/>
			<point x="744" y="512"/>
			<point x="755" y="535"/>
			<point x="755" y="562" type="curve" smooth="yes"/>
			<point x="755" y="607"/>
			<point x="715" y="649"/>
			<point x="671" y="649" type="curve" smooth="yes"/>
			<point x="658" y="649"/>
			<point x="643" y="640"/>
			<point x="623" y="630" type="curve" smooth="yes"/>
			<point x="563" y="599"/>
			<point x="515" y="583"/>
			<point x="468" y="583" type="curve" smooth="yes"/>
			<point x="422" y="583"/>
			<point x="400" y="607"/>
			<point x="400" y="636" type="curve" smooth="yes"/>
			<point x="400" y="677"/>
			<point x="426" y="715"/>
			<point x="604" y="804" type="curve" smooth="yes"/>
			<point x="851" y="928"/>
			<point x="937" y="1023"/>
			<point x="937" y="1176" type="curve" smooth="yes"/>
			<point x="937" y="1312"/>
			<point x="817" y="1425"/>
			<point x="640" y="1425" type="curve" smooth="yes"/>
			<point x="498" y="1425"/>
			<point x="349" y="1374"/>
			<point x="257" y="1317" type="curve" smooth="yes"/>
			<point x="211" y="1289"/>
			<point x="200" y="1269"/>
			<point x="200" y="1243" type="curve" smooth="yes"/>
			<point x="200" y="1190"/>
			<point x="247" y="1135"/>
			<point x="293" y="1135" type="curve" smooth="yes"/>
			<point x="315" y="1135"/>
			<point x="334" y="1143"/>
			<point x="383" y="1164" type="curve" smooth="yes"/>
			<point x="448" y="1192"/>
			<point x="527" y="1220"/>
			<point x="606" y="1220" type="curve" smooth="yes"/>
			<point x="679" y="1220"/>
			<point x="716" y="1188"/>
			<point x="716" y="1148" type="curve" smooth="yes"/>
			<point x="716" y="1107"/>
			<point x="694" y="1080"/>
			<point x="502" y="985" type="curve" smooth="yes"/>
			<point x="284" y="877"/>
			<point x="190" y="761"/>
			<point x="190" y="633" type="curve" smooth="yes"/>
			<point x="190" y="505"/>
			<point x="304" y="393"/>
		</contour>
		<contour>
			<point x="321" y="-12" type="curve" smooth="yes"/>
			<point x="406" y="-12"/>
			<point x="495" y="74"/>
			<point x="495" y="168" type="curve" smooth="yes"/>
			<point x="495" y="240"/>
			<point x="444" y="291"/>
			<point x="373" y="291" type="curve" smooth="yes"/>
			<point x="285" y="291"/>
			<point x="208" y="213"/>
			<point x="208" y="115" type="curve" smooth="yes"/>
			<point x="208" y="36"/>
			<point x="258" y="-12"/>
		</contour>
	</outline>
</glyph>
<glyph name="at" format="2">
	<unicode hex="0040"/>
	<advance width="2301"/>
	<outline>
		<contour>
			<point x="100" y="331" type="curve" smooth="yes"/>
			<point x="100" y="-238"/>
			<point x="466" y="-560"/>
			<point x="1063" y="-560" type="curve" smooth="yes"/>
			<point x="1260" y="-560"/>
			<point x="1428" y="-525"/>
			<point x="1541" y="-485" type="curve" smooth="yes"/>
			<point x="1646" y="-448"/>
			<point x="1688" y="-414"/>
			<point x="1688" y="-370" type="curve" smooth="yes"/>
			<point x="1688" y="-335"/>
			<point x="1661" y="-247"/>
			<point x="1602" y="-247" type="curve" smooth="yes"/>
			<point x="1583" y="-247"/>
			<point x="1561" y="-255"/>
			<point x="1517" y="-268" type="curve" smooth="yes"/>
			<point x="1399" y="-304"/>
			<point x="1250" y="-330"/>
			<point x="1095" y="-330" type="curve" smooth="yes"/>
			<point x="634" y="-330"/>
			<point x="345" y="-99"/>
			<point x="345" y="346" type="curve" smooth="yes"/>
			<point x="345" y="839"/>
			<point x="699" y="1270"/>
			<point x="1262" y="1270" type="curve" smooth="yes"/>
			<point x="1641" y="1270"/>
			<point x="1896" y="1080"/>
			<point x="1896" y="711" type="curve" smooth="yes"/>
			<point x="1896" y="391"/>
			<point x="1680" y="153"/>
			<point x="1504" y="153" type="curve" smooth="yes"/>
			<point x="1454" y="153"/>
			<point x="1440" y="164"/>
			<point x="1440" y="199" type="curve" smooth="yes"/>
			<point x="1440" y="224"/>
			<point x="1446" y="248"/>
			<point x="1463" y="315" type="curve" smooth="yes"/>
			<point x="1597" y="835" type="line" smooth="yes"/>
			<point x="1609" y="880"/>
			<point x="1612" y="904"/>
			<point x="1612" y="916" type="curve" smooth="yes"/>
			<point x="1612" y="966"/>
			<point x="1550" y="1000"/>
			<point x="1470" y="1000" type="curve" smooth="yes"/>
			<point x="1409" y="1000"/>
			<point x="1387" y="985"/>
			<point x="1367" y="911" type="curve" smooth="yes"/>
			<point x="1314" y="712" type="line" smooth="yes"/>
			<point x="1246" y="458"/>
			<point x="1055" y="168"/>
			<point x="962" y="168" type="curve" smooth="yes"/>
			<point x="922" y="168"/>
			<point x="893" y="209"/>
			<point x="893" y="326" type="curve" smooth="yes"/>
			<point x="893" y="571"/>
			<point x="1018" y="800"/>
			<point x="1141" y="800" type="curve" smooth="yes"/>
			<point x="1185" y="800"/>
			<point x="1239" y="782"/>
			<point x="1335" y="738" type="curve"/>
			<point x="1383" y="915" type="line"/>
			<point x="1271" y="977"/>
			<point x="1204" y="1000"/>
			<point x="1134" y="1000" type="curve" smooth="yes"/>
			<point x="876" y="1000"/>
			<point x="648" y="667"/>
			<point x="648" y="286" type="curve" smooth="yes"/>
			<point x="648" y="71"/>
			<point x="753" y="-32"/>
			<point x="858" y="-32" type="curve" smooth="yes"/>
			<point x="986" y="-32"/>
			<point x="1130" y="104"/>
			<point x="1260" y="360" type="curve"/>
			<point x="1246" y="369" type="line"/>
			<point x="1224" y="289"/>
			<point x="1200" y="213"/>
			<point x="1200" y="158" type="curve" smooth="yes"/>
			<point x="1200" y="65"/>
			<point x="1268" y="-32"/>
			<point x="1434" y="-32" type="curve" smooth="yes"/>
			<point x="1806" y="-32"/>
			<point x="2141" y="292"/>
			<point x="2141" y="747" type="curve" smooth="yes"/>
			<point x="2141" y="1213"/>
			<point x="1806" y="1500"/>
			<point x="1280" y="1500" type="curve" smooth="yes"/>
			<point x="557" y="1500"/>
			<point x="100" y="963"/>
		</contour>
	</outline>
</glyph>
<glyph name="B" format="2">
	<unicode hex="0042"/>
	<advance width="1374"/>
	<outline>
		<contour>
			<point x="382" y="55" type="line"/>
			<point x="791" y="1555" type="line"/>
			<point x="550" y="1545" type="line"/>
			<point x="145" y="68" type="line"/>
		</contour>
		<contour>
			<point x="630" y="918" type="curve" smooth="yes"/>
			<point x="558" y="918" type="line"/>
			<point x="510" y="743" type="line"/>
			<point x="788" y="747"/>
			<point x="933" y="643"/>
			<point x="933" y="470" type="curve" smooth="yes"/>
			<point x="933" y="302"/>
			<point x="766" y="178"/>
			<point x="513" y="178" type="curve" smooth="yes"/>
			<point x="375" y="178"/>
			<point x="231" y="231"/>
			<point x="160" y="258" type="curve" smooth="yes"/>
			<point x="117" y="274"/>
			<point x="101" y="277"/>
			<point x="86" y="277" type="curve" smooth="yes"/>
			<point x="49" y="277"/>
			<point x="0" y="228"/>
			<point x="0" y="157" type="curve" smooth="yes"/>
			<point x="0" y="85"/>
			<point x="250" y="-22"/>
			<point x="500" y="-22" type="curve" smooth="yes"/>
			<point x="874" y="-22"/>
			<point x="1173" y="163"/>
			<point x="1173" y="472" type="curve" smooth="yes"/>
			<point x="1173" y="647"/>
			<point x="1019" y="810"/>
			<point x="782" y="848" type="curve"/>
			<point x="782" y="798" type="line"/>
			<point x="1096" y="820"/>
			<point x="1294" y="1012"/>
			<point x="1294" y="1228" type="curve" smooth="yes"/>
			<point x="1294" y="1462"/>
			<point x="1081" y="1625"/>
			<point x="787" y="1625" type="curve" smooth="yes"/>
			<point x="531" y="1625"/>
			<point x="328" y="1549"/>
			<point x="328" y="1468" type="curve" smooth="yes"/>
			<point x="328" y="1433"/>
			<point x="362" y="1379"/>
			<point x="399" y="1379" type="curve" smooth="yes"/>
			<point x="420" y="1379"/>
			<point x="486" y="1391"/>
			<point x="527" y="1397" type="curve" smooth="yes"/>
			<point x="556" y="1401"/>
			<point x="661" y="1422"/>
			<point x="769" y="1422" type="curve" smooth="yes"/>
			<point x="946" y="1422"/>
			<point x="1054" y="1348"/>
			<point x="1054" y="1208" type="curve" smooth="yes"/>
			<point x="1054" y="1033"/>
			<point x="910" y="918"/>
		</contour>
	</outline>
	<anchor name="bottom" x="521" y="0"/>
	<anchor name="center" x="477" y="840"/>
	<anchor name="top" x="835" y="1600"/>
</glyph>
<glyph name="D" format="2">
	<unicode hex="0044"/>
	<advance width="1495"/>
	<outline>
		<contour>
			<point x="0" y="157" type="curve" smooth="yes"/>
			<point x="0" y="85"/>
			<point x="250" y="-25"/>
			<point x="495" y="-25" type="curve" smooth="yes"/>
			<point x="982" y="-25"/>
			<point x="1395" y="386"/>
			<point x="1395" y="981" type="curve" smooth="yes"/>
			<point x="1395" y="1400"/>
			<point x="1124" y="1625"/>
			<point x="763" y="1625" type="curve" smooth="yes"/>
			<point x="513" y="1625"/>
			<point x="314" y="1549"/>
			<point x="314" y="1468" type="curve" smooth="yes"/>
			<point x="314" y="1433"/>
			<point x="349" y="1379"/>
			<point x="385" y="1379" type="curve" smooth="yes"/>
			<point x="405" y="1379"/>
			<point x="472" y="1391"/>
			<point x="513" y="1397" type="curve" smooth="yes"/>
			<point x="556" y="1403"/>
			<point x="647" y="1422"/>
			<point x="755" y="1422" type="curve" smooth="yes"/>
			<point x="960" y="1422"/>
			<point x="1145" y="1286"/>
			<point x="1145" y="960" type="curve" smooth="yes"/>
			<point x="1145" y="500"/>
			<point x="872" y="178"/>
			<point x="513" y="178" type="curve" smooth="yes"/>
			<point x="428" y="178"/>
			<point x="318" y="205"/>
			<point x="225" y="236" type="curve" smooth="yes"/>
			<point x="172" y="253"/>
			<point x="109" y="277"/>
			<point x="86" y="277" type="curve" smooth="yes"/>
			<point x="49" y="277"/>
			<point x="0" y="228"/>
		</contour>
		<contour>
			<point x="382" y="55" type="line"/>
			<point x="791" y="1555" type="line"/>
			<point x="550" y="1545" type="line"/>
			<point x="165" y="134" type="line"/>
		</contour>
	</outline>
	<anchor name="bottom" x="320" y="0"/>
	<anchor name="center" x="510" y="830"/>
	<anchor name="top" x="851" y="1600"/>
</glyph>
<glyph name="E" format="2">
	<unicode hex="0045"/>
	<advance width="584"/>
	<outline>
		<contour>
			<point x="515" y="-12" type="curve" smooth="yes"/>
			<point x="582" y="-12"/>
			<point x="654" y="40"/>
			<point x="654" y="141" type="curve" smooth="yes"/>
			<point x="654" y="176"/>
			<point x="628" y="188"/>
			<point x="597" y="188" type="curve" smooth="yes"/>
			<point x="395" y="188"/>
			<point x="295" y="274"/>
			<point x="295" y="426" type="curve" smooth="yes"/>
			<point x="295" y="595"/>
			<point x="433" y="730"/>
			<point x="608" y="786" type="curve"/>
			<point x="650" y="767"/>
			<point x="736" y="746"/>
			<point x="793" y="746" type="curve" smooth="yes"/>
			<point x="860" y="746"/>
			<point x="909" y="794"/>
			<point x="921" y="891" type="curve" smooth="yes"/>
			<point x="928" y="948"/>
			<point x="909" y="985"/>
			<point x="847" y="985" type="curve" smooth="yes"/>
			<point x="794" y="985"/>
			<point x="751" y="976"/>
			<point x="635" y="940" type="curve"/>
			<point x="562" y="973"/>
			<point x="514" y="1047"/>
			<point x="514" y="1136" type="curve" smooth="yes"/>
			<point x="514" y="1296"/>
			<point x="643" y="1425"/>
			<point x="803" y="1425" type="curve" smooth="yes"/>
			<point x="879" y="1425"/>
			<point x="949" y="1404"/>
			<point x="1020" y="1367" type="curve" smooth="yes"/>
			<point x="1054" y="1349"/>
			<point x="1064" y="1346"/>
			<point x="1076" y="1346" type="curve" smooth="yes"/>
			<point x="1123" y="1346"/>
			<point x="1174" y="1408"/>
			<point x="1174" y="1465" type="curve" smooth="yes"/>
			<point x="1174" y="1489"/>
			<point x="1165" y="1505"/>
			<point x="1133" y="1530" type="curve" smooth="yes"/>
			<point x="1065" y="1583"/>
			<point x="947" y="1625"/>
			<point x="830" y="1625" type="curve" smooth="yes"/>
			<point x="490" y="1625"/>
			<point x="276" y="1383"/>
			<point x="276" y="1154" type="curve" smooth="yes"/>
			<point x="276" y="1029"/>
			<point x="343" y="918"/>
			<point x="466" y="848" type="curve"/>
			<point x="475" y="885" type="line"/>
			<point x="253" y="807"/>
			<point x="60" y="599"/>
			<point x="60" y="362" type="curve" smooth="yes"/>
			<point x="60" y="133"/>
			<point x="244" y="-12"/>
		</contour>
	</outline>
	<anchor name="bottom" x="541" y="0"/>
	<anchor name="ogonek" x="647" y="0"/>
	<anchor name="top" x="866" y="1625"/>
	<anchor name="topleft" x="545" y="1600"/>
</glyph>
<glyph name="G" format="2">
	<unicode hex="0047"/>
	<advance width="1130"/>
	<outline>
		<contour>
			<point x="1026" y="374" type="curve"/>
			<point x="990" y="373" type="line"/>
			<point x="956" y="243"/>
			<point x="925" y="107"/>
			<point x="867" y="-141" type="curve" smooth="yes"/>
			<point x="799" y="-436"/>
			<point x="704" y="-549"/>
			<point x="609" y="-549" type="curve" smooth="yes"/>
			<point x="567" y="-549"/>
			<point x="541" y="-527"/>
			<point x="541" y="-480" type="curve" smooth="yes"/>
			<point x="541" y="-372"/>
			<point x="650" y="-230"/>
			<point x="895" y="-95" type="curve"/>
			<point x="943" y="93" type="line"/>
			<point x="500" y="-126"/>
			<point x="331" y="-321"/>
			<point x="331" y="-494" type="curve" smooth="yes"/>
			<point x="331" y="-616"/>
			<point x="439" y="-690"/>
			<point x="567" y="-690" type="curve" smooth="yes"/>
			<point x="800" y="-690"/>
			<point x="1000" y="-505"/>
			<point x="1086" y="-116" type="curve" smooth="yes"/>
			<point x="1132" y="93"/>
			<point x="1206" y="407"/>
			<point x="1233" y="511" type="curve"/>
			<point x="1272" y="603"/>
			<point x="1302" y="691"/>
			<point x="1302" y="713" type="curve" smooth="yes"/>
			<point x="1302" y="760"/>
			<point x="1258" y="805"/>
			<point x="1145" y="805" type="curve" smooth="yes"/>
			<point x="1099" y="805"/>
			<point x="1074" y="791"/>
			<point x="1052" y="718" type="curve" smooth="yes"/>
			<point x="949" y="379"/>
			<point x="783" y="208"/>
			<point x="622" y="208" type="curve" smooth="yes"/>
			<point x="470" y="208"/>
			<point x="370" y="314"/>
			<point x="370" y="612" type="curve" smooth="yes"/>
			<point x="370" y="1076"/>
			<point x="677" y="1415"/>
			<point x="915" y="1415" type="curve" smooth="yes"/>
			<point x="976" y="1415"/>
			<point x="1046" y="1399"/>
			<point x="1124" y="1351" type="curve" smooth="yes"/>
			<point x="1163" y="1327"/>
			<point x="1184" y="1315"/>
			<point x="1209" y="1315" type="curve" smooth="yes"/>
			<point x="1263" y="1315"/>
			<point x="1310" y="1382"/>
			<point x="1310" y="1423" type="curve" smooth="yes"/>
			<point x="1310" y="1455"/>
			<point x="1298" y="1481"/>
			<point x="1237" y="1525" type="curve" smooth="yes"/>
			<point x="1168" y="1575"/>
			<point x="1054" y="1615"/>
			<point x="932" y="1615" type="curve" smooth="yes"/>
			<point x="472" y="1615"/>
			<point x="120" y="1094"/>
			<point x="120" y="588" type="curve" smooth="yes"/>
			<point x="120" y="223"/>
			<point x="314" y="8"/>
			<point x="555" y="8" type="curve" smooth="yes"/>
			<point x="728" y="8"/>
			<point x="944" y="163"/>
		</contour>
	</outline>
	<anchor name="bottom" x="580" y="0"/>
	<anchor name="top" x="870" y="1600"/>
</glyph>
<glyph name="H" format="2">
	<unicode hex="0048"/>
	<advance width="1409"/>
	<outline>
		<contour>
			<point x="316" y="72" type="curve" smooth="yes"/>
			<point x="699" y="1484" type="line" smooth="yes"/>
			<point x="706" y="1511"/>
			<point x="707" y="1520"/>
			<point x="707" y="1528" type="curve" smooth="yes"/>
			<point x="707" y="1560"/>
			<point x="654" y="1600"/>
			<point x="569" y="1600" type="curve" smooth="yes"/>
			<point x="512" y="1600"/>
			<point x="486" y="1590"/>
			<point x="475" y="1549" type="curve" smooth="yes"/>
			<point x="96" y="157" type="line" smooth="yes"/>
			<point x="87" y="122"/>
			<point x="80" y="94"/>
			<point x="80" y="74" type="curve" smooth="yes"/>
			<point x="80" y="24"/>
			<point x="143" y="-12"/>
			<point x="223" y="-12" type="curve" smooth="yes"/>
			<point x="278" y="-12"/>
			<point x="300" y="14"/>
		</contour>
		<contour>
			<point x="1018" y="72" type="curve" smooth="yes"/>
			<point x="1401" y="1484" type="line" smooth="yes"/>
			<point x="1408" y="1511"/>
			<point x="1409" y="1520"/>
			<point x="1409" y="1528" type="curve" smooth="yes"/>
			<point x="1409" y="1560"/>
			<point x="1356" y="1600"/>
			<point x="1271" y="1600" type="curve" smooth="yes"/>
			<point x="1214" y="1600"/>
			<point x="1188" y="1590"/>
			<point x="1177" y="1549" type="curve" smooth="yes"/>
			<point x="798" y="157" type="line" smooth="yes"/>
			<point x="789" y="122"/>
			<point x="782" y="94"/>
			<point x="782" y="74" type="curve" smooth="yes"/>
			<point x="782" y="24"/>
			<point x="845" y="-12"/>
			<point x="925" y="-12" type="curve" smooth="yes"/>
			<point x="980" y="-12"/>
			<point x="1002" y="14"/>
		</contour>
	</outline>
	<anchor name="bottom" x="565" y="0"/>
	<anchor name="center" x="783" y="830"/>
	<anchor name="top" x="981" y="1600"/>
	<anchor name="topleft" x="540" y="1600"/>
</glyph>
<glyph name="R" format="2">
	<unicode hex="0052"/>
	<advance width="1065"/>
	<outline>
		<contour>
			<point x="278" y="117" type="curve" smooth="yes"/>
			<point x="660" y="1549" type="line"/>
			<point x="422" y="1544" type="line"/>
			<point x="55" y="195" type="line" smooth="yes"/>
			<point x="31" y="107"/>
			<point x="30" y="94"/>
			<point x="30" y="85" type="curve" smooth="yes"/>
			<point x="30" y="18"/>
			<point x="92" y="-12"/>
			<point x="163" y="-12" type="curve" smooth="yes"/>
			<point x="230" y="-12"/>
			<point x="250" y="14"/>
		</contour>
		<contour>
			<point x="188" y="1468" type="curve" smooth="yes"/>
			<point x="188" y="1433"/>
			<point x="224" y="1379"/>
			<point x="259" y="1379" type="curve" smooth="yes"/>
			<point x="280" y="1379"/>
			<point x="346" y="1390"/>
			<point x="426" y="1404" type="curve" smooth="yes"/>
			<point x="506" y="1418"/>
			<point x="617" y="1422"/>
			<point x="699" y="1422" type="curve" smooth="yes"/>
			<point x="899" y="1422"/>
			<point x="1058" y="1310"/>
			<point x="1058" y="1141" type="curve" smooth="yes"/>
			<point x="1058" y="954"/>
			<point x="906" y="829"/>
			<point x="638" y="829" type="curve" smooth="yes"/>
			<point x="574" y="829"/>
			<point x="476" y="838"/>
			<point x="413" y="849" type="curve"/>
			<point x="389" y="714" type="line"/>
			<point x="420" y="640"/>
			<point x="502" y="479"/>
			<point x="643" y="257" type="curve" smooth="yes"/>
			<point x="777" y="46"/>
			<point x="858" y="-12"/>
			<point x="993" y="-12" type="curve" smooth="yes"/>
			<point x="1063" y="-12"/>
			<point x="1102" y="50"/>
			<point x="1102" y="95" type="curve" smooth="yes"/>
			<point x="1102" y="168"/>
			<point x="1071" y="188"/>
			<point x="1048" y="188" type="curve" smooth="yes"/>
			<point x="965" y="188"/>
			<point x="920" y="244"/>
			<point x="781" y="440" type="curve" smooth="yes"/>
			<point x="683" y="578"/>
			<point x="632" y="656"/>
			<point x="604" y="703" type="curve"/>
			<point x="594" y="679" type="line"/>
			<point x="620" y="671"/>
			<point x="665" y="664"/>
			<point x="729" y="664" type="curve" smooth="yes"/>
			<point x="1018" y="664"/>
			<point x="1288" y="868"/>
			<point x="1288" y="1156" type="curve" smooth="yes"/>
			<point x="1288" y="1425"/>
			<point x="1047" y="1625"/>
			<point x="717" y="1625" type="curve" smooth="yes"/>
			<point x="422" y="1625"/>
			<point x="188" y="1549"/>
		</contour>
	</outline>
	<anchor name="bottom" x="559" y="0"/>
	<anchor name="top" x="879" y="1600"/>
</glyph>
<glyph name="T" format="2">
	<unicode hex="0054"/>
	<advance width="1113"/>
	<outline>
		<contour>
			<point x="888" y="1543" type="curve"/>
			<point x="640" y="1543" type="line"/>
			<point x="516" y="1160"/>
			<point x="347" y="568"/>
			<point x="264" y="188" type="curve" smooth="yes"/>
			<point x="248" y="115"/>
			<point x="245" y="98"/>
			<point x="245" y="75" type="curve" smooth="yes"/>
			<point x="245" y="17"/>
			<point x="316" y="-12"/>
			<point x="386" y="-12" type="curve" smooth="yes"/>
			<point x="452" y="-12"/>
			<point x="474" y="12"/>
			<point x="495" y="107" type="curve" smooth="yes"/>
			<point x="583" y="515"/>
			<point x="758" y="1139"/>
		</contour>
		<contour>
			<point x="251" y="1375" type="curve"/>
			<point x="311" y="1375"/>
			<point x="1125" y="1381"/>
			<point x="1206" y="1385" type="curve" smooth="yes"/>
			<point x="1280" y="1388"/>
			<point x="1313" y="1437"/>
			<point x="1313" y="1525" type="curve" smooth="yes"/>
			<point x="1313" y="1584"/>
			<point x="1283" y="1613"/>
			<point x="1212" y="1613" type="curve" smooth="yes"/>
			<point x="860" y="1613"/>
			<point x="345" y="1605"/>
			<point x="263" y="1600" type="curve" smooth="yes"/>
			<point x="209" y="1597"/>
			<point x="180" y="1546"/>
			<point x="180" y="1481" type="curve" smooth="yes"/>
			<point x="180" y="1422"/>
			<point x="206" y="1375"/>
		</contour>
	</outline>
	<anchor name="bottom" x="330" y="0"/>
	<anchor name="center" x="555" y="840"/>
	<anchor name="top" x="770" y="1600"/>
</glyph>
<glyph name="U" format="2">
	<unicode hex="0055"/>
	<advance width="1087"/>
	<outline>
		<contour>
			<point x="1015" y="-12" type="curve" smooth="yes"/>
			<point x="1075" y="-12"/>
			<point x="1113" y="32"/>
			<point x="1113" y="102" type="curve" smooth="yes"/>
			<point x="1113" y="160"/>
			<point x="1097" y="188"/>
			<point x="1066" y="188" type="curve" smooth="yes"/>
			<point x="1033" y="188"/>
			<point x="1017" y="199"/>
			<point x="1017" y="237" type="curve" smooth="yes"/>
			<point x="1017" y="259"/>
			<point x="1022" y="288"/>
			<point x="1048" y="387" type="curve" smooth="yes"/>
			<point x="1097" y="583"/>
			<point x="1212" y="1060"/>
			<point x="1313" y="1402" type="curve" smooth="yes"/>
			<point x="1331" y="1465"/>
			<point x="1343" y="1506"/>
			<point x="1343" y="1528" type="curve" smooth="yes"/>
			<point x="1343" y="1560"/>
			<point x="1290" y="1600"/>
			<point x="1205" y="1600" type="curve" smooth="yes"/>
			<point x="1146" y="1600"/>
			<point x="1122" y="1591"/>
			<point x="1105" y="1531" type="curve" smooth="yes"/>
			<point x="1022" y="1232"/>
			<point x="993" y="1122"/>
			<point x="906" y="887" type="curve" smooth="yes"/>
			<point x="727" y="404"/>
			<point x="527" y="188"/>
			<point x="392" y="188" type="curve" smooth="yes"/>
			<point x="341" y="188"/>
			<point x="304" y="230"/>
			<point x="304" y="309" type="curve" smooth="yes"/>
			<point x="304" y="379"/>
			<point x="316" y="457"/>
			<point x="356" y="589" type="curve" smooth="yes"/>
			<point x="399" y="729"/>
			<point x="435" y="825"/>
			<point x="482" y="964" type="curve" smooth="yes"/>
			<point x="524" y="1087"/>
			<point x="579" y="1236"/>
			<point x="618" y="1370" type="curve" smooth="yes"/>
			<point x="647" y="1473"/>
			<point x="653" y="1495"/>
			<point x="653" y="1528" type="curve" smooth="yes"/>
			<point x="653" y="1560"/>
			<point x="600" y="1600"/>
			<point x="515" y="1600" type="curve" smooth="yes"/>
			<point x="454" y="1600"/>
			<point x="434" y="1589"/>
			<point x="414" y="1518" type="curve" smooth="yes"/>
			<point x="375" y="1379"/>
			<point x="313" y="1177"/>
			<point x="271" y="1047" type="curve" smooth="yes"/>
			<point x="217" y="879"/>
			<point x="189" y="800"/>
			<point x="141" y="650" type="curve" smooth="yes"/>
			<point x="92" y="497"/>
			<point x="64" y="374"/>
			<point x="64" y="272" type="curve" smooth="yes"/>
			<point x="64" y="101"/>
			<point x="168" y="-12"/>
			<point x="306" y="-12" type="curve" smooth="yes"/>
			<point x="481" y="-12"/>
			<point x="651" y="99"/>
			<point x="918" y="628" type="curve"/>
			<point x="908" y="636" type="line"/>
			<point x="869" y="527"/>
			<point x="842" y="434"/>
			<point x="826" y="383" type="curve" smooth="yes"/>
			<point x="797" y="296"/>
			<point x="787" y="236"/>
			<point x="787" y="188" type="curve" smooth="yes"/>
			<point x="787" y="61"/>
			<point x="872" y="-12"/>
		</contour>
	</outline>
	<anchor name="bottom" x="502" y="0"/>
	<anchor name="ogonek" x="1130" y="-12"/>
	<anchor name="top" x="900" y="1600"/>
	<anchor name="topright" x="1587" y="1434"/>
</glyph>
<glyph name="V" format="2">
	<unicode hex="0056"/>
	<advance width="1215"/>
	<outline>
		<contour>
			<point x="228" y="1451" type="curve" smooth="yes"/>
			<point x="220" y="197" type="line" smooth="yes"/>
			<point x="220" y="160"/>
			<point x="220" y="141"/>
			<point x="221" y="120" type="curve" smooth="yes"/>
			<point x="226" y="32"/>
			<point x="295" y="-12"/>
			<point x="369" y="-12" type="curve" smooth="yes"/>
			<point x="452" y="-12"/>
			<point x="510" y="28"/>
			<point x="557" y="128" type="curve" smooth="yes"/>
			<point x="837" y="723"/>
			<point x="1003" y="1008"/>
			<point x="1201" y="1257" type="curve" smooth="yes"/>
			<point x="1252" y="1321"/>
			<point x="1287" y="1360"/>
			<point x="1339" y="1412" type="curve" smooth="yes"/>
			<point x="1379" y="1452"/>
			<point x="1395" y="1472"/>
			<point x="1395" y="1500" type="curve" smooth="yes"/>
			<point x="1395" y="1542"/>
			<point x="1351" y="1600"/>
			<point x="1266" y="1600" type="curve" smooth="yes"/>
			<point x="1202" y="1600"/>
			<point x="1145" y="1566"/>
			<point x="1068" y="1475" type="curve" smooth="yes"/>
			<point x="895" y="1270"/>
			<point x="648" y="835"/>
			<point x="387" y="189" type="curve"/>
			<point x="440" y="189" type="line"/>
			<point x="491" y="1414" type="line" smooth="yes"/>
			<point x="492" y="1449"/>
			<point x="493" y="1489"/>
			<point x="493" y="1509" type="curve" smooth="yes"/>
			<point x="493" y="1575"/>
			<point x="454" y="1600"/>
			<point x="373" y="1600" type="curve" smooth="yes"/>
			<point x="279" y="1600"/>
			<point x="228" y="1567"/>
			<point x="228" y="1505" type="curve" smooth="yes"/>
			<point x="228" y="1483"/>
			<point x="228" y="1475"/>
		</contour>
	</outline>
	<anchor name="bottom" x="370" y="0"/>
	<anchor name="top" x="815" y="1602"/>
</glyph>
<glyph name="X" format="2">
	<unicode hex="0058"/>
	<advance width="1352"/>
	<outline>
		<contour>
			<point x="168" y="60" type="curve" smooth="yes"/>
			<point x="678" y="685" type="line"/>
			<point x="582" y="859" type="line"/>
			<point x="6" y="222" type="line" smooth="yes"/>
			<point x="-50" y="160"/>
			<point x="-60" y="145"/>
			<point x="-60" y="104" type="curve" smooth="yes"/>
			<point x="-60" y="49"/>
			<point x="-5" y="-12"/>
			<point x="63" y="-12" type="curve" smooth="yes"/>
			<point x="99" y="-12"/>
			<point x="115" y="-5"/>
		</contour>
		<contour>
			<point x="1181" y="1534" type="curve" smooth="yes"/>
			<point x="684" y="934" type="line"/>
			<point x="767" y="735" type="line"/>
			<point x="1353" y="1395" type="line" smooth="yes"/>
			<point x="1384" y="1430"/>
			<point x="1402" y="1463"/>
			<point x="1402" y="1487" type="curve" smooth="yes"/>
			<point x="1402" y="1548"/>
			<point x="1340" y="1600"/>
			<point x="1281" y="1600" type="curve" smooth="yes"/>
			<point x="1246" y="1600"/>
			<point x="1225" y="1587"/>
		</contour>
		<contour>
			<point x="1018" y="273" type="curve" smooth="yes"/>
			<point x="836" y="657"/>
			<point x="654" y="1114"/>
			<point x="541" y="1467" type="curve" smooth="yes"/>
			<point x="505" y="1579"/>
			<point x="485" y="1600"/>
			<point x="441" y="1600" type="curve" smooth="yes"/>
			<point x="369" y="1600"/>
			<point x="287" y="1551"/>
			<point x="287" y="1498" type="curve" smooth="yes"/>
			<point x="287" y="1461"/>
			<point x="305" y="1402"/>
			<point x="341" y="1298" type="curve" smooth="yes"/>
			<point x="457" y="963"/>
			<point x="641" y="507"/>
			<point x="839" y="88" type="curve" smooth="yes"/>
			<point x="895" y="-31"/>
			<point x="920" y="-52"/>
			<point x="969" y="-52" type="curve" smooth="yes"/>
			<point x="1030" y="-52"/>
			<point x="1101" y="4"/>
			<point x="1101" y="62" type="curve" smooth="yes"/>
			<point x="1101" y="80"/>
			<point x="1096" y="100"/>
			<point x="1085" y="126" type="curve" smooth="yes"/>
			<point x="1069" y="164"/>
			<point x="1049" y="208"/>
		</contour>
	</outline>
	<anchor name="bottom" x="380" y="0"/>
	<anchor name="top" x="889" y="1600"/>
	<guideline x="-13" y="79" angle="230.2583"/>
</glyph>
<glyph name="Y" format="2">
	<unicode hex="0059"/>
	<advance width="1138"/>
	<outline>
		<contour>
			<point x="195" y="1429" type="curve" smooth="yes"/>
			<point x="427" y="478" type="line"/>
			<point x="595" y="691" type="line"/>
			<point x="418" y="1512" type="line" smooth="yes"/>
			<point x="400" y="1595"/>
			<point x="374" y="1614"/>
			<point x="325" y="1614" type="curve" smooth="yes"/>
			<point x="253" y="1614"/>
			<point x="180" y="1581"/>
			<point x="180" y="1525" type="curve" smooth="yes"/>
			<point x="180" y="1497"/>
			<point x="187" y="1461"/>
		</contour>
		<contour>
			<point x="531" y="810" type="curve"/>
			<point x="403" y="642" type="line"/>
			<point x="284" y="485"/>
			<point x="161" y="319"/>
			<point x="55" y="161" type="curve" smooth="yes"/>
			<point x="30" y="124"/>
			<point x="30" y="112"/>
			<point x="30" y="90" type="curve" smooth="yes"/>
			<point x="30" y="49"/>
			<point x="92" y="-12"/>
			<point x="161" y="-12" type="curve" smooth="yes"/>
			<point x="191" y="-12"/>
			<point x="210" y="-2"/>
			<point x="249" y="60" type="curve" smooth="yes"/>
			<point x="536" y="513"/>
			<point x="896" y="974"/>
			<point x="1264" y="1389" type="curve" smooth="yes"/>
			<point x="1319" y="1451"/>
			<point x="1329" y="1468"/>
			<point x="1328" y="1501" type="curve" smooth="yes"/>
			<point x="1328" y="1559"/>
			<point x="1260" y="1609"/>
			<point x="1205" y="1609" type="curve" smooth="yes"/>
			<point x="1172" y="1609"/>
			<point x="1160" y="1604"/>
			<point x="1122" y="1559" type="curve" smooth="yes"/>
			<point x="899" y="1299"/>
			<point x="672" y="995"/>
		</contour>
	</outline>
	<anchor name="bottom" x="340" y="0"/>
	<anchor name="top" x="775" y="1600"/>
	<anchor name="topleft" x="140" y="1600"/>
</glyph>
<glyph name="bracketleft" format="2">
	<unicode hex="005B"/>
	<advance width="938"/>
	<outline>
		<contour>
			<point x="340" y="-398" type="curve" smooth="yes"/>
			<point x="462" y="-398" type="line" smooth="yes"/>
			<point x="569" y="-398"/>
			<point x="632" y="-349"/>
			<point x="632" y="-251" type="curve" smooth="yes"/>
			<point x="632" y="-180"/>
			<point x="587" y="-158"/>
			<point x="519" y="-158" type="curve" smooth="yes"/>
			<point x="432" y="-158" type="line" smooth="yes"/>
			<point x="402" y="-158"/>
			<point x="389" y="-149"/>
			<point x="389" y="-125" type="curve" smooth="yes"/>
			<point x="389" y="-107"/>
			<point x="396" y="-79"/>
			<point x="408" y="-33" type="curve" smooth="yes"/>
			<point x="778" y="1442" type="line" smooth="yes"/>
			<point x="795" y="1510"/>
			<point x="816" y="1527"/>
			<point x="872" y="1527" type="curve" smooth="yes"/>
			<point x="947" y="1527" type="line" smooth="yes"/>
			<point x="1040" y="1527"/>
			<point x="1101" y="1565"/>
			<point x="1101" y="1660" type="curve" smooth="yes"/>
			<point x="1101" y="1739"/>
			<point x="1065" y="1767"/>
			<point x="975" y="1767" type="curve" smooth="yes"/>
			<point x="818" y="1767" type="line" smooth="yes"/>
			<point x="688" y="1767"/>
			<point x="597" y="1691"/>
			<point x="560" y="1544" type="curve" smooth="yes"/>
			<point x="143" y="-117" type="line" smooth="yes"/>
			<point x="138" y="-136"/>
			<point x="130" y="-171"/>
			<point x="130" y="-211" type="curve" smooth="yes"/>
			<point x="130" y="-305"/>
			<point x="195" y="-398"/>
		</contour>
	</outline>
</glyph>
<glyph name="backslash" format="2">
	<unicode hex="005C"/>
	<advance width="942"/>
	<outline>
		<contour>
			<point x="620" y="-155" type="curve" smooth="yes"/>
			<point x="697" y="-155"/>
			<point x="742" y="-119"/>
			<point x="742" y="-64" type="curve" smooth="yes"/>
			<point x="742" y="-46"/>
			<point x="738" y="-28"/>
			<point x="735" y="-12" type="curve" smooth="yes"/>
			<point x="470" y="1371" type="line" smooth="yes"/>
			<point x="454" y="1453"/>
			<point x="425" y="1476"/>
			<point x="366" y="1476" type="curve" smooth="yes"/>
			<point x="306" y="1476"/>
			<point x="246" y="1441"/>
			<point x="246" y="1381" type="curve" smooth="yes"/>
			<point x="246" y="1367"/>
			<point x="248" y="1348"/>
			<point x="254" y="1316" type="curve" smooth="yes"/>
			<point x="517" y="-66" type="line" smooth="yes"/>
			<point x="531" y="-138"/>
			<point x="563" y="-155"/>
		</contour>
	</outline>
</glyph>
<glyph name="underscore" format="2">
	<unicode hex="005F"/>
	<advance width="1610"/>
	<outline>
		<contour>
			<point x="185" y="-290" type="curve" smooth="yes"/>
			<point x="1420" y="-290" type="line" smooth="yes"/>
			<point x="1463" y="-290"/>
			<point x="1495" y="-259"/>
			<point x="1495" y="-185" type="curve" smooth="yes"/>
			<point x="1495" y="-115"/>
			<point x="1471" y="-80"/>
			<point x="1425" y="-80" type="curve" smooth="yes"/>
			<point x="190" y="-80" type="line" smooth="yes"/>
			<point x="147" y="-80"/>
			<point x="115" y="-114"/>
			<point x="115" y="-201" type="curve" smooth="yes"/>
			<point x="115" y="-260"/>
			<point x="140" y="-290"/>
		</contour>
	</outline>
</glyph>
<glyph name="b" format="2">
	<unicode hex="0062"/>
	<advance width="1001"/>
	<outline>
		<contour>
			<point x="240" y="279" type="curve" smooth="yes"/>
			<point x="240" y="328"/>
			<point x="251" y="386"/>
			<point x="277" y="477" type="curve" smooth="yes"/>
			<point x="489" y="1204" type="line" smooth="yes"/>
			<point x="504" y="1254"/>
			<point x="518" y="1302"/>
			<point x="518" y="1331" type="curve" smooth="yes"/>
			<point x="518" y="1380"/>
			<point x="444" y="1425"/>
			<point x="361" y="1425" type="curve" smooth="yes"/>
			<point x="310" y="1425"/>
			<point x="289" y="1406"/>
			<point x="265" y="1319" type="curve" smooth="yes"/>
			<point x="55" y="548" type="line" smooth="yes"/>
			<point x="21" y="423"/>
			<point x="0" y="326"/>
			<point x="0" y="254" type="curve" smooth="yes"/>
			<point x="0" y="85"/>
			<point x="115" y="-22"/>
			<point x="309" y="-22" type="curve" smooth="yes"/>
			<point x="615" y="-22"/>
			<point x="909" y="317"/>
			<point x="909" y="706" type="curve" smooth="yes"/>
			<point x="909" y="937"/>
			<point x="769" y="1020"/>
			<point x="649" y="1020" type="curve" smooth="yes"/>
			<point x="542" y="1020"/>
			<point x="429" y="936"/>
			<point x="429" y="863" type="curve" smooth="yes"/>
			<point x="429" y="838"/>
			<point x="452" y="822"/>
			<point x="482" y="822" type="curve" smooth="yes"/>
			<point x="490" y="822"/>
			<point x="516" y="824"/>
			<point x="533" y="827" type="curve" smooth="yes"/>
			<point x="553" y="830"/>
			<point x="576" y="833"/>
			<point x="593" y="833" type="curve" smooth="yes"/>
			<point x="639" y="833"/>
			<point x="669" y="780"/>
			<point x="669" y="673" type="curve" smooth="yes"/>
			<point x="669" y="367"/>
			<point x="490" y="158"/>
			<point x="343" y="158" type="curve" smooth="yes"/>
			<point x="276" y="158"/>
			<point x="240" y="187"/>
		</contour>
	</outline>
	<anchor name="bottom" x="311" y="0"/>
	<anchor name="top" x="447" y="1400"/>
</glyph>
<glyph name="d" format="2">
	<unicode hex="0064"/>
	<advance width="850"/>
	<outline>
		<contour>
			<point x="696" y="758" type="curve"/>
			<point x="744" y="935" type="line"/>
			<point x="632" y="997"/>
			<point x="565" y="1020"/>
			<point x="495" y="1020" type="curve" smooth="yes"/>
			<point x="237" y="1020"/>
			<point x="9" y="687"/>
			<point x="9" y="306" type="curve" smooth="yes"/>
			<point x="9" y="91"/>
			<point x="114" y="-12"/>
			<point x="219" y="-12" type="curve" smooth="yes"/>
			<point x="347" y="-12"/>
			<point x="491" y="124"/>
			<point x="621" y="380" type="curve"/>
			<point x="607" y="389" type="line"/>
			<point x="581" y="297" type="line" smooth="yes"/>
			<point x="570" y="259"/>
			<point x="561" y="221"/>
			<point x="561" y="188" type="curve" smooth="yes"/>
			<point x="561" y="67"/>
			<point x="651" y="-12"/>
			<point x="791" y="-12" type="curve" smooth="yes"/>
			<point x="850" y="-12"/>
			<point x="904" y="40"/>
			<point x="904" y="120" type="curve" smooth="yes"/>
			<point x="904" y="158"/>
			<point x="889" y="188"/>
			<point x="841" y="188" type="curve" smooth="yes"/>
			<point x="815" y="188"/>
			<point x="801" y="197"/>
			<point x="801" y="217" type="curve" smooth="yes"/>
			<point x="801" y="239"/>
			<point x="806" y="270"/>
			<point x="824" y="335" type="curve" smooth="yes"/>
			<point x="1074" y="1260" type="line" smooth="yes"/>
			<point x="1086" y="1305"/>
			<point x="1089" y="1329"/>
			<point x="1089" y="1341" type="curve" smooth="yes"/>
			<point x="1089" y="1391"/>
			<point x="1027" y="1425"/>
			<point x="947" y="1425" type="curve" smooth="yes"/>
			<point x="886" y="1425"/>
			<point x="865" y="1410"/>
			<point x="844" y="1336" type="curve" smooth="yes"/>
			<point x="675" y="732" type="line" smooth="yes"/>
			<point x="604" y="478"/>
			<point x="416" y="188"/>
			<point x="323" y="188" type="curve" smooth="yes"/>
			<point x="283" y="188"/>
			<point x="254" y="229"/>
			<point x="254" y="346" type="curve" smooth="yes"/>
			<point x="254" y="591"/>
			<point x="379" y="820"/>
			<point x="502" y="820" type="curve" smooth="yes"/>
			<point x="546" y="820"/>
			<point x="600" y="802"/>
		</contour>
	</outline>
	<anchor name="bottom" x="275" y="0"/>
	<anchor name="center" x="812" y="1135"/>
	<anchor name="top" x="976" y="1400"/>
	<anchor name="topright" x="1099" y="1400"/>
</glyph>
<glyph name="f" format="2">
	<unicode hex="0066"/>
	<advance width="135"/>
	<outline>
		<contour>
			<point x="698" y="1225" type="curve" smooth="yes"/>
			<point x="746" y="1225"/>
			<point x="788" y="1206"/>
			<point x="824" y="1188" type="curve" smooth="yes"/>
			<point x="842" y="1179"/>
			<point x="860" y="1171"/>
			<point x="875" y="1171" type="curve" smooth="yes"/>
			<point x="912" y="1171"/>
			<point x="964" y="1237"/>
			<point x="964" y="1295" type="curve" smooth="yes"/>
			<point x="964" y="1347"/>
			<point x="843" y="1425"/>
			<point x="715" y="1425" type="curve" smooth="yes"/>
			<point x="504" y="1425"/>
			<point x="356" y="1249"/>
			<point x="293" y="975" type="curve" smooth="yes"/>
			<point x="239" y="738"/>
			<point x="171" y="371"/>
			<point x="145" y="192" type="curve"/>
			<point x="37" y="162"/>
			<point x="-30" y="122"/>
			<point x="-30" y="48" type="curve" smooth="yes"/>
			<point x="-30" y="2"/>
			<point x="-6" y="-26"/>
			<point x="68" y="-82" type="curve"/>
			<point x="32" y="-195" type="line" smooth="yes"/>
			<point x="10" y="-265"/>
			<point x="-2" y="-312"/>
			<point x="-2" y="-349" type="curve" smooth="yes"/>
			<point x="-2" y="-437"/>
			<point x="61" y="-470"/>
			<point x="134" y="-470" type="curve" smooth="yes"/>
			<point x="224" y="-470"/>
			<point x="267" y="-436"/>
			<point x="282" y="-225" type="curve" smooth="yes"/>
			<point x="287" y="-155"/>
			<point x="289" y="-66"/>
			<point x="289" y="-26" type="curve"/>
			<point x="336" y="212"/>
			<point x="416" y="607"/>
			<point x="481" y="880" type="curve" smooth="yes"/>
			<point x="544" y="1143"/>
			<point x="615" y="1225"/>
		</contour>
	</outline>
</glyph>
<glyph name="g" format="2">
	<unicode hex="0067"/>
	<advance width="784"/>
	<outline>
		<contour>
			<point x="705" y="10" type="curve"/>
			<point x="724" y="174" type="line"/>
			<point x="194" y="17"/>
			<point x="72" y="-86"/>
			<point x="72" y="-252" type="curve" smooth="yes"/>
			<point x="72" y="-375"/>
			<point x="188" y="-470"/>
			<point x="360" y="-470" type="curve" smooth="yes"/>
			<point x="653" y="-470"/>
			<point x="878" y="-291"/>
			<point x="878" y="-34" type="curve" smooth="yes"/>
			<point x="878" y="106"/>
			<point x="837" y="345"/>
			<point x="878" y="582" type="curve" smooth="yes"/>
			<point x="894" y="675"/>
			<point x="928" y="774"/>
			<point x="952" y="840" type="curve" smooth="yes"/>
			<point x="970" y="891"/>
			<point x="975" y="924"/>
			<point x="975" y="936" type="curve" smooth="yes"/>
			<point x="974" y="986"/>
			<point x="903" y="1020"/>
			<point x="812" y="1020" type="curve" smooth="yes"/>
			<point x="781" y="1020"/>
			<point x="751" y="1008"/>
			<point x="733" y="944" type="curve"/>
			<point x="633" y="996"/>
			<point x="551" y="1020"/>
			<point x="496" y="1020" type="curve" smooth="yes"/>
			<point x="238" y="1020"/>
			<point x="10" y="720"/>
			<point x="10" y="376" type="curve" smooth="yes"/>
			<point x="10" y="176"/>
			<point x="105" y="88"/>
			<point x="215" y="88" type="curve" smooth="yes"/>
			<point x="335" y="88"/>
			<point x="522" y="226"/>
			<point x="634" y="409" type="curve"/>
			<point x="629" y="413" type="line"/>
			<point x="614" y="188"/>
			<point x="653" y="62"/>
			<point x="653" y="-80" type="curve" smooth="yes"/>
			<point x="653" y="-208"/>
			<point x="550" y="-290"/>
			<point x="401" y="-290" type="curve" smooth="yes"/>
			<point x="327" y="-290"/>
			<point x="282" y="-264"/>
			<point x="282" y="-220" type="curve" smooth="yes"/>
			<point x="282" y="-144"/>
			<point x="371" y="-79"/>
		</contour>
		<contour>
			<point x="255" y="416" type="curve" smooth="yes"/>
			<point x="255" y="625"/>
			<point x="380" y="820"/>
			<point x="503" y="820" type="curve" smooth="yes"/>
			<point x="548" y="820"/>
			<point x="611" y="799"/>
			<point x="684" y="762" type="curve"/>
			<point x="678" y="740" type="line" smooth="yes"/>
			<point x="608" y="487"/>
			<point x="423" y="288"/>
			<point x="326" y="288" type="curve" smooth="yes"/>
			<point x="284" y="288"/>
			<point x="255" y="307"/>
		</contour>
	</outline>
	<anchor name="bottom" x="360" y="-470"/>
	<anchor name="top" x="610" y="1005"/>
</glyph>
<glyph name="h" format="2">
	<unicode hex="0068"/>
	<advance width="849"/>
	<outline>
		<contour>
			<point x="551" y="1284" type="line"/>
			<point x="558" y="1308"/>
			<point x="563" y="1329"/>
			<point x="563" y="1344" type="curve" smooth="yes"/>
			<point x="563" y="1390"/>
			<point x="490" y="1425"/>
			<point x="410" y="1425" type="curve" smooth="yes"/>
			<point x="356" y="1425"/>
			<point x="337" y="1417"/>
			<point x="319" y="1347" type="curve" smooth="yes"/>
			<point x="11" y="143" type="line" smooth="yes"/>
			<point x="5" y="119"/>
			<point x="0" y="99"/>
			<point x="0" y="74" type="curve" smooth="yes"/>
			<point x="0" y="27"/>
			<point x="66" y="-12"/>
			<point x="146" y="-12" type="curve" smooth="yes"/>
			<point x="194" y="-12"/>
			<point x="216" y="7"/>
			<point x="241" y="96" type="curve" smooth="yes"/>
			<point x="276" y="219"/>
			<point x="322" y="333"/>
			<point x="372" y="437" type="curve" smooth="yes"/>
			<point x="472" y="645"/>
			<point x="612" y="800"/>
			<point x="696" y="800" type="curve" smooth="yes"/>
			<point x="728" y="800"/>
			<point x="754" y="777"/>
			<point x="754" y="732" type="curve" smooth="yes"/>
			<point x="754" y="687"/>
			<point x="731" y="621"/>
			<point x="666" y="471" type="curve" smooth="yes"/>
			<point x="596" y="310"/>
			<point x="577" y="228"/>
			<point x="577" y="162" type="curve" smooth="yes"/>
			<point x="577" y="50"/>
			<point x="655" y="-12"/>
			<point x="795" y="-12" type="curve" smooth="yes"/>
			<point x="858" y="-12"/>
			<point x="895" y="40"/>
			<point x="895" y="120" type="curve" smooth="yes"/>
			<point x="895" y="157"/>
			<point x="885" y="188"/>
			<point x="849" y="188" type="curve" smooth="yes"/>
			<point x="827" y="188"/>
			<point x="817" y="197"/>
			<point x="817" y="225" type="curve" smooth="yes"/>
			<point x="817" y="269"/>
			<point x="843" y="343"/>
			<point x="904" y="488" type="curve" smooth="yes"/>
			<point x="959" y="620"/>
			<point x="994" y="725"/>
			<point x="994" y="824" type="curve" smooth="yes"/>
			<point x="994" y="941"/>
			<point x="903" y="1020"/>
			<point x="806" y="1020" type="curve" smooth="yes"/>
			<point x="640" y="1020"/>
			<point x="468" y="851"/>
			<point x="268" y="430" type="curve"/>
			<point x="296" y="437" type="line"/>
		</contour>
	</outline>
	<anchor name="bottom" x="420" y="0"/>
	<anchor name="center" x="337" y="1122"/>
	<anchor name="top" x="451" y="1400"/>
</glyph>
<glyph name="k" format="2">
	<unicode hex="006B"/>
	<advance width="855"/>
	<outline>
		<contour>
			<point x="321" y="1347" type="curve" smooth="yes"/>
			<point x="11" y="143" type="line" smooth="yes"/>
			<point x="5" y="119"/>
			<point x="0" y="83"/>
			<point x="0" y="74" type="curve" smooth="yes"/>
			<point x="0" y="27"/>
			<point x="66" y="-12"/>
			<point x="146" y="-12" type="curve" smooth="yes"/>
			<point x="194" y="-12"/>
			<point x="220" y="7"/>
			<point x="241" y="96" type="curve" smooth="yes"/>
			<point x="278" y="255"/>
			<point x="303" y="357"/>
			<point x="331" y="414" type="curve" smooth="yes"/>
			<point x="442" y="640"/>
			<point x="600" y="798"/>
			<point x="695" y="798" type="curve" smooth="yes"/>
			<point x="732" y="798"/>
			<point x="754" y="776"/>
			<point x="754" y="733" type="curve" smooth="yes"/>
			<point x="754" y="656"/>
			<point x="674" y="571"/>
			<point x="491" y="520" type="curve" smooth="yes"/>
			<point x="444" y="507"/>
			<point x="417" y="481"/>
			<point x="417" y="446" type="curve" smooth="yes"/>
			<point x="417" y="423"/>
			<point x="429" y="382"/>
			<point x="464" y="299" type="curve" smooth="yes"/>
			<point x="562" y="65"/>
			<point x="665" y="-12"/>
			<point x="797" y="-12" type="curve" smooth="yes"/>
			<point x="860" y="-12"/>
			<point x="895" y="40"/>
			<point x="895" y="120" type="curve" smooth="yes"/>
			<point x="895" y="160"/>
			<point x="882" y="188"/>
			<point x="855" y="188" type="curve" smooth="yes"/>
			<point x="770" y="188"/>
			<point x="716" y="235"/>
			<point x="624" y="449" type="curve"/>
			<point x="890" y="514"/>
			<point x="997" y="676"/>
			<point x="997" y="814" type="curve" smooth="yes"/>
			<point x="997" y="946"/>
			<point x="904" y="1021"/>
			<point x="807" y="1021" type="curve" smooth="yes"/>
			<point x="637" y="1021"/>
			<point x="458" y="857"/>
			<point x="268" y="461" type="curve"/>
			<point x="297" y="438" type="line"/>
			<point x="553" y="1284" type="line" smooth="yes"/>
			<point x="560" y="1306"/>
			<point x="565" y="1329"/>
			<point x="565" y="1344" type="curve" smooth="yes"/>
			<point x="565" y="1390"/>
			<point x="492" y="1425"/>
			<point x="412" y="1425" type="curve" smooth="yes"/>
			<point x="358" y="1425"/>
			<point x="339" y="1417"/>
		</contour>
	</outline>
	<anchor name="bottom" x="427" y="0"/>
	<anchor name="top" x="452" y="1400"/>
</glyph>
<glyph name="l" format="2">
	<unicode hex="006C"/>
	<advance width="312"/>
	<outline>
		<contour>
			<point x="278" y="425" type="curve" smooth="yes"/>
			<point x="539" y="1238" type="line" smooth="yes"/>
			<point x="559" y="1299"/>
			<point x="560" y="1312"/>
			<point x="560" y="1333" type="curve" smooth="yes"/>
			<point x="560" y="1373"/>
			<point x="496" y="1425"/>
			<point x="411" y="1425" type="curve" smooth="yes"/>
			<point x="358" y="1425"/>
			<point x="328" y="1406"/>
			<point x="305" y="1328" type="curve" smooth="yes"/>
			<point x="57" y="506" type="line" smooth="yes"/>
			<point x="17" y="374"/>
			<point x="0" y="291"/>
			<point x="0" y="225" type="curve" smooth="yes"/>
			<point x="0" y="71"/>
			<point x="112" y="-12"/>
			<point x="262" y="-12" type="curve" smooth="yes"/>
			<point x="318" y="-12"/>
			<point x="348" y="40"/>
			<point x="348" y="120" type="curve" smooth="yes"/>
			<point x="348" y="157"/>
			<point x="340" y="188"/>
			<point x="312" y="188" type="curve" smooth="yes"/>
			<point x="265" y="188"/>
			<point x="240" y="207"/>
			<point x="240" y="259" type="curve" smooth="yes"/>
			<point x="240" y="301"/>
			<point x="253" y="346"/>
		</contour>
	</outline>
	<anchor name="bottom" x="144" y="0"/>
	<anchor name="center" x="271" y="775"/>
	<anchor name="top" x="472" y="1400"/>
	<anchor name="topright" x="593" y="1400"/>
</glyph>
<glyph name="n" format="2">
	<unicode hex="006E"/>
	<advance width="803"/>
	<outline>
		<contour>
			<point x="753" y="-12" type="curve" smooth="yes"/>
			<point x="812" y="-12"/>
			<point x="849" y="46"/>
			<point x="849" y="120" type="curve" smooth="yes"/>
			<point x="849" y="157"/>
			<point x="841" y="188"/>
			<point x="803" y="188" type="curve" smooth="yes"/>
			<point x="783" y="188"/>
			<point x="771" y="198"/>
			<point x="771" y="225" type="curve" smooth="yes"/>
			<point x="771" y="269"/>
			<point x="797" y="343"/>
			<point x="858" y="488" type="curve" smooth="yes"/>
			<point x="913" y="620"/>
			<point x="948" y="725"/>
			<point x="948" y="824" type="curve" smooth="yes"/>
			<point x="948" y="941"/>
			<point x="857" y="1020"/>
			<point x="760" y="1020" type="curve" smooth="yes"/>
			<point x="594" y="1020"/>
			<point x="422" y="851"/>
			<point x="222" y="430" type="curve"/>
			<point x="250" y="417" type="line"/>
			<point x="388" y="835" type="line" smooth="yes"/>
			<point x="406" y="889"/>
			<point x="411" y="919"/>
			<point x="411" y="938" type="curve" smooth="yes"/>
			<point x="411" y="982"/>
			<point x="359" y="1020"/>
			<point x="267" y="1020" type="curve" smooth="yes"/>
			<point x="216" y="1020"/>
			<point x="194" y="1001"/>
			<point x="172" y="917" type="curve" smooth="yes"/>
			<point x="-36" y="139" type="line" smooth="yes"/>
			<point x="-46" y="102"/>
			<point x="-46" y="87"/>
			<point x="-46" y="74" type="curve" smooth="yes"/>
			<point x="-46" y="27"/>
			<point x="20" y="-12"/>
			<point x="100" y="-12" type="curve" smooth="yes"/>
			<point x="148" y="-12"/>
			<point x="170" y="7"/>
			<point x="195" y="96" type="curve" smooth="yes"/>
			<point x="230" y="219"/>
			<point x="276" y="333"/>
			<point x="326" y="437" type="curve" smooth="yes"/>
			<point x="426" y="644"/>
			<point x="566" y="800"/>
			<point x="650" y="800" type="curve" smooth="yes"/>
			<point x="682" y="800"/>
			<point x="708" y="777"/>
			<point x="708" y="732" type="curve" smooth="yes"/>
			<point x="708" y="687"/>
			<point x="685" y="621"/>
			<point x="620" y="471" type="curve" smooth="yes"/>
			<point x="552" y="314"/>
			<point x="531" y="236"/>
			<point x="531" y="182" type="curve" smooth="yes"/>
			<point x="531" y="54"/>
			<point x="616" y="-12"/>
		</contour>
	</outline>
	<anchor name="bottom" x="387" y="0"/>
	<anchor name="top" x="620" y="1005"/>
</glyph>
<glyph name="q" format="2">
	<unicode hex="0071"/>
	<advance width="900"/>
	<outline>
		<contour>
			<point x="9" y="306" type="curve" smooth="yes"/>
			<point x="9" y="91"/>
			<point x="114" y="-12"/>
			<point x="219" y="-12" type="curve" smooth="yes"/>
			<point x="358" y="-12"/>
			<point x="489" y="127"/>
			<point x="675" y="448" type="curve"/>
			<point x="661" y="535" type="line"/>
			<point x="606" y="309"/>
			<point x="511" y="-48"/>
			<point x="465" y="-219" type="curve" smooth="yes"/>
			<point x="442" y="-302"/>
			<point x="434" y="-351"/>
			<point x="434" y="-391" type="curve" smooth="yes"/>
			<point x="434" y="-436"/>
			<point x="465" y="-470"/>
			<point x="555" y="-470" type="curve" smooth="yes"/>
			<point x="619" y="-470"/>
			<point x="656" y="-429"/>
			<point x="670" y="-356" type="curve" smooth="yes"/>
			<point x="704" y="-180"/>
			<point x="723" y="-92"/>
			<point x="836" y="367" type="curve" smooth="yes"/>
			<point x="961" y="866" type="line" smooth="yes"/>
			<point x="968" y="892"/>
			<point x="975" y="924"/>
			<point x="975" y="936" type="curve" smooth="yes"/>
			<point x="974" y="986"/>
			<point x="912" y="1022"/>
			<point x="832" y="1022" type="curve" smooth="yes"/>
			<point x="787" y="1022"/>
			<point x="745" y="998"/>
			<point x="735" y="954" type="curve" smooth="yes"/>
			<point x="732" y="942" type="line"/>
			<point x="627" y="999"/>
			<point x="563" y="1020"/>
			<point x="495" y="1020" type="curve" smooth="yes"/>
			<point x="237" y="1020"/>
			<point x="9" y="687"/>
		</contour>
		<contour>
			<point x="254" y="346" type="curve" smooth="yes"/>
			<point x="254" y="591"/>
			<point x="379" y="820"/>
			<point x="502" y="820" type="curve" smooth="yes"/>
			<point x="545" y="820"/>
			<point x="598" y="803"/>
			<point x="689" y="761" type="curve"/>
			<point x="600" y="468"/>
			<point x="414" y="189"/>
			<point x="324" y="189" type="curve" smooth="yes"/>
			<point x="283" y="189"/>
			<point x="254" y="229"/>
		</contour>
	</outline>
</glyph>
<glyph name="r" format="2">
	<unicode hex="0072"/>
	<advance width="705"/>
	<outline>
		<contour>
			<point x="702" y="921" type="curve" smooth="yes"/>
			<point x="702" y="986"/>
			<point x="693" y="1020"/>
			<point x="676" y="1020" type="curve" smooth="yes"/>
			<point x="549" y="1020"/>
			<point x="405" y="906"/>
			<point x="209" y="374" type="curve"/>
			<point x="224" y="366" type="line"/>
			<point x="380" y="839" type="line" smooth="yes"/>
			<point x="398" y="892"/>
			<point x="404" y="919"/>
			<point x="404" y="938" type="curve" smooth="yes"/>
			<point x="404" y="986"/>
			<point x="352" y="1020"/>
			<point x="273" y="1020" type="curve" smooth="yes"/>
			<point x="218" y="1020"/>
			<point x="194" y="999"/>
			<point x="172" y="917" type="curve" smooth="yes"/>
			<point x="-36" y="139" type="line" smooth="yes"/>
			<point x="-46" y="102"/>
			<point x="-46" y="87"/>
			<point x="-46" y="74" type="curve" smooth="yes"/>
			<point x="-46" y="27"/>
			<point x="20" y="-12"/>
			<point x="100" y="-12" type="curve" smooth="yes"/>
			<point x="148" y="-12"/>
			<point x="169" y="7"/>
			<point x="196" y="100" type="curve" smooth="yes"/>
			<point x="230" y="219"/>
			<point x="254" y="292"/>
			<point x="316" y="439" type="curve" smooth="yes"/>
			<point x="418" y="683"/>
			<point x="526" y="800"/>
			<point x="639" y="800" type="curve" smooth="yes"/>
			<point x="678" y="800"/>
			<point x="702" y="847"/>
		</contour>
	</outline>
	<anchor name="bottom" x="70" y="0"/>
	<anchor name="top" x="522" y="1005"/>
</glyph>
<glyph name="u" format="2">
	<unicode hex="0075"/>
	<advance width="824"/>
	<outline>
		<contour>
			<point x="180" y="935" type="curve" smooth="yes"/>
			<point x="172" y="898"/>
			<point x="146" y="790"/>
			<point x="78" y="563" type="curve" smooth="yes"/>
			<point x="19" y="366"/>
			<point x="2" y="290"/>
			<point x="2" y="210" type="curve" smooth="yes"/>
			<point x="2" y="74"/>
			<point x="84" y="-12"/>
			<point x="215" y="-12" type="curve" smooth="yes"/>
			<point x="402" y="-12"/>
			<point x="592" y="222"/>
			<point x="658" y="434" type="curve"/>
			<point x="644" y="439" type="line"/>
			<point x="608" y="349"/>
			<point x="579" y="246"/>
			<point x="579" y="178" type="curve" smooth="yes"/>
			<point x="579" y="59"/>
			<point x="654" y="-12"/>
			<point x="774" y="-12" type="curve" smooth="yes"/>
			<point x="808" y="-12"/>
			<point x="863" y="43"/>
			<point x="863" y="129" type="curve" smooth="yes"/>
			<point x="863" y="172"/>
			<point x="842" y="188"/>
			<point x="824" y="188" type="curve" smooth="yes"/>
			<point x="791" y="188"/>
			<point x="779" y="203"/>
			<point x="779" y="239" type="curve" smooth="yes"/>
			<point x="779" y="262"/>
			<point x="781" y="293"/>
			<point x="819" y="421" type="curve" smooth="yes"/>
			<point x="939" y="826" type="line" smooth="yes"/>
			<point x="956" y="882"/>
			<point x="962" y="907"/>
			<point x="962" y="925" type="curve" smooth="yes"/>
			<point x="962" y="980"/>
			<point x="888" y="1020"/>
			<point x="810" y="1020" type="curve" smooth="yes"/>
			<point x="763" y="1020"/>
			<point x="743" y="999"/>
			<point x="729" y="944" type="curve" smooth="yes"/>
			<point x="685" y="775"/>
			<point x="624" y="574"/>
			<point x="551" y="416" type="curve" smooth="yes"/>
			<point x="477" y="259"/>
			<point x="398" y="188"/>
			<point x="316" y="188" type="curve" smooth="yes"/>
			<point x="278" y="188"/>
			<point x="242" y="209"/>
			<point x="242" y="266" type="curve" smooth="yes"/>
			<point x="242" y="321"/>
			<point x="259" y="387"/>
			<point x="323" y="591" type="curve" smooth="yes"/>
			<point x="383" y="787"/>
			<point x="413" y="903"/>
			<point x="413" y="935" type="curve" smooth="yes"/>
			<point x="413" y="990"/>
			<point x="344" y="1020"/>
			<point x="275" y="1020" type="curve" smooth="yes"/>
			<point x="226" y="1020"/>
			<point x="194" y="997"/>
		</contour>
	</outline>
	<anchor name="bottom" x="344" y="0"/>
	<anchor name="ogonek" x="731" y="0"/>
	<anchor name="top" x="580" y="1005"/>
	<anchor name="topright" x="998" y="990"/>
</glyph>
<glyph name="braceleft" format="2">
	<unicode hex="007B"/>
	<advance width="814"/>
	<outline>
		<contour>
			<point x="50" y="694" type="curve" smooth="yes"/>
			<point x="50" y="644"/>
			<point x="91" y="603"/>
			<point x="160" y="603" type="curve" smooth="yes"/>
			<point x="244" y="603"/>
			<point x="332" y="628"/>
			<point x="397" y="665" type="curve" smooth="yes"/>
			<point x="535" y="743"/>
			<point x="606" y="870"/>
			<point x="606" y="1044" type="curve" smooth="yes"/>
			<point x="606" y="1351"/>
			<point x="738" y="1501"/>
			<point x="948" y="1558" type="curve" smooth="yes"/>
			<point x="1000" y="1572"/>
			<point x="1014" y="1584"/>
			<point x="1014" y="1613" type="curve" smooth="yes"/>
			<point x="1014" y="1657"/>
			<point x="978" y="1678"/>
			<point x="899" y="1678" type="curve" smooth="yes"/>
			<point x="630" y="1678"/>
			<point x="376" y="1453"/>
			<point x="376" y="1078" type="curve" smooth="yes"/>
			<point x="376" y="859"/>
			<point x="340" y="797"/>
			<point x="247" y="751" type="curve"/>
			<point x="207" y="662" type="line"/>
			<point x="257" y="626"/>
			<point x="274" y="573"/>
			<point x="274" y="513" type="curve" smooth="yes"/>
			<point x="274" y="448"/>
			<point x="250" y="366"/>
			<point x="199" y="249" type="curve" smooth="yes"/>
			<point x="152" y="141"/>
			<point x="127" y="56"/>
			<point x="127" y="-35" type="curve" smooth="yes"/>
			<point x="127" y="-157"/>
			<point x="188" y="-260"/>
			<point x="310" y="-332" type="curve" smooth="yes"/>
			<point x="364" y="-364"/>
			<point x="425" y="-376"/>
			<point x="470" y="-376" type="curve" smooth="yes"/>
			<point x="527" y="-376"/>
			<point x="554" y="-354"/>
			<point x="554" y="-319" type="curve" smooth="yes"/>
			<point x="554" y="-289"/>
			<point x="529" y="-276"/>
			<point x="477" y="-244" type="curve" smooth="yes"/>
			<point x="401" y="-197"/>
			<point x="357" y="-139"/>
			<point x="357" y="-52" type="curve" smooth="yes"/>
			<point x="357" y="34"/>
			<point x="390" y="121"/>
			<point x="440" y="241" type="curve" smooth="yes"/>
			<point x="483" y="345"/>
			<point x="504" y="442"/>
			<point x="504" y="513" type="curve" smooth="yes"/>
			<point x="504" y="610"/>
			<point x="464" y="684"/>
			<point x="385" y="744" type="curve" smooth="yes"/>
			<point x="308" y="803"/>
			<point x="247" y="828"/>
			<point x="168" y="828" type="curve" smooth="yes"/>
			<point x="96" y="828"/>
			<point x="50" y="775"/>
		</contour>
	</outline>
</glyph>
<glyph name="cent" format="2">
	<unicode hex="00A2"/>
	<advance width="1200"/>
	<outline>
		<contour>
			<point x="566" y="310" type="curve" smooth="yes"/>
			<point x="688" y="310"/>
			<point x="824" y="362"/>
			<point x="920" y="434" type="curve" smooth="yes"/>
			<point x="966" y="469"/>
			<point x="985" y="498"/>
			<point x="985" y="528" type="curve" smooth="yes"/>
			<point x="985" y="563"/>
			<point x="944" y="606"/>
			<point x="913" y="606" type="curve" smooth="yes"/>
			<point x="895" y="606"/>
			<point x="879" y="599"/>
			<point x="840" y="574" type="curve" smooth="yes"/>
			<point x="773" y="532"/>
			<point x="697" y="490"/>
			<point x="615" y="490" type="curve" smooth="yes"/>
			<point x="505" y="490"/>
			<point x="445" y="547"/>
			<point x="445" y="710" type="curve" smooth="yes"/>
			<point x="445" y="952"/>
			<point x="589" y="1148"/>
			<point x="762" y="1148" type="curve" smooth="yes"/>
			<point x="826" y="1148"/>
			<point x="883" y="1122"/>
			<point x="935" y="1091" type="curve" smooth="yes"/>
			<point x="965" y="1073"/>
			<point x="980" y="1065"/>
			<point x="1002" y="1065" type="curve" smooth="yes"/>
			<point x="1048" y="1065"/>
			<point x="1080" y="1118"/>
			<point x="1080" y="1155" type="curve" smooth="yes"/>
			<point x="1080" y="1184"/>
			<point x="1064" y="1206"/>
			<point x="1036" y="1229" type="curve" smooth="yes"/>
			<point x="971" y="1282"/>
			<point x="893" y="1322"/>
			<point x="784" y="1322" type="curve" smooth="yes"/>
			<point x="473" y="1322"/>
			<point x="220" y="1037"/>
			<point x="220" y="691" type="curve" smooth="yes"/>
			<point x="220" y="466"/>
			<point x="379" y="310"/>
		</contour>
		<contour>
			<point x="538" y="120" type="curve" smooth="yes"/>
			<point x="585" y="120"/>
			<point x="608" y="137"/>
			<point x="621" y="189" type="curve" smooth="yes"/>
			<point x="923" y="1368" type="line" smooth="yes"/>
			<point x="931" y="1399"/>
			<point x="937" y="1419"/>
			<point x="937" y="1444" type="curve" smooth="yes"/>
			<point x="937" y="1481"/>
			<point x="884" y="1510"/>
			<point x="810" y="1510" type="curve" smooth="yes"/>
			<point x="769" y="1510"/>
			<point x="749" y="1492"/>
			<point x="734" y="1433" type="curve" smooth="yes"/>
			<point x="434" y="264" type="line" smooth="yes"/>
			<point x="425" y="230"/>
			<point x="420" y="211"/>
			<point x="420" y="196" type="curve" smooth="yes"/>
			<point x="420" y="156"/>
			<point x="478" y="120"/>
		</contour>
	</outline>
</glyph>
<glyph name="sterling" format="2">
	<unicode hex="00A3"/>
	<advance width="1200"/>
	<outline>
		<contour>
			<point x="-67" y="144" type="curve" smooth="yes"/>
			<point x="-67" y="57"/>
			<point x="1" y="-21"/>
			<point x="102" y="-21" type="curve" smooth="yes"/>
			<point x="290" y="-21"/>
			<point x="506" y="222"/>
			<point x="594" y="886" type="curve" smooth="yes"/>
			<point x="643" y="1256"/>
			<point x="741" y="1396"/>
			<point x="895" y="1396" type="curve" smooth="yes"/>
			<point x="935" y="1396"/>
			<point x="965" y="1388"/>
			<point x="1007" y="1367" type="curve" smooth="yes"/>
			<point x="1039" y="1351"/>
			<point x="1058" y="1343"/>
			<point x="1075" y="1343" type="curve" smooth="yes"/>
			<point x="1126" y="1343"/>
			<point x="1181" y="1402"/>
			<point x="1181" y="1464" type="curve" smooth="yes"/>
			<point x="1181" y="1495"/>
			<point x="1163" y="1521"/>
			<point x="1120" y="1552" type="curve" smooth="yes"/>
			<point x="1069" y="1589"/>
			<point x="995" y="1620"/>
			<point x="905" y="1620" type="curve" smooth="yes"/>
			<point x="599" y="1620"/>
			<point x="375" y="1365"/>
			<point x="325" y="913" type="curve" smooth="yes"/>
			<point x="250" y="240"/>
			<point x="195" y="148"/>
			<point x="115" y="148" type="curve" smooth="yes"/>
			<point x="94" y="148"/>
			<point x="86" y="155"/>
			<point x="86" y="168" type="curve" smooth="yes"/>
			<point x="86" y="182"/>
			<point x="105" y="194"/>
			<point x="142" y="194" type="curve" smooth="yes"/>
			<point x="336" y="194"/>
			<point x="512" y="-21"/>
			<point x="746" y="-21" type="curve" smooth="yes"/>
			<point x="855" y="-21"/>
			<point x="960" y="26"/>
			<point x="1030" y="130" type="curve" smooth="yes"/>
			<point x="1076" y="198"/>
			<point x="1089" y="236"/>
			<point x="1089" y="278" type="curve" smooth="yes"/>
			<point x="1089" y="322"/>
			<point x="1033" y="352"/>
			<point x="992" y="352" type="curve" smooth="yes"/>
			<point x="962" y="352"/>
			<point x="941" y="336"/>
			<point x="913" y="302" type="curve" smooth="yes"/>
			<point x="865" y="245"/>
			<point x="825" y="223"/>
			<point x="764" y="223" type="curve" smooth="yes"/>
			<point x="593" y="223"/>
			<point x="427" y="367"/>
			<point x="231" y="367" type="curve" smooth="yes"/>
			<point x="42" y="367"/>
			<point x="-67" y="272"/>
		</contour>
		<contour>
			<point x="261" y="900" type="curve" smooth="yes"/>
			<point x="171" y="900"/>
			<point x="130" y="862"/>
			<point x="130" y="802" type="curve" smooth="yes"/>
			<point x="130" y="727"/>
			<point x="177" y="698"/>
			<point x="241" y="698" type="curve" smooth="yes"/>
			<point x="477" y="698"/>
			<point x="652" y="704"/>
			<point x="837" y="720" type="curve" smooth="yes"/>
			<point x="917" y="727"/>
			<point x="973" y="763"/>
			<point x="973" y="846" type="curve" smooth="yes"/>
			<point x="973" y="889"/>
			<point x="953" y="913"/>
			<point x="903" y="913" type="curve" smooth="yes"/>
			<point x="861" y="913"/>
			<point x="804" y="911"/>
			<point x="732" y="907" type="curve" smooth="yes"/>
			<point x="663" y="903"/>
			<point x="378" y="900"/>
		</contour>
	</outline>
</glyph>
<glyph name="yen" format="2">
	<unicode hex="00A5"/>
	<advance width="1200"/>
	<outline>
		<contour>
			<point x="412" y="-12" type="curve" smooth="yes"/>
			<point x="460" y="-12"/>
			<point x="504" y="5"/>
			<point x="520" y="66" type="curve" smooth="yes"/>
			<point x="672" y="643" type="line"/>
			<point x="1237" y="1371" type="line" smooth="yes"/>
			<point x="1286" y="1434"/>
			<point x="1301" y="1455"/>
			<point x="1301" y="1487" type="curve" smooth="yes"/>
			<point x="1301" y="1552"/>
			<point x="1233" y="1600"/>
			<point x="1180" y="1600" type="curve" smooth="yes"/>
			<point x="1146" y="1600"/>
			<point x="1122" y="1589"/>
			<point x="1082" y="1535" type="curve" smooth="yes"/>
			<point x="607" y="892" type="line"/>
			<point x="466" y="1487" type="line" smooth="yes"/>
			<point x="444" y="1582"/>
			<point x="423" y="1600"/>
			<point x="366" y="1600" type="curve" smooth="yes"/>
			<point x="286" y="1600"/>
			<point x="214" y="1559"/>
			<point x="214" y="1497" type="curve" smooth="yes"/>
			<point x="214" y="1462"/>
			<point x="220" y="1435"/>
			<point x="230" y="1396" type="curve" smooth="yes"/>
			<point x="421" y="641" type="line"/>
			<point x="298" y="184" type="line" smooth="yes"/>
			<point x="287" y="145"/>
			<point x="276" y="105"/>
			<point x="276" y="75" type="curve" smooth="yes"/>
			<point x="276" y="24"/>
			<point x="324" y="-12"/>
		</contour>
		<contour>
			<point x="185" y="717" type="curve" smooth="yes"/>
			<point x="482" y="717" type="line"/>
			<point x="423" y="932" type="line"/>
			<point x="214" y="932" type="line" smooth="yes"/>
			<point x="149" y="932"/>
			<point x="87" y="885"/>
			<point x="87" y="804" type="curve" smooth="yes"/>
			<point x="87" y="737"/>
			<point x="126" y="717"/>
		</contour>
		<contour>
			<point x="1012" y="932" type="curve" smooth="yes"/>
			<point x="823" y="932" type="line"/>
			<point x="682" y="717" type="line"/>
			<point x="974" y="717" type="line" smooth="yes"/>
			<point x="1054" y="717"/>
			<point x="1111" y="757"/>
			<point x="1111" y="846" type="curve" smooth="yes"/>
			<point x="1111" y="912"/>
			<point x="1076" y="932"/>
		</contour>
		<contour>
			<point x="103" y="338" type="curve" smooth="yes"/>
			<point x="872" y="338" type="line" smooth="yes"/>
			<point x="952" y="338"/>
			<point x="1009" y="378"/>
			<point x="1009" y="467" type="curve" smooth="yes"/>
			<point x="1009" y="533"/>
			<point x="974" y="553"/>
			<point x="910" y="553" type="curve" smooth="yes"/>
			<point x="132" y="553" type="line" smooth="yes"/>
			<point x="67" y="553"/>
			<point x="5" y="506"/>
			<point x="5" y="425" type="curve" smooth="yes"/>
			<point x="5" y="358"/>
			<point x="44" y="338"/>
		</contour>
	</outline>
</glyph>
<glyph name="threesuperior" format="2">
	<unicode hex="00B3"/>
	<advance width="799"/>
	<outline>
		<contour>
			<point x="308" y="985" type="curve" smooth="yes"/>
			<point x="525" y="985"/>
			<point x="691" y="1097"/>
			<point x="691" y="1257" type="curve" smooth="yes"/>
			<point x="691" y="1338"/>
			<point x="637" y="1405"/>
			<point x="540" y="1434" type="curve"/>
			<point x="531" y="1394" type="line"/>
			<point x="676" y="1441"/>
			<point x="769" y="1531"/>
			<point x="769" y="1652" type="curve" smooth="yes"/>
			<point x="769" y="1764"/>
			<point x="671" y="1837"/>
			<point x="511" y="1837" type="curve" smooth="yes"/>
			<point x="419" y="1837"/>
			<point x="322" y="1818"/>
			<point x="247" y="1787" type="curve" smooth="yes"/>
			<point x="191" y="1764"/>
			<point x="157" y="1742"/>
			<point x="157" y="1689" type="curve" smooth="yes"/>
			<point x="157" y="1650"/>
			<point x="184" y="1614"/>
			<point x="219" y="1614" type="curve" smooth="yes"/>
			<point x="239" y="1614"/>
			<point x="253" y="1619"/>
			<point x="293" y="1630" type="curve" smooth="yes"/>
			<point x="355" y="1647"/>
			<point x="401" y="1659"/>
			<point x="453" y="1659" type="curve" smooth="yes"/>
			<point x="521" y="1659"/>
			<point x="564" y="1626"/>
			<point x="564" y="1580" type="curve" smooth="yes"/>
			<point x="564" y="1536"/>
			<point x="531" y="1506"/>
			<point x="464" y="1481" type="curve"/>
			<point x="394" y="1505"/>
			<point x="364" y="1510"/>
			<point x="333" y="1510" type="curve" smooth="yes"/>
			<point x="266" y="1510"/>
			<point x="211" y="1462"/>
			<point x="211" y="1401" type="curve" smooth="yes"/>
			<point x="211" y="1353"/>
			<point x="249" y="1326"/>
			<point x="306" y="1326" type="curve" smooth="yes"/>
			<point x="329" y="1326"/>
			<point x="355" y="1328"/>
			<point x="409" y="1341" type="curve"/>
			<point x="469" y="1323"/>
			<point x="501" y="1292"/>
			<point x="501" y="1256" type="curve" smooth="yes"/>
			<point x="501" y="1206"/>
			<point x="442" y="1164"/>
			<point x="352" y="1164" type="curve" smooth="yes"/>
			<point x="282" y="1164"/>
			<point x="215" y="1187"/>
			<point x="165" y="1205" type="curve" smooth="yes"/>
			<point x="124" y="1220"/>
			<point x="106" y="1223"/>
			<point x="91" y="1223" type="curve" smooth="yes"/>
			<point x="52" y="1223"/>
			<point x="0" y="1158"/>
			<point x="0" y="1107" type="curve" smooth="yes"/>
			<point x="0" y="1080"/>
			<point x="17" y="1064"/>
			<point x="50" y="1045" type="curve" smooth="yes"/>
			<point x="104" y="1014"/>
			<point x="208" y="985"/>
		</contour>
	</outline>
</glyph>
<glyph name="AE" format="2">
	<unicode hex="00C6"/>
	<advance width="1858"/>
	<outline>
		<contour>
			<point x="981" y="1489" type="curve" smooth="yes"/>
			<point x="626" y="1042"/>
			<point x="228" y="590"/>
			<point x="-179" y="204" type="curve" smooth="yes"/>
			<point x="-244" y="142"/>
			<point x="-250" y="125"/>
			<point x="-250" y="102" type="curve" smooth="yes"/>
			<point x="-250" y="40"/>
			<point x="-191" y="-12"/>
			<point x="-140" y="-12" type="curve" smooth="yes"/>
			<point x="-108" y="-12"/>
			<point x="-89" y="-2"/>
			<point x="-61" y="24" type="curve" smooth="yes"/>
			<point x="389" y="454"/>
			<point x="775" y="908"/>
			<point x="1175" y="1448" type="curve"/>
			<point x="1140" y="1468" type="line"/>
			<point x="1106" y="1370"/>
			<point x="1046" y="1186"/>
			<point x="1012" y="1047" type="curve" smooth="yes"/>
			<point x="841" y="349" type="line" smooth="yes"/>
			<point x="831" y="310"/>
			<point x="825" y="273"/>
			<point x="825" y="241" type="curve" smooth="yes"/>
			<point x="825" y="112"/>
			<point x="922" y="0"/>
			<point x="1061" y="0" type="curve" smooth="yes"/>
			<point x="1529" y="0" type="line" smooth="yes"/>
			<point x="1607" y="0"/>
			<point x="1654" y="53"/>
			<point x="1654" y="130" type="curve" smooth="yes"/>
			<point x="1654" y="207"/>
			<point x="1615" y="230"/>
			<point x="1556" y="230" type="curve" smooth="yes"/>
			<point x="1105" y="230" type="line" smooth="yes"/>
			<point x="1066" y="230"/>
			<point x="1045" y="241"/>
			<point x="1045" y="275" type="curve" smooth="yes"/>
			<point x="1045" y="305"/>
			<point x="1055" y="357"/>
			<point x="1064" y="399" type="curve" smooth="yes"/>
			<point x="1281" y="1377" type="line"/>
			<point x="1386" y="1377"/>
			<point x="1690" y="1382"/>
			<point x="1771" y="1385" type="curve" smooth="yes"/>
			<point x="1845" y="1388"/>
			<point x="1878" y="1437"/>
			<point x="1878" y="1525" type="curve" smooth="yes"/>
			<point x="1878" y="1584"/>
			<point x="1848" y="1613"/>
			<point x="1777" y="1613" type="curve" smooth="yes"/>
			<point x="1706" y="1613"/>
			<point x="1267" y="1605"/>
			<point x="1179" y="1601" type="curve" smooth="yes"/>
			<point x="1115" y="1598"/>
			<point x="1058" y="1585"/>
		</contour>
		<contour>
			<point x="320" y="662" type="curve" smooth="yes"/>
			<point x="427" y="659"/>
			<point x="1443" y="665"/>
			<point x="1539" y="668" type="curve" smooth="yes"/>
			<point x="1612" y="670"/>
			<point x="1652" y="708"/>
			<point x="1652" y="796" type="curve" smooth="yes"/>
			<point x="1652" y="864"/>
			<point x="1623" y="887"/>
			<point x="1581" y="887" type="curve" smooth="yes"/>
			<point x="1551" y="887"/>
			<point x="1371" y="881"/>
			<point x="1317" y="880" type="curve" smooth="yes"/>
			<point x="303" y="864" type="line" smooth="yes"/>
			<point x="236" y="863"/>
			<point x="210" y="831"/>
			<point x="210" y="787" type="curve" smooth="yes"/>
			<point x="210" y="717"/>
			<point x="253" y="664"/>
		</contour>
	</outline>
	<anchor name="bottom" x="818" y="0"/>
	<anchor name="top" x="1405" y="1600"/>
</glyph>
<glyph name="multiply" format="2">
	<unicode hex="00D7"/>
	<advance width="1200"/>
	<outline>
		<contour>
			<point x="889" y="1215" type="curve" smooth="yes"/>
			<point x="571" y="910" type="line"/>
			<point x="671" y="747" type="line"/>
			<point x="1032" y="1071" type="line" smooth="yes"/>
			<point x="1074" y="1110"/>
			<point x="1083" y="1121"/>
			<point x="1083" y="1146" type="curve" smooth="yes"/>
			<point x="1083" y="1201"/>
			<point x="1024" y="1262"/>
			<point x="968" y="1262" type="curve" smooth="yes"/>
			<point x="943" y="1262"/>
			<point x="932" y="1256"/>
		</contour>
		<contour>
			<point x="281" y="402" type="curve" smooth="yes"/>
			<point x="626" y="731" type="line"/>
			<point x="524" y="894" type="line"/>
			<point x="162" y="559" type="line" smooth="yes"/>
			<point x="105" y="506"/>
			<point x="100" y="492"/>
			<point x="100" y="461" type="curve" smooth="yes"/>
			<point x="100" y="415"/>
			<point x="152" y="360"/>
			<point x="200" y="360" type="curve" smooth="yes"/>
			<point x="229" y="360"/>
			<point x="243" y="365"/>
		</contour>
		<contour>
			<point x="338" y="1065" type="curve" smooth="yes"/>
			<point x="688" y="454" type="line" smooth="yes"/>
			<point x="734" y="373"/>
			<point x="758" y="360"/>
			<point x="793" y="360" type="curve" smooth="yes"/>
			<point x="849" y="360"/>
			<point x="906" y="411"/>
			<point x="906" y="461" type="curve" smooth="yes"/>
			<point x="906" y="482"/>
			<point x="898" y="511"/>
			<point x="867" y="566" type="curve" smooth="yes"/>
			<point x="533" y="1166" type="line" smooth="yes"/>
			<point x="493" y="1237"/>
			<point x="473" y="1251"/>
			<point x="448" y="1251" type="curve" smooth="yes"/>
			<point x="375" y="1251"/>
			<point x="306" y="1199"/>
			<point x="306" y="1149" type="curve" smooth="yes"/>
			<point x="306" y="1127"/>
			<point x="313" y="1112"/>
		</contour>
	</outline>
</glyph>
<glyph name="germandbls" format="2">
	<unicode hex="00DF"/>
	<advance width="991"/>
	<outline>
		<contour>
			<point x="399" y="-65" type="curve" smooth="yes"/>
			<point x="416" y="-65"/>
			<point x="462" y="-63"/>
			<point x="524" y="-50" type="curve" smooth="yes"/>
			<point x="779" y="1"/>
			<point x="932" y="135"/>
			<point x="932" y="330" type="curve" smooth="yes"/>
			<point x="932" y="428"/>
			<point x="883" y="507"/>
			<point x="767" y="606" type="curve" smooth="yes"/>
			<point x="683" y="677"/>
			<point x="654" y="708"/>
			<point x="654" y="764" type="curve" smooth="yes"/>
			<point x="654" y="822"/>
			<point x="694" y="860"/>
			<point x="756" y="909" type="curve" smooth="yes"/>
			<point x="891" y="1016"/>
			<point x="940" y="1099"/>
			<point x="940" y="1197" type="curve" smooth="yes"/>
			<point x="940" y="1332"/>
			<point x="825" y="1425"/>
			<point x="657" y="1425" type="curve" smooth="yes"/>
			<point x="439" y="1425"/>
			<point x="282" y="1276"/>
			<point x="223" y="890" type="curve"/>
			<point x="222" y="890"/>
			<point x="222" y="890"/>
			<point x="221" y="890" type="curve" smooth="yes"/>
			<point x="204" y="890"/>
			<point x="189" y="870"/>
			<point x="188" y="840" type="curve"/>
			<point x="172" y="713"/>
			<point x="132" y="528"/>
			<point x="98" y="336" type="curve"/>
			<point x="21" y="199"/>
			<point x="-10" y="101"/>
			<point x="-10" y="46" type="curve" smooth="yes"/>
			<point x="-10" y="-23"/>
			<point x="48" y="-51"/>
			<point x="113" y="-51" type="curve" smooth="yes"/>
			<point x="169" y="-51"/>
			<point x="194" y="-19"/>
			<point x="217" y="83" type="curve" smooth="yes"/>
			<point x="257" y="258"/>
			<point x="285" y="458"/>
			<point x="299" y="564" type="curve"/>
			<point x="377" y="871" type="line" smooth="yes"/>
			<point x="438" y="1146"/>
			<point x="525" y="1235"/>
			<point x="623" y="1235" type="curve" smooth="yes"/>
			<point x="685" y="1235"/>
			<point x="721" y="1199"/>
			<point x="721" y="1138" type="curve" smooth="yes"/>
			<point x="721" y="1078"/>
			<point x="689" y="1024"/>
			<point x="594" y="949" type="curve" smooth="yes"/>
			<point x="497" y="873"/>
			<point x="445" y="791"/>
			<point x="445" y="697" type="curve" smooth="yes"/>
			<point x="445" y="592"/>
			<point x="507" y="529"/>
			<point x="579" y="468" type="curve" smooth="yes"/>
			<point x="679" y="383"/>
			<point x="708" y="346"/>
			<point x="708" y="285" type="curve" smooth="yes"/>
			<point x="708" y="216"/>
			<point x="644" y="169"/>
			<point x="393" y="130" type="curve" smooth="yes"/>
			<point x="335" y="121"/>
			<point x="309" y="89"/>
			<point x="309" y="25" type="curve" smooth="yes"/>
			<point x="309" y="-36"/>
			<point x="333" y="-65"/>
		</contour>
	</outline>
</glyph>
<glyph name="ae" format="2">
	<unicode hex="00E6"/>
	<advance width="1117"/>
	<outline>
		<contour>
			<point x="819" y="489" type="curve"/>
			<point x="819" y="343" type="line"/>
			<point x="1253" y="394"/>
			<point x="1448" y="571"/>
			<point x="1448" y="797" type="curve" smooth="yes"/>
			<point x="1448" y="935"/>
			<point x="1345" y="1020"/>
			<point x="1206" y="1020" type="curve" smooth="yes"/>
			<point x="1097" y="1020"/>
			<point x="992" y="961"/>
			<point x="914" y="850" type="curve"/>
			<point x="934" y="838" type="line"/>
			<point x="948" y="877"/>
			<point x="965" y="934"/>
			<point x="965" y="959" type="curve" smooth="yes"/>
			<point x="965" y="1006"/>
			<point x="885" y="1020"/>
			<point x="818" y="1020" type="curve" smooth="yes"/>
			<point x="773" y="1020"/>
			<point x="750" y="1007"/>
			<point x="731" y="942" type="curve"/>
			<point x="627" y="999"/>
			<point x="562" y="1020"/>
			<point x="495" y="1020" type="curve" smooth="yes"/>
			<point x="237" y="1020"/>
			<point x="9" y="687"/>
			<point x="9" y="306" type="curve" smooth="yes"/>
			<point x="9" y="91"/>
			<point x="114" y="-12"/>
			<point x="219" y="-12" type="curve" smooth="yes"/>
			<point x="384" y="-12"/>
			<point x="574" y="206"/>
			<point x="712" y="538" type="curve"/>
			<point x="678" y="549" type="line"/>
			<point x="660" y="514"/>
			<point x="645" y="450"/>
			<point x="645" y="388" type="curve" smooth="yes"/>
			<point x="645" y="148"/>
			<point x="809" y="-12"/>
			<point x="1067" y="-12" type="curve" smooth="yes"/>
			<point x="1152" y="-12"/>
			<point x="1183" y="58"/>
			<point x="1183" y="122" type="curve" smooth="yes"/>
			<point x="1183" y="165"/>
			<point x="1158" y="188"/>
			<point x="1117" y="188" type="curve" smooth="yes"/>
			<point x="962" y="188"/>
			<point x="875" y="252"/>
			<point x="875" y="426" type="curve" smooth="yes"/>
			<point x="875" y="649"/>
			<point x="1005" y="840"/>
			<point x="1136" y="840" type="curve" smooth="yes"/>
			<point x="1188" y="840"/>
			<point x="1216" y="806"/>
			<point x="1216" y="751" type="curve" smooth="yes"/>
			<point x="1216" y="624"/>
			<point x="1109" y="539"/>
		</contour>
		<contour>
			<point x="254" y="346" type="curve" smooth="yes"/>
			<point x="254" y="591"/>
			<point x="379" y="820"/>
			<point x="502" y="820" type="curve" smooth="yes"/>
			<point x="544" y="820"/>
			<point x="595" y="804"/>
			<point x="683" y="764" type="curve"/>
			<point x="675" y="732" type="line" smooth="yes"/>
			<point x="607" y="478"/>
			<point x="416" y="188"/>
			<point x="323" y="188" type="curve" smooth="yes"/>
			<point x="283" y="188"/>
			<point x="254" y="229"/>
		</contour>
	</outline>
	<anchor name="bottom" x="595" y="0"/>
	<anchor name="top" x="990" y="1005"/>
</glyph>
<glyph name="eth" format="2">
	<unicode hex="00F0"/>
	<advance width="1150"/>
	<outline>
		<contour>
			<point x="324" y="-12" type="curve" smooth="yes"/>
			<point x="631" y="-12"/>
			<point x="934" y="283"/>
			<point x="934" y="779" type="curve" smooth="yes"/>
			<point x="934" y="994"/>
			<point x="855" y="1213"/>
			<point x="761" y="1347" type="curve" smooth="yes"/>
			<point x="719" y="1406"/>
			<point x="701" y="1425"/>
			<point x="666" y="1425" type="curve" smooth="yes"/>
			<point x="603" y="1425"/>
			<point x="532" y="1381"/>
			<point x="532" y="1341" type="curve" smooth="yes"/>
			<point x="532" y="1325"/>
			<point x="539" y="1304"/>
			<point x="556" y="1276" type="curve" smooth="yes"/>
			<point x="663" y="1100"/>
			<point x="701" y="918"/>
			<point x="701" y="749" type="curve" smooth="yes"/>
			<point x="701" y="396"/>
			<point x="511" y="168"/>
			<point x="360" y="168" type="curve" smooth="yes"/>
			<point x="284" y="168"/>
			<point x="249" y="220"/>
			<point x="249" y="343" type="curve" smooth="yes"/>
			<point x="249" y="459"/>
			<point x="281" y="600"/>
			<point x="345" y="708" type="curve" smooth="yes"/>
			<point x="396" y="795"/>
			<point x="432" y="811"/>
			<point x="473" y="811" type="curve" smooth="yes"/>
			<point x="492" y="811"/>
			<point x="507" y="810"/>
			<point x="525" y="805" type="curve" smooth="yes"/>
			<point x="543" y="800"/>
			<point x="557" y="797"/>
			<point x="567" y="797" type="curve" smooth="yes"/>
			<point x="598" y="797"/>
			<point x="620" y="839"/>
			<point x="620" y="867" type="curve" smooth="yes"/>
			<point x="620" y="916"/>
			<point x="554" y="977"/>
			<point x="435" y="977" type="curve" smooth="yes"/>
			<point x="335" y="977"/>
			<point x="237" y="922"/>
			<point x="159" y="807" type="curve" smooth="yes"/>
			<point x="74" y="682"/>
			<point x="9" y="514"/>
			<point x="9" y="355" type="curve" smooth="yes"/>
			<point x="9" y="149"/>
			<point x="138" y="-12"/>
		</contour>
		<contour>
			<point x="499" y="1030" type="curve" smooth="yes"/>
			<point x="523" y="1030"/>
			<point x="539" y="1032"/>
			<point x="570" y="1036" type="curve" smooth="yes"/>
			<point x="691" y="1052"/>
			<point x="908" y="1093"/>
			<point x="983" y="1134" type="curve" smooth="yes"/>
			<point x="1014" y="1151"/>
			<point x="1026" y="1175"/>
			<point x="1026" y="1196" type="curve" smooth="yes"/>
			<point x="1026" y="1253"/>
			<point x="993" y="1298"/>
			<point x="955" y="1298" type="curve" smooth="yes"/>
			<point x="941" y="1298"/>
			<point x="928" y="1295"/>
			<point x="900" y="1286" type="curve" smooth="yes"/>
			<point x="796" y="1253"/>
			<point x="653" y="1223"/>
			<point x="466" y="1198" type="curve" smooth="yes"/>
			<point x="431" y="1193"/>
			<point x="415" y="1168"/>
			<point x="415" y="1137" type="curve" smooth="yes"/>
			<point x="415" y="1071"/>
			<point x="442" y="1030"/>
		</contour>
	</outline>
</glyph>
<glyph name="thorn" format="2">
	<unicode hex="00FE"/>
	<advance width="1082"/>
	<outline>
		<contour>
			<point x="369" y="158" type="curve" smooth="yes"/>
			<point x="299" y="153"/>
			<point x="260" y="126"/>
			<point x="260" y="61" type="curve" smooth="yes"/>
			<point x="260" y="1"/>
			<point x="293" y="-22"/>
			<point x="369" y="-22" type="curve" smooth="yes"/>
			<point x="667" y="-22"/>
			<point x="990" y="327"/>
			<point x="990" y="703" type="curve" smooth="yes"/>
			<point x="990" y="916"/>
			<point x="892" y="1020"/>
			<point x="747" y="1020" type="curve" smooth="yes"/>
			<point x="569" y="1020"/>
			<point x="427" y="853"/>
			<point x="265" y="501" type="curve"/>
			<point x="275" y="478" type="line"/>
			<point x="309" y="633"/>
			<point x="350" y="803"/>
			<point x="407" y="1030" type="curve"/>
			<point x="463" y="1131"/>
			<point x="515" y="1241"/>
			<point x="515" y="1308" type="curve" smooth="yes"/>
			<point x="515" y="1383"/>
			<point x="448" y="1425"/>
			<point x="363" y="1425" type="curve" smooth="yes"/>
			<point x="310" y="1425"/>
			<point x="286" y="1409"/>
			<point x="260" y="1314" type="curve" smooth="yes"/>
			<point x="231" y="1209"/>
			<point x="198" y="1031"/>
			<point x="193" y="1004" type="curve" smooth="yes"/>
			<point x="131" y="682"/>
			<point x="62" y="327"/>
			<point x="-4" y="45" type="curve"/>
			<point x="-81" y="-172"/>
			<point x="-112" y="-312"/>
			<point x="-112" y="-368" type="curve" smooth="yes"/>
			<point x="-112" y="-445"/>
			<point x="-56" y="-470"/>
			<point x="11" y="-470" type="curve" smooth="yes"/>
			<point x="77" y="-470"/>
			<point x="124" y="-445"/>
			<point x="128" y="-390" type="curve" smooth="yes"/>
			<point x="130" y="-364"/>
			<point x="136" y="-313"/>
			<point x="150" y="-219" type="curve" smooth="yes"/>
			<point x="168" y="-101"/>
			<point x="198" y="53"/>
			<point x="242" y="206" type="curve" smooth="yes"/>
			<point x="362" y="623"/>
			<point x="533" y="833"/>
			<point x="654" y="833" type="curve" smooth="yes"/>
			<point x="714" y="833"/>
			<point x="745" y="780"/>
			<point x="745" y="661" type="curve" smooth="yes"/>
			<point x="745" y="391"/>
			<point x="580" y="173"/>
		</contour>
	</outline>
</glyph>
<glyph name="iogonek" format="2">
	<unicode hex="012F"/>
	<advance width="748"/>
	<outline>
		<contour>
			<point x="58" y="533" type="curve" smooth="yes"/>
			<point x="6" y="371"/>
			<point x="-27" y="249"/>
			<point x="-27" y="188" type="curve" smooth="yes"/>
			<point x="-27" y="61"/>
			<point x="59" y="-13"/>
			<point x="189" y="-12" type="curve" smooth="yes"/>
			<point x="215" y="-12"/>
			<point x="251" y="0"/>
			<point x="268" y="12" type="curve"/>
			<point x="258" y="24" type="line"/>
			<point x="81" y="-105"/>
			<point x="-4" y="-189"/>
			<point x="-4" y="-300" type="curve" smooth="yes"/>
			<point x="-4" y="-385"/>
			<point x="73" y="-444"/>
			<point x="171" y="-444" type="curve" smooth="yes"/>
			<point x="256" y="-444"/>
			<point x="332" y="-407"/>
			<point x="387" y="-341" type="curve" smooth="yes"/>
			<point x="416" y="-306"/>
			<point x="421" y="-285"/>
			<point x="421" y="-268" type="curve" smooth="yes"/>
			<point x="421" y="-230"/>
			<point x="392" y="-211"/>
			<point x="365" y="-211" type="curve" smooth="yes"/>
			<point x="354" y="-211"/>
			<point x="346" y="-214"/>
			<point x="328" y="-224" type="curve" smooth="yes"/>
			<point x="291" y="-245"/>
			<point x="257" y="-259"/>
			<point x="234" y="-259" type="curve" smooth="yes"/>
			<point x="210" y="-259"/>
			<point x="196" y="-244"/>
			<point x="196" y="-222" type="curve" smooth="yes"/>
			<point x="196" y="-173"/>
			<point x="235" y="-98"/>
			<point x="421" y="29" type="curve" smooth="yes"/>
			<point x="486" y="73" type="line" smooth="yes"/>
			<point x="580" y="137"/>
			<point x="588" y="174"/>
			<point x="588" y="199" type="curve" smooth="yes"/>
			<point x="588" y="241"/>
			<point x="540" y="290"/>
			<point x="498" y="290" type="curve" smooth="yes"/>
			<point x="486" y="290"/>
			<point x="473" y="284"/>
			<point x="453" y="269" type="curve" smooth="yes"/>
			<point x="378" y="213"/>
			<point x="309" y="188"/>
			<point x="263" y="188" type="curve" smooth="yes"/>
			<point x="232" y="188"/>
			<point x="218" y="200"/>
			<point x="218" y="237" type="curve" smooth="yes"/>
			<point x="218" y="288"/>
			<point x="245" y="389"/>
			<point x="306" y="559" type="curve" smooth="yes"/>
			<point x="371" y="739"/>
			<point x="420" y="885"/>
			<point x="420" y="925" type="curve" smooth="yes"/>
			<point x="420" y="980"/>
			<point x="346" y="1020"/>
			<point x="268" y="1020" type="curve" smooth="yes"/>
			<point x="221" y="1020"/>
			<point x="195" y="1002"/>
			<point x="172" y="917" type="curve" smooth="yes"/>
			<point x="139" y="798"/>
			<point x="107" y="686"/>
		</contour>
		<contour>
			<point x="369" y="1157" type="curve" smooth="yes"/>
			<point x="455" y="1157"/>
			<point x="537" y="1235"/>
			<point x="537" y="1324" type="curve" smooth="yes"/>
			<point x="537" y="1388"/>
			<point x="489" y="1436"/>
			<point x="422" y="1436" type="curve" smooth="yes"/>
			<point x="338" y="1436"/>
			<point x="264" y="1362"/>
			<point x="264" y="1269" type="curve" smooth="yes"/>
			<point x="264" y="1198"/>
			<point x="312" y="1157"/>
		</contour>
	</outline>
	<anchor name="top" x="332" y="1307"/>
</glyph>
<glyph name="idotless" format="2">
	<unicode hex="0131"/>
	<advance width="263"/>
	<outline>
		<contour>
			<point x="58" y="533" type="curve" smooth="yes"/>
			<point x="6" y="371"/>
			<point x="-27" y="249"/>
			<point x="-27" y="188" type="curve" smooth="yes"/>
			<point x="-27" y="61"/>
			<point x="58" y="-12"/>
			<point x="213" y="-12" type="curve" smooth="yes"/>
			<point x="266" y="-12"/>
			<point x="321" y="43"/>
			<point x="321" y="129" type="curve" smooth="yes"/>
			<point x="321" y="162"/>
			<point x="308" y="188"/>
			<point x="263" y="188" type="curve" smooth="yes"/>
			<point x="232" y="188"/>
			<point x="218" y="200"/>
			<point x="218" y="237" type="curve" smooth="yes"/>
			<point x="218" y="288"/>
			<point x="245" y="389"/>
			<point x="306" y="559" type="curve" smooth="yes"/>
			<point x="371" y="739"/>
			<point x="420" y="885"/>
			<point x="420" y="925" type="curve" smooth="yes"/>
			<point x="420" y="980"/>
			<point x="346" y="1020"/>
			<point x="268" y="1020" type="curve" smooth="yes"/>
			<point x="221" y="1020"/>
			<point x="195" y="1002"/>
			<point x="172" y="917" type="curve" smooth="yes"/>
			<point x="139" y="798"/>
			<point x="107" y="686"/>
		</contour>
	</outline>
	<anchor name="bottom" x="80" y="0"/>
	<anchor name="ogonek" x="300" y="0"/>
	<anchor name="top" x="330" y="1005"/>
</glyph>
<glyph name="IJ" format="2">
	<unicode hex="0132"/>
	<advance width="992"/>
	<outline>
		<contour>
			<point x="731" y="-100" type="curve"/>
			<point x="771" y="90" type="line"/>
			<point x="269" y="-147"/>
			<point x="150" y="-307"/>
			<point x="150" y="-486" type="curve" smooth="yes"/>
			<point x="150" y="-605"/>
			<point x="251" y="-690"/>
			<point x="378" y="-690" type="curve" smooth="yes"/>
			<point x="632" y="-690"/>
			<point x="868" y="-485"/>
			<point x="945" y="-13" type="curve" smooth="yes"/>
			<point x="1010" y="388"/>
			<point x="1052" y="608"/>
			<point x="1132" y="892" type="curve" smooth="yes"/>
			<point x="1181" y="1069"/>
			<point x="1219" y="1191"/>
			<point x="1282" y="1402" type="curve" smooth="yes"/>
			<point x="1301" y="1465"/>
			<point x="1312" y="1510"/>
			<point x="1312" y="1528" type="curve" smooth="yes"/>
			<point x="1312" y="1560"/>
			<point x="1259" y="1600"/>
			<point x="1174" y="1600" type="curve" smooth="yes"/>
			<point x="1115" y="1600"/>
			<point x="1091" y="1591"/>
			<point x="1074" y="1531" type="curve" smooth="yes"/>
			<point x="998" y="1261"/>
			<point x="939" y="1083"/>
			<point x="870" y="918" type="curve" smooth="yes"/>
			<point x="699" y="513"/>
			<point x="536" y="318"/>
			<point x="389" y="318" type="curve" smooth="yes"/>
			<point x="327" y="318"/>
			<point x="296" y="354"/>
			<point x="296" y="427" type="curve" smooth="yes"/>
			<point x="296" y="506"/>
			<point x="315" y="585"/>
			<point x="389" y="781" type="curve" smooth="yes"/>
			<point x="474" y="1005"/>
			<point x="540" y="1199"/>
			<point x="592" y="1383" type="curve" smooth="yes"/>
			<point x="618" y="1473"/>
			<point x="622" y="1499"/>
			<point x="622" y="1528" type="curve" smooth="yes"/>
			<point x="622" y="1562"/>
			<point x="569" y="1600"/>
			<point x="484" y="1600" type="curve" smooth="yes"/>
			<point x="423" y="1600"/>
			<point x="401" y="1589"/>
			<point x="377" y="1494" type="curve" smooth="yes"/>
			<point x="322" y="1281"/>
			<point x="246" y="1040"/>
			<point x="179" y="857" type="curve" smooth="yes"/>
			<point x="100" y="636"/>
			<point x="64" y="516"/>
			<point x="64" y="420" type="curve" smooth="yes"/>
			<point x="64" y="237"/>
			<point x="161" y="118"/>
			<point x="319" y="118" type="curve" smooth="yes"/>
			<point x="528" y="118"/>
			<point x="753" y="338"/>
			<point x="953" y="832" type="curve"/>
			<point x="943" y="862" type="line"/>
			<point x="830" y="527"/>
			<point x="782" y="301"/>
			<point x="719" y="-21" type="curve" smooth="yes"/>
			<point x="650" y="-376"/>
			<point x="536" y="-510"/>
			<point x="418" y="-510" type="curve" smooth="yes"/>
			<point x="384" y="-510"/>
			<point x="360" y="-488"/>
			<point x="360" y="-440" type="curve" smooth="yes"/>
			<point x="360" y="-358"/>
			<point x="441" y="-246"/>
		</contour>
	</outline>
</glyph>
<glyph name="ij" format="2">
	<unicode hex="0133"/>
	<advance width="768"/>
	<outline>
		<contour>
			<point x="653" y="-1" type="curve"/>
			<point x="653" y="157" type="line"/>
			<point x="209" y="-19"/>
			<point x="116" y="-124"/>
			<point x="116" y="-262" type="curve" smooth="yes"/>
			<point x="116" y="-374"/>
			<point x="220" y="-470"/>
			<point x="384" y="-470" type="curve" smooth="yes"/>
			<point x="619" y="-470"/>
			<point x="862" y="-291"/>
			<point x="862" y="-14" type="curve" smooth="yes"/>
			<point x="862" y="56"/>
			<point x="845" y="149"/>
			<point x="845" y="260" type="curve" smooth="yes"/>
			<point x="845" y="339"/>
			<point x="863" y="521"/>
			<point x="886" y="616" type="curve" smooth="yes"/>
			<point x="924" y="774"/>
			<point x="959" y="921"/>
			<point x="959" y="936" type="curve" smooth="yes"/>
			<point x="959" y="986"/>
			<point x="887" y="1020"/>
			<point x="805" y="1020" type="curve" smooth="yes"/>
			<point x="765" y="1020"/>
			<point x="734" y="1010"/>
			<point x="721" y="954" type="curve" smooth="yes"/>
			<point x="700" y="864"/>
			<point x="667" y="728"/>
			<point x="598" y="562" type="curve" smooth="yes"/>
			<point x="515" y="362"/>
			<point x="397" y="238"/>
			<point x="310" y="238" type="curve" smooth="yes"/>
			<point x="268" y="238"/>
			<point x="245" y="258"/>
			<point x="245" y="301" type="curve" smooth="yes"/>
			<point x="245" y="346"/>
			<point x="257" y="397"/>
			<point x="317" y="591" type="curve" smooth="yes"/>
			<point x="377" y="785"/>
			<point x="412" y="903"/>
			<point x="412" y="935" type="curve" smooth="yes"/>
			<point x="412" y="990"/>
			<point x="343" y="1020"/>
			<point x="274" y="1020" type="curve" smooth="yes"/>
			<point x="225" y="1020"/>
			<point x="192" y="997"/>
			<point x="179" y="935" type="curve" smooth="yes"/>
			<point x="171" y="898"/>
			<point x="132" y="752"/>
			<point x="62" y="521" type="curve" smooth="yes"/>
			<point x="21" y="386"/>
			<point x="5" y="301"/>
			<point x="5" y="248" type="curve" smooth="yes"/>
			<point x="5" y="128"/>
			<point x="97" y="38"/>
			<point x="199" y="38" type="curve" smooth="yes"/>
			<point x="349" y="38"/>
			<point x="555" y="229"/>
			<point x="718" y="569" type="curve"/>
			<point x="684" y="614" type="line"/>
			<point x="662" y="542"/>
			<point x="629" y="413"/>
			<point x="629" y="285" type="curve" smooth="yes"/>
			<point x="629" y="193"/>
			<point x="641" y="75"/>
			<point x="641" y="-12" type="curve" smooth="yes"/>
			<point x="641" y="-192"/>
			<point x="551" y="-290"/>
			<point x="424" y="-290" type="curve" smooth="yes"/>
			<point x="360" y="-290"/>
			<point x="326" y="-267"/>
			<point x="326" y="-219" type="curve" smooth="yes"/>
			<point x="326" y="-159"/>
			<point x="376" y="-106"/>
		</contour>
		<contour>
			<point x="374" y="1153" type="curve" smooth="yes"/>
			<point x="460" y="1153"/>
			<point x="542" y="1231"/>
			<point x="542" y="1320" type="curve" smooth="yes"/>
			<point x="542" y="1384"/>
			<point x="494" y="1432"/>
			<point x="427" y="1432" type="curve" smooth="yes"/>
			<point x="343" y="1432"/>
			<point x="269" y="1358"/>
			<point x="269" y="1265" type="curve" smooth="yes"/>
			<point x="269" y="1194"/>
			<point x="317" y="1153"/>
		</contour>
		<contour>
			<point x="914" y="1153" type="curve" smooth="yes"/>
			<point x="1000" y="1153"/>
			<point x="1082" y="1231"/>
			<point x="1082" y="1320" type="curve" smooth="yes"/>
			<point x="1082" y="1384"/>
			<point x="1034" y="1432"/>
			<point x="967" y="1432" type="curve" smooth="yes"/>
			<point x="883" y="1432"/>
			<point x="809" y="1358"/>
			<point x="809" y="1265" type="curve" smooth="yes"/>
			<point x="809" y="1194"/>
			<point x="857" y="1153"/>
		</contour>
	</outline>
	<anchor name="top" x="689" y="1430"/>
</glyph>
<glyph name="lslash" format="2">
	<unicode hex="0142"/>
	<advance width="306"/>
	<outline>
		<contour>
			<point x="408" y="934" type="curve"/>
			<point x="455" y="1008"/>
			<point x="484" y="1053"/>
			<point x="502" y="1097" type="curve" smooth="yes"/>
			<point x="517" y="1136"/>
			<point x="527" y="1171"/>
			<point x="527" y="1190" type="curve" smooth="yes"/>
			<point x="527" y="1251"/>
			<point x="467" y="1321"/>
			<point x="381" y="1321" type="curve" smooth="yes"/>
			<point x="328" y="1321"/>
			<point x="298" y="1291"/>
			<point x="275" y="1225" type="curve" smooth="yes"/>
			<point x="240" y="1125"/>
			<point x="220" y="1025"/>
			<point x="203" y="935" type="curve"/>
			<point x="43" y="470"/>
			<point x="0" y="317"/>
			<point x="0" y="225" type="curve" smooth="yes"/>
			<point x="0" y="71"/>
			<point x="112" y="-12"/>
			<point x="260" y="-12" type="curve" smooth="yes"/>
			<point x="318" y="-12"/>
			<point x="356" y="40"/>
			<point x="356" y="120" type="curve" smooth="yes"/>
			<point x="356" y="157"/>
			<point x="340" y="188"/>
			<point x="306" y="188" type="curve" smooth="yes"/>
			<point x="265" y="188"/>
			<point x="240" y="207"/>
			<point x="240" y="259" type="curve" smooth="yes"/>
			<point x="240" y="338"/>
			<point x="262" y="421"/>
		</contour>
		<contour>
			<point x="667" y="1569" type="curve" smooth="yes"/>
			<point x="527" y="1569"/>
			<point x="313" y="1561"/>
			<point x="266" y="1554" type="curve" smooth="yes"/>
			<point x="203" y="1545"/>
			<point x="176" y="1512"/>
			<point x="176" y="1455" type="curve" smooth="yes"/>
			<point x="176" y="1410"/>
			<point x="200" y="1378"/>
			<point x="265" y="1378" type="curve" smooth="yes"/>
			<point x="277" y="1378"/>
			<point x="324" y="1380"/>
			<point x="385" y="1384" type="curve" smooth="yes"/>
			<point x="471" y="1389"/>
			<point x="622" y="1397"/>
			<point x="722" y="1400" type="curve" smooth="yes"/>
			<point x="812" y="1403"/>
			<point x="845" y="1424"/>
			<point x="845" y="1465" type="curve" smooth="yes"/>
			<point x="845" y="1535"/>
			<point x="789" y="1569"/>
		</contour>
	</outline>
	<anchor name="top" x="485" y="1560"/>
</glyph>
<glyph name="Eng" format="2">
	<unicode hex="014A"/>
	<advance width="1534"/>
	<outline>
		<contour>
			<point x="204" y="-12" type="curve" smooth="yes"/>
			<point x="247" y="-12"/>
			<point x="265" y="14"/>
			<point x="279" y="62" type="curve" smooth="yes"/>
			<point x="353" y="316"/>
			<point x="559" y="1102"/>
			<point x="592" y="1264" type="curve"/>
			<point x="433" y="1382" type="line"/>
			<point x="322" y="976"/>
			<point x="159" y="368"/>
			<point x="97" y="160" type="curve" smooth="yes"/>
			<point x="84" y="115"/>
			<point x="80" y="96"/>
			<point x="80" y="75" type="curve" smooth="yes"/>
			<point x="80" y="25"/>
			<point x="139" y="-12"/>
		</contour>
		<contour>
			<point x="1039" y="-152" type="curve" smooth="yes"/>
			<point x="1505" y="1390" type="line" smooth="yes"/>
			<point x="1529" y="1468"/>
			<point x="1534" y="1497"/>
			<point x="1534" y="1512" type="curve" smooth="yes"/>
			<point x="1534" y="1564"/>
			<point x="1485" y="1600"/>
			<point x="1410" y="1600" type="curve" smooth="yes"/>
			<point x="1351" y="1600"/>
			<point x="1331" y="1562"/>
			<point x="1313" y="1497" type="curve" smooth="yes"/>
			<point x="972" y="287" type="line"/>
			<point x="990" y="288" type="line"/>
			<point x="637" y="1476" type="line" smooth="yes"/>
			<point x="607" y="1578"/>
			<point x="579" y="1600"/>
			<point x="518" y="1600" type="curve" smooth="yes"/>
			<point x="449" y="1600"/>
			<point x="390" y="1560"/>
			<point x="390" y="1500" type="curve" smooth="yes"/>
			<point x="390" y="1472"/>
			<point x="402" y="1429"/>
			<point x="421" y="1367" type="curve" smooth="yes"/>
			<point x="857" y="-37" type="line"/>
			<point x="841" y="-101" type="line" smooth="yes"/>
			<point x="752" y="-456"/>
			<point x="679" y="-500"/>
			<point x="609" y="-500" type="curve" smooth="yes"/>
			<point x="559" y="-500"/>
			<point x="510" y="-479"/>
			<point x="456" y="-444" type="curve" smooth="yes"/>
			<point x="433" y="-429"/>
			<point x="417" y="-423"/>
			<point x="404" y="-423" type="curve" smooth="yes"/>
			<point x="360" y="-423"/>
			<point x="314" y="-483"/>
			<point x="314" y="-532" type="curve" smooth="yes"/>
			<point x="314" y="-580"/>
			<point x="458" y="-690"/>
			<point x="631" y="-690" type="curve" smooth="yes"/>
			<point x="818" y="-690"/>
			<point x="915" y="-564"/>
		</contour>
	</outline>
</glyph>
<glyph name="eng" format="2">
	<unicode hex="014B"/>
	<advance width="1145"/>
	<outline>
		<contour>
			<point x="725" y="732" type="curve" smooth="yes"/>
			<point x="725" y="682"/>
			<point x="656" y="420"/>
			<point x="531" y="-33" type="curve" smooth="yes"/>
			<point x="484" y="-207"/>
			<point x="437" y="-251"/>
			<point x="365" y="-251" type="curve" smooth="yes"/>
			<point x="332" y="-251"/>
			<point x="299" y="-239"/>
			<point x="261" y="-210" type="curve" smooth="yes"/>
			<point x="238" y="-192"/>
			<point x="220" y="-182"/>
			<point x="203" y="-182" type="curve" smooth="yes"/>
			<point x="154" y="-182"/>
			<point x="99" y="-234"/>
			<point x="99" y="-293" type="curve" smooth="yes"/>
			<point x="99" y="-313"/>
			<point x="115" y="-342"/>
			<point x="140" y="-365" type="curve" smooth="yes"/>
			<point x="193" y="-415"/>
			<point x="282" y="-451"/>
			<point x="389" y="-451" type="curve" smooth="yes"/>
			<point x="570" y="-451"/>
			<point x="691" y="-345"/>
			<point x="751" y="-126" type="curve" smooth="yes"/>
			<point x="918" y="483"/>
			<point x="965" y="685"/>
			<point x="965" y="792" type="curve" smooth="yes"/>
			<point x="965" y="938"/>
			<point x="869" y="1020"/>
			<point x="760" y="1020" type="curve" smooth="yes"/>
			<point x="594" y="1020"/>
			<point x="422" y="851"/>
			<point x="222" y="430" type="curve"/>
			<point x="250" y="417" type="line"/>
			<point x="388" y="835" type="line" smooth="yes"/>
			<point x="406" y="889"/>
			<point x="411" y="919"/>
			<point x="411" y="938" type="curve" smooth="yes"/>
			<point x="411" y="982"/>
			<point x="359" y="1020"/>
			<point x="267" y="1020" type="curve" smooth="yes"/>
			<point x="216" y="1020"/>
			<point x="194" y="1001"/>
			<point x="172" y="917" type="curve" smooth="yes"/>
			<point x="-36" y="139" type="line" smooth="yes"/>
			<point x="-46" y="102"/>
			<point x="-46" y="87"/>
			<point x="-46" y="74" type="curve" smooth="yes"/>
			<point x="-46" y="27"/>
			<point x="20" y="-12"/>
			<point x="100" y="-12" type="curve" smooth="yes"/>
			<point x="148" y="-12"/>
			<point x="170" y="7"/>
			<point x="195" y="96" type="curve" smooth="yes"/>
			<point x="230" y="219"/>
			<point x="276" y="333"/>
			<point x="326" y="437" type="curve" smooth="yes"/>
			<point x="426" y="644"/>
			<point x="566" y="800"/>
			<point x="660" y="800" type="curve" smooth="yes"/>
			<point x="700" y="800"/>
			<point x="725" y="775"/>
		</contour>
	</outline>
	<anchor name="bottom" x="208" y="-452"/>
	<anchor name="top" x="653" y="1005"/>
</glyph>
<glyph name="uogonek" format="2">
	<unicode hex="0173"/>
	<advance width="1263"/>
	<outline>
		<contour>
			<point x="180" y="935" type="curve" smooth="yes"/>
			<point x="172" y="898"/>
			<point x="146" y="790"/>
			<point x="78" y="563" type="curve" smooth="yes"/>
			<point x="19" y="366"/>
			<point x="2" y="290"/>
			<point x="2" y="210" type="curve" smooth="yes"/>
			<point x="2" y="74"/>
			<point x="84" y="-12"/>
			<point x="215" y="-12" type="curve" smooth="yes"/>
			<point x="367" y="-12"/>
			<point x="521" y="143"/>
			<point x="607" y="313" type="curve"/>
			<point x="602" y="316" type="line"/>
			<point x="588" y="269"/>
			<point x="579" y="220"/>
			<point x="579" y="178" type="curve" smooth="yes"/>
			<point x="579" y="59"/>
			<point x="648" y="-12"/>
			<point x="743" y="-12" type="curve" smooth="yes"/>
			<point x="791" y="-12"/>
			<point x="840" y="8"/>
			<point x="871" y="28" type="curve"/>
			<point x="867" y="34" type="line"/>
			<point x="646" y="-119"/>
			<point x="580" y="-202"/>
			<point x="580" y="-300" type="curve" smooth="yes"/>
			<point x="580" y="-385"/>
			<point x="657" y="-444"/>
			<point x="755" y="-444" type="curve" smooth="yes"/>
			<point x="840" y="-444"/>
			<point x="916" y="-407"/>
			<point x="971" y="-341" type="curve" smooth="yes"/>
			<point x="1000" y="-306"/>
			<point x="1005" y="-285"/>
			<point x="1005" y="-268" type="curve" smooth="yes"/>
			<point x="1005" y="-230"/>
			<point x="976" y="-211"/>
			<point x="949" y="-211" type="curve" smooth="yes"/>
			<point x="938" y="-211"/>
			<point x="930" y="-214"/>
			<point x="912" y="-224" type="curve" smooth="yes"/>
			<point x="875" y="-245"/>
			<point x="841" y="-259"/>
			<point x="818" y="-259" type="curve" smooth="yes"/>
			<point x="794" y="-259"/>
			<point x="780" y="-244"/>
			<point x="780" y="-222" type="curve" smooth="yes"/>
			<point x="780" y="-173"/>
			<point x="829" y="-111"/>
			<point x="987" y="20" type="curve" smooth="yes"/>
			<point x="1125" y="134"/>
			<point x="1149" y="164"/>
			<point x="1149" y="199" type="curve" smooth="yes"/>
			<point x="1149" y="241"/>
			<point x="1101" y="290"/>
			<point x="1059" y="290" type="curve" smooth="yes"/>
			<point x="1047" y="290"/>
			<point x="1034" y="284"/>
			<point x="1014" y="269" type="curve" smooth="yes"/>
			<point x="945" y="218"/>
			<point x="873" y="188"/>
			<point x="830" y="188" type="curve" smooth="yes"/>
			<point x="791" y="188"/>
			<point x="779" y="203"/>
			<point x="779" y="239" type="curve" smooth="yes"/>
			<point x="779" y="262"/>
			<point x="781" y="293"/>
			<point x="819" y="421" type="curve" smooth="yes"/>
			<point x="939" y="826" type="line" smooth="yes"/>
			<point x="956" y="882"/>
			<point x="962" y="907"/>
			<point x="962" y="925" type="curve" smooth="yes"/>
			<point x="962" y="980"/>
			<point x="888" y="1020"/>
			<point x="810" y="1020" type="curve" smooth="yes"/>
			<point x="763" y="1020"/>
			<point x="743" y="999"/>
			<point x="729" y="944" type="curve" smooth="yes"/>
			<point x="685" y="775"/>
			<point x="626" y="573"/>
			<point x="575" y="460" type="curve" smooth="yes"/>
			<point x="485" y="262"/>
			<point x="398" y="188"/>
			<point x="316" y="188" type="curve" smooth="yes"/>
			<point x="278" y="188"/>
			<point x="242" y="209"/>
			<point x="242" y="266" type="curve" smooth="yes"/>
			<point x="242" y="321"/>
			<point x="259" y="387"/>
			<point x="323" y="591" type="curve" smooth="yes"/>
			<point x="383" y="787"/>
			<point x="413" y="903"/>
			<point x="413" y="935" type="curve" smooth="yes"/>
			<point x="413" y="990"/>
			<point x="344" y="1020"/>
			<point x="275" y="1020" type="curve" smooth="yes"/>
			<point x="226" y="1020"/>
			<point x="194" y="997"/>
		</contour>
	</outline>
	<anchor name="bottom" x="280" y="0"/>
	<anchor name="top" x="580" y="1005"/>
	<anchor name="topright" x="1110" y="1005"/>
</glyph>
<glyph name="jdotless" format="2">
	<unicode hex="0237"/>
	<advance width="243"/>
	<outline>
		<contour>
			<point x="-416" y="-282" type="curve" smooth="yes"/>
			<point x="-416" y="-389"/>
			<point x="-323" y="-470"/>
			<point x="-201" y="-470" type="curve" smooth="yes"/>
			<point x="29" y="-470"/>
			<point x="253" y="-181"/>
			<point x="291" y="141" type="curve" smooth="yes"/>
			<point x="308" y="285"/>
			<point x="344" y="464"/>
			<point x="384" y="691" type="curve" smooth="yes"/>
			<point x="415" y="866" type="line" smooth="yes"/>
			<point x="420" y="892"/>
			<point x="427" y="924"/>
			<point x="427" y="936" type="curve" smooth="yes"/>
			<point x="427" y="986"/>
			<point x="355" y="1020"/>
			<point x="264" y="1020" type="curve" smooth="yes"/>
			<point x="227" y="1020"/>
			<point x="198" y="1000"/>
			<point x="190" y="954" type="curve" smooth="yes"/>
			<point x="152" y="741" type="line" smooth="yes"/>
			<point x="112" y="516"/>
			<point x="83" y="298"/>
			<point x="62" y="104" type="curve" smooth="yes"/>
			<point x="32" y="-176"/>
			<point x="-84" y="-290"/>
			<point x="-173" y="-290" type="curve" smooth="yes"/>
			<point x="-208" y="-290"/>
			<point x="-226" y="-270"/>
			<point x="-226" y="-238" type="curve" smooth="yes"/>
			<point x="-226" y="-161"/>
			<point x="-132" y="-86"/>
			<point x="58" y="-14" type="curve"/>
			<point x="86" y="166" type="line"/>
			<point x="-265" y="33"/>
			<point x="-416" y="-129"/>
		</contour>
	</outline>
	<anchor name="top" x="323" y="1005"/>
</glyph>
<glyph name="schwa" format="2">
	<unicode hex="0259"/>
	<advance width="753"/>
	<outline>
		<contour>
			<point x="566" y="530" type="curve"/>
			<point x="580" y="685" type="line"/>
			<point x="161" y="541"/>
			<point x="-30" y="365"/>
			<point x="-30" y="180" type="curve" smooth="yes"/>
			<point x="-30" y="71"/>
			<point x="54" y="-12"/>
			<point x="186" y="-12" type="curve" smooth="yes"/>
			<point x="459" y="-12"/>
			<point x="797" y="310"/>
			<point x="797" y="666" type="curve" smooth="yes"/>
			<point x="797" y="886"/>
			<point x="682" y="1020"/>
			<point x="481" y="1020" type="curve" smooth="yes"/>
			<point x="371" y="1020"/>
			<point x="261" y="988"/>
			<point x="163" y="932" type="curve" smooth="yes"/>
			<point x="108" y="901"/>
			<point x="77" y="869"/>
			<point x="77" y="836" type="curve" smooth="yes"/>
			<point x="77" y="787"/>
			<point x="115" y="745"/>
			<point x="152" y="745" type="curve" smooth="yes"/>
			<point x="170" y="745"/>
			<point x="181" y="748"/>
			<point x="207" y="760" type="curve" smooth="yes"/>
			<point x="292" y="801"/>
			<point x="369" y="830"/>
			<point x="426" y="830" type="curve" smooth="yes"/>
			<point x="505" y="830"/>
			<point x="567" y="760"/>
			<point x="555" y="588" type="curve" smooth="yes"/>
			<point x="535" y="395"/>
			<point x="376" y="188"/>
			<point x="240" y="188" type="curve" smooth="yes"/>
			<point x="206" y="188"/>
			<point x="190" y="204"/>
			<point x="190" y="238" type="curve" smooth="yes"/>
			<point x="190" y="320"/>
			<point x="312" y="415"/>
		</contour>
	</outline>
</glyph>
<glyph name="acutecomb" format="2">
	<unicode hex="0301"/>
	<outline>
		<contour>
			<point x="110" y="1115" type="curve" smooth="yes"/>
			<point x="189" y="1115"/>
			<point x="317" y="1170"/>
			<point x="455" y="1293" type="curve" smooth="yes"/>
			<point x="517" y="1348"/>
			<point x="528" y="1379"/>
			<point x="528" y="1410" type="curve" smooth="yes"/>
			<point x="528" y="1467"/>
			<point x="472" y="1520"/>
			<point x="419" y="1520" type="curve" smooth="yes"/>
			<point x="381" y="1520"/>
			<point x="366" y="1515"/>
			<point x="293" y="1435" type="curve" smooth="yes"/>
			<point x="193" y="1325"/>
			<point x="132" y="1269"/>
			<point x="84" y="1228" type="curve" smooth="yes"/>
			<point x="59" y="1206"/>
			<point x="50" y="1191"/>
			<point x="50" y="1171" type="curve" smooth="yes"/>
			<point x="50" y="1141"/>
			<point x="77" y="1115"/>
		</contour>
	</outline>
	<anchor name="_top" x="130" y="1005"/>
	<anchor name="top" x="271" y="1520"/>
</glyph>
<glyph name="caroncomb" format="2">
	<unicode hex="030C"/>
	<outline>
		<contour>
			<point x="585" y="1534" type="curve" smooth="yes"/>
			<point x="555" y="1534"/>
			<point x="536" y="1521"/>
			<point x="489" y="1480" type="curve" smooth="yes"/>
			<point x="255" y="1276" type="line"/>
			<point x="332" y="1251" type="line"/>
			<point x="230" y="1460" type="line" smooth="yes"/>
			<point x="202" y="1519"/>
			<point x="188" y="1534"/>
			<point x="149" y="1534" type="curve" smooth="yes"/>
			<point x="94" y="1534"/>
			<point x="34" y="1482"/>
			<point x="34" y="1440" type="curve" smooth="yes"/>
			<point x="34" y="1407"/>
			<point x="42" y="1381"/>
			<point x="148" y="1205" type="curve" smooth="yes"/>
			<point x="201" y="1117"/>
			<point x="228" y="1105"/>
			<point x="262" y="1105" type="curve" smooth="yes"/>
			<point x="301" y="1105"/>
			<point x="343" y="1119"/>
			<point x="485" y="1257" type="curve" smooth="yes"/>
			<point x="623" y="1391"/>
			<point x="652" y="1440"/>
			<point x="652" y="1474" type="curve" smooth="yes"/>
			<point x="652" y="1500"/>
			<point x="623" y="1534"/>
		</contour>
	</outline>
	<anchor name="_top" x="250" y="1005"/>
	<anchor name="top" x="355" y="1510"/>
</glyph>
<glyph name="commaaccentcomb" format="2">
	<unicode hex="0326"/>
	<outline>
		<contour>
			<point x="130" y="-551" type="curve" smooth="yes"/>
			<point x="174" y="-551"/>
			<point x="226" y="-518"/>
			<point x="281" y="-443" type="curve" smooth="yes"/>
			<point x="336" y="-369"/>
			<point x="368" y="-278"/>
			<point x="368" y="-230" type="curve" smooth="yes"/>
			<point x="368" y="-170"/>
			<point x="318" y="-142"/>
			<point x="246" y="-142" type="curve" smooth="yes"/>
			<point x="206" y="-142"/>
			<point x="179" y="-160"/>
			<point x="167" y="-209" type="curve" smooth="yes"/>
			<point x="143" y="-301"/>
			<point x="118" y="-360"/>
			<point x="82" y="-410" type="curve" smooth="yes"/>
			<point x="63" y="-436"/>
			<point x="50" y="-454"/>
			<point x="50" y="-477" type="curve" smooth="yes"/>
			<point x="50" y="-519"/>
			<point x="95" y="-551"/>
		</contour>
	</outline>
	<anchor name="_bottom" x="290" y="0"/>
	<anchor name="bottom" x="130" y="-551"/>
</glyph>
<glyph name="cedillacomb" format="2">
	<unicode hex="0327"/>
	<outline>
		<contour>
			<point x="216" y="-139" type="curve" smooth="yes"/>
			<point x="216" y="-165"/>
			<point x="229" y="-190"/>
			<point x="275" y="-223" type="curve" smooth="yes"/>
			<point x="340" y="-269"/>
			<point x="350" y="-286"/>
			<point x="350" y="-305" type="curve" smooth="yes"/>
			<point x="350" y="-333"/>
			<point x="315" y="-353"/>
			<point x="205" y="-382" type="curve" smooth="yes"/>
			<point x="169" y="-391"/>
			<point x="162" y="-410"/>
			<point x="162" y="-439" type="curve" smooth="yes"/>
			<point x="162" y="-498"/>
			<point x="203" y="-545"/>
			<point x="238" y="-545" type="curve" smooth="yes"/>
			<point x="258" y="-545"/>
			<point x="283" y="-540"/>
			<point x="320" y="-528" type="curve" smooth="yes"/>
			<point x="476" y="-477"/>
			<point x="522" y="-403"/>
			<point x="522" y="-312" type="curve" smooth="yes"/>
			<point x="522" y="-256"/>
			<point x="493" y="-209"/>
			<point x="412" y="-152" type="curve" smooth="yes"/>
			<point x="361" y="-116"/>
			<point x="353" y="-109"/>
			<point x="353" y="-92" type="curve" smooth="yes"/>
			<point x="353" y="-74"/>
			<point x="365" y="-59"/>
			<point x="412" y="0" type="curve"/>
			<point x="345" y="56" type="line"/>
			<point x="231" y="-77"/>
			<point x="216" y="-101"/>
		</contour>
	</outline>
	<anchor name="_bottom" x="390" y="0"/>
	<anchor name="bottom" x="244" y="-545"/>
</glyph>
<glyph name="ogonekcomb" format="2">
	<unicode hex="0328"/>
	<outline>
		<contour>
			<point x="441" y="-341" type="curve" smooth="yes"/>
			<point x="470" y="-306"/>
			<point x="475" y="-285"/>
			<point x="475" y="-268" type="curve" smooth="yes"/>
			<point x="475" y="-230"/>
			<point x="446" y="-211"/>
			<point x="419" y="-211" type="curve" smooth="yes"/>
			<point x="408" y="-211"/>
			<point x="400" y="-214"/>
			<point x="382" y="-224" type="curve" smooth="yes"/>
			<point x="345" y="-245"/>
			<point x="311" y="-259"/>
			<point x="288" y="-259" type="curve" smooth="yes"/>
			<point x="264" y="-259"/>
			<point x="250" y="-244"/>
			<point x="250" y="-222" type="curve" smooth="yes"/>
			<point x="250" y="-173"/>
			<point x="299" y="-111"/>
			<point x="440" y="5" type="curve" smooth="yes"/>
			<point x="473" y="33"/>
			<point x="483" y="48"/>
			<point x="483" y="62" type="curve" smooth="yes"/>
			<point x="483" y="74"/>
			<point x="471" y="90"/>
			<point x="451" y="90" type="curve" smooth="yes"/>
			<point x="410" y="90"/>
			<point x="365" y="69"/>
			<point x="244" y="-22" type="curve" smooth="yes"/>
			<point x="116" y="-119"/>
			<point x="50" y="-208"/>
			<point x="50" y="-300" type="curve" smooth="yes"/>
			<point x="50" y="-385"/>
			<point x="127" y="-444"/>
			<point x="225" y="-444" type="curve" smooth="yes"/>
			<point x="310" y="-444"/>
			<point x="386" y="-407"/>
		</contour>
	</outline>
	<anchor name="_ogonek" x="354" y="0"/>
</glyph>
<glyph name="barcomb" format="2">
	<unicode hex="0335"/>
	<outline>
		<contour>
			<point x="567" y="938" type="curve" smooth="yes"/>
			<point x="513" y="934"/>
			<point x="257" y="929"/>
			<point x="162" y="929" type="curve" smooth="yes"/>
			<point x="82" y="929"/>
			<point x="50" y="889"/>
			<point x="50" y="841" type="curve" smooth="yes"/>
			<point x="50" y="761"/>
			<point x="87" y="727"/>
			<point x="184" y="727" type="curve" smooth="yes"/>
			<point x="308" y="727"/>
			<point x="428" y="734"/>
			<point x="560" y="747" type="curve" smooth="yes"/>
			<point x="660" y="757"/>
			<point x="722" y="785"/>
			<point x="722" y="863" type="curve" smooth="yes"/>
			<point x="722" y="910"/>
			<point x="700" y="940"/>
			<point x="636" y="940" type="curve" smooth="yes"/>
			<point x="615" y="940"/>
			<point x="582" y="939"/>
		</contour>
	</outline>
	<anchor name="_center" x="304" y="842"/>
</glyph>
<glyph name="slashcomb" format="2">
	<unicode hex="0337"/>
	<outline>
		<contour>
			<point x="120" y="106" type="curve" smooth="yes"/>
			<point x="68" y="9"/>
			<point x="50" y="-34"/>
			<point x="50" y="-70" type="curve" smooth="yes"/>
			<point x="50" y="-105"/>
			<point x="94" y="-140"/>
			<point x="134" y="-140" type="curve" smooth="yes"/>
			<point x="173" y="-140"/>
			<point x="196" y="-117"/>
			<point x="263" y="9" type="curve" smooth="yes"/>
			<point x="380" y="233"/>
			<point x="601" y="616"/>
			<point x="774" y="903" type="curve" smooth="yes"/>
			<point x="824" y="985"/>
			<point x="839" y="1031"/>
			<point x="839" y="1049" type="curve" smooth="yes"/>
			<point x="839" y="1084"/>
			<point x="801" y="1113"/>
			<point x="761" y="1113" type="curve" smooth="yes"/>
			<point x="723" y="1113"/>
			<point x="697" y="1091"/>
			<point x="642" y="1001" type="curve" smooth="yes"/>
			<point x="452" y="687"/>
			<point x="233" y="318"/>
		</contour>
	</outline>
	<anchor name="_center" x="440" y="518"/>
</glyph>
<glyph name="slashlongcomb" format="2">
	<unicode hex="0338"/>
	<outline>
		<contour>
			<point x="224" y="119" type="curve" smooth="yes"/>
			<point x="182" y="40"/>
			<point x="163" y="-6"/>
			<point x="163" y="-36" type="curve" smooth="yes"/>
			<point x="163" y="-77"/>
			<point x="234" y="-120"/>
			<point x="269" y="-120" type="curve" smooth="yes"/>
			<point x="302" y="-120"/>
			<point x="327" y="-103"/>
			<point x="381" y="-1" type="curve" smooth="yes"/>
			<point x="565" y="352"/>
			<point x="909" y="951"/>
			<point x="1192" y="1405" type="curve" smooth="yes"/>
			<point x="1261" y="1516"/>
			<point x="1289" y="1569"/>
			<point x="1289" y="1593" type="curve" smooth="yes"/>
			<point x="1289" y="1637"/>
			<point x="1232" y="1679"/>
			<point x="1179" y="1679" type="curve" smooth="yes"/>
			<point x="1131" y="1679"/>
			<point x="1106" y="1645"/>
			<point x="1030" y="1523" type="curve" smooth="yes"/>
			<point x="721" y="1029"/>
			<point x="402" y="452"/>
		</contour>
	</outline>
	<anchor name="_center" x="730" y="840"/>
</glyph>
<glyph name="Germandbls" format="2">
	<unicode hex="1E9E"/>
	<advance width="1425"/>
	<outline>
		<contour>
			<point x="218" y="-12" type="curve" smooth="yes"/>
			<point x="278" y="-12"/>
			<point x="300" y="12"/>
			<point x="316" y="72" type="curve" smooth="yes"/>
			<point x="674" y="1399" type="line"/>
			<point x="1169" y="1399" type="line"/>
			<point x="1174" y="1436" type="line"/>
			<point x="846" y="1258"/>
			<point x="741" y="1111"/>
			<point x="741" y="948" type="curve" smooth="yes"/>
			<point x="741" y="804"/>
			<point x="822" y="723"/>
			<point x="931" y="610" type="curve" smooth="yes"/>
			<point x="1031" y="506"/>
			<point x="1083" y="448"/>
			<point x="1083" y="361" type="curve" smooth="yes"/>
			<point x="1083" y="254"/>
			<point x="1003" y="184"/>
			<point x="864" y="184" type="curve" smooth="yes"/>
			<point x="788" y="184"/>
			<point x="716" y="205"/>
			<point x="644" y="231" type="curve" smooth="yes"/>
			<point x="597" y="248"/>
			<point x="578" y="257"/>
			<point x="557" y="257" type="curve" smooth="yes"/>
			<point x="498" y="257"/>
			<point x="461" y="188"/>
			<point x="461" y="140" type="curve" smooth="yes"/>
			<point x="461" y="111"/>
			<point x="474" y="92"/>
			<point x="513" y="69" type="curve" smooth="yes"/>
			<point x="565" y="38"/>
			<point x="689" y="-16"/>
			<point x="840" y="-16" type="curve" smooth="yes"/>
			<point x="1105" y="-16"/>
			<point x="1293" y="149"/>
			<point x="1293" y="388" type="curve" smooth="yes"/>
			<point x="1293" y="547"/>
			<point x="1209" y="639"/>
			<point x="1090" y="762" type="curve" smooth="yes"/>
			<point x="1001" y="854"/>
			<point x="951" y="903"/>
			<point x="951" y="985" type="curve" smooth="yes"/>
			<point x="951" y="1091"/>
			<point x="1033" y="1140"/>
			<point x="1180" y="1242" type="curve" smooth="yes"/>
			<point x="1330" y="1346"/>
			<point x="1375" y="1386"/>
			<point x="1375" y="1475" type="curve" smooth="yes"/>
			<point x="1375" y="1558"/>
			<point x="1335" y="1600"/>
			<point x="1253" y="1600" type="curve" smooth="yes"/>
			<point x="612" y="1600" type="line" smooth="yes"/>
			<point x="512" y="1600"/>
			<point x="486" y="1590"/>
			<point x="466" y="1515" type="curve" smooth="yes"/>
			<point x="96" y="157" type="line" smooth="yes"/>
			<point x="90" y="135"/>
			<point x="80" y="94"/>
			<point x="80" y="74" type="curve" smooth="yes"/>
			<point x="80" y="24"/>
			<point x="144" y="-12"/>
		</contour>
	</outline>
</glyph>
<glyph name="emdash" format="2">
	<unicode hex="2014"/>
	<advance width="2212"/>
	<outline>
		<contour>
			<point x="208" y="560" type="curve" smooth="yes"/>
			<point x="786" y="560"/>
			<point x="1460" y="554"/>
			<point x="1951" y="575" type="curve" smooth="yes"/>
			<point x="2059" y="580"/>
			<point x="2097" y="626"/>
			<point x="2097" y="694" type="curve" smooth="yes"/>
			<point x="2097" y="745"/>
			<point x="2063" y="780"/>
			<point x="2012" y="780" type="curve" smooth="yes"/>
			<point x="1944" y="780"/>
			<point x="1881" y="778"/>
			<point x="1764" y="776" type="curve" smooth="yes"/>
			<point x="1481" y="771"/>
			<point x="489" y="766"/>
			<point x="227" y="766" type="curve" smooth="yes"/>
			<point x="142" y="766"/>
			<point x="115" y="706"/>
			<point x="115" y="641" type="curve" smooth="yes"/>
			<point x="115" y="590"/>
			<point x="142" y="560"/>
		</contour>
	</outline>
</glyph>
<glyph name="quotesinglbase" format="2">
	<unicode hex="201A"/>
	<advance width="659"/>
	<outline>
		<contour>
			<point x="100" y="-338" type="curve" smooth="yes"/>
			<point x="127" y="-338"/>
			<point x="169" y="-325"/>
			<point x="225" y="-277" type="curve" smooth="yes"/>
			<point x="352" y="-166"/>
			<point x="409" y="-28"/>
			<point x="409" y="138" type="curve" smooth="yes"/>
			<point x="409" y="243"/>
			<point x="360" y="262"/>
			<point x="302" y="262" type="curve" smooth="yes"/>
			<point x="211" y="262"/>
			<point x="168" y="236"/>
			<point x="168" y="182" type="curve" smooth="yes"/>
			<point x="168" y="174"/>
			<point x="169" y="163"/>
			<point x="170" y="152" type="curve" smooth="yes"/>
			<point x="172" y="134"/>
			<point x="175" y="113"/>
			<point x="175" y="77" type="curve" smooth="yes"/>
			<point x="175" y="-7"/>
			<point x="133" y="-104"/>
			<point x="78" y="-171" type="curve" smooth="yes"/>
			<point x="35" y="-223"/>
			<point x="25" y="-239"/>
			<point x="25" y="-257" type="curve" smooth="yes"/>
			<point x="25" y="-301"/>
			<point x="63" y="-338"/>
		</contour>
	</outline>
</glyph>
<glyph name="dagger" format="2">
	<unicode hex="2020"/>
	<advance width="648"/>
	<outline>
		<contour>
			<point x="193" y="1211" type="curve" smooth="yes"/>
			<point x="237" y="1206"/>
			<point x="288" y="1204"/>
			<point x="383" y="1204" type="curve" smooth="yes"/>
			<point x="504" y="1204"/>
			<point x="602" y="1211"/>
			<point x="643" y="1223" type="curve" smooth="yes"/>
			<point x="687" y="1236"/>
			<point x="708" y="1269"/>
			<point x="708" y="1332" type="curve" smooth="yes"/>
			<point x="708" y="1371"/>
			<point x="696" y="1392"/>
			<point x="661" y="1392" type="curve" smooth="yes"/>
			<point x="651" y="1392"/>
			<point x="623" y="1391"/>
			<point x="586" y="1389" type="curve" smooth="yes"/>
			<point x="543" y="1385"/>
			<point x="458" y="1385"/>
			<point x="407" y="1385" type="curve" smooth="yes"/>
			<point x="331" y="1386"/>
			<point x="299" y="1387"/>
			<point x="258" y="1390" type="curve" smooth="yes"/>
			<point x="219" y="1393"/>
			<point x="201" y="1395"/>
			<point x="181" y="1395" type="curve" smooth="yes"/>
			<point x="155" y="1395"/>
			<point x="130" y="1354"/>
			<point x="130" y="1304" type="curve" smooth="yes"/>
			<point x="130" y="1253"/>
			<point x="153" y="1215"/>
		</contour>
		<contour>
			<point x="345" y="1541" type="curve" smooth="yes"/>
			<point x="320" y="1411"/>
			<point x="259" y="1071"/>
			<point x="226" y="881" type="curve" smooth="yes"/>
			<point x="207" y="772"/>
			<point x="200" y="738"/>
			<point x="200" y="705" type="curve" smooth="yes"/>
			<point x="200" y="668"/>
			<point x="221" y="642"/>
			<point x="278" y="642" type="curve" smooth="yes"/>
			<point x="325" y="642"/>
			<point x="349" y="670"/>
			<point x="380" y="806" type="curve" smooth="yes"/>
			<point x="427" y="1010"/>
			<point x="522" y="1362"/>
			<point x="552" y="1486" type="curve" smooth="yes"/>
			<point x="564" y="1531"/>
			<point x="566" y="1548"/>
			<point x="566" y="1556" type="curve" smooth="yes"/>
			<point x="566" y="1596"/>
			<point x="518" y="1625"/>
			<point x="459" y="1625" type="curve" smooth="yes"/>
			<point x="391" y="1625"/>
			<point x="358" y="1609"/>
		</contour>
	</outline>
</glyph>
<glyph name="guilsinglleft" format="2">
	<unicode hex="2039"/>
	<advance width="790"/>
	<outline>
		<contour>
			<point x="400" y="122" type="curve" smooth="yes"/>
			<point x="465" y="122"/>
			<point x="520" y="183"/>
			<point x="520" y="225" type="curve" smooth="yes"/>
			<point x="520" y="256"/>
			<point x="514" y="276"/>
			<point x="478" y="318" type="curve" smooth="yes"/>
			<point x="417" y="389"/>
			<point x="363" y="439"/>
			<point x="292" y="501" type="curve"/>
			<point x="285" y="464" type="line"/>
			<point x="414" y="543"/>
			<point x="561" y="660"/>
			<point x="630" y="731" type="curve" smooth="yes"/>
			<point x="667" y="769"/>
			<point x="670" y="797"/>
			<point x="670" y="814" type="curve" smooth="yes"/>
			<point x="670" y="871"/>
			<point x="618" y="924"/>
			<point x="556" y="924" type="curve" smooth="yes"/>
			<point x="539" y="924"/>
			<point x="521" y="920"/>
			<point x="490" y="885" type="curve" smooth="yes"/>
			<point x="431" y="818"/>
			<point x="345" y="734"/>
			<point x="236" y="639" type="curve" smooth="yes"/>
			<point x="151" y="565"/>
			<point x="130" y="533"/>
			<point x="130" y="486" type="curve" smooth="yes"/>
			<point x="130" y="449"/>
			<point x="140" y="420"/>
			<point x="169" y="381" type="curve" smooth="yes"/>
			<point x="199" y="341"/>
			<point x="236" y="295"/>
			<point x="305" y="201" type="curve" smooth="yes"/>
			<point x="349" y="141"/>
			<point x="365" y="122"/>
		</contour>
	</outline>
</glyph>
<glyph name="fraction" format="2">
	<unicode hex="2044"/>
	<advance width="393"/>
	<outline>
		<contour>
			<point x="-201" y="-85" type="curve" smooth="yes"/>
			<point x="-167" y="-85"/>
			<point x="-144" y="-68"/>
			<point x="-112" y="-12" type="curve" smooth="yes"/>
			<point x="660" y="1331" type="line" smooth="yes"/>
			<point x="700" y="1400"/>
			<point x="703" y="1417"/>
			<point x="703" y="1437" type="curve" smooth="yes"/>
			<point x="703" y="1478"/>
			<point x="658" y="1524"/>
			<point x="594" y="1524" type="curve" smooth="yes"/>
			<point x="560" y="1524"/>
			<point x="537" y="1507"/>
			<point x="505" y="1451" type="curve" smooth="yes"/>
			<point x="-267" y="108" type="line" smooth="yes"/>
			<point x="-307" y="39"/>
			<point x="-310" y="33"/>
			<point x="-310" y="2" type="curve" smooth="yes"/>
			<point x="-310" y="-40"/>
			<point x="-259" y="-85"/>
		</contour>
	</outline>
</glyph>
<glyph name="zerosuperior" format="2">
	<unicode hex="2070"/>
	<advance width="833"/>
	<outline>
		<contour>
			<point x="307" y="985" type="curve" smooth="yes"/>
			<point x="565" y="985"/>
			<point x="803" y="1271"/>
			<point x="803" y="1565" type="curve" smooth="yes"/>
			<point x="803" y="1735"/>
			<point x="706" y="1837"/>
			<point x="556" y="1837" type="curve" smooth="yes"/>
			<point x="298" y="1837"/>
			<point x="60" y="1551"/>
			<point x="60" y="1257" type="curve" smooth="yes"/>
			<point x="60" y="1087"/>
			<point x="157" y="985"/>
		</contour>
		<contour>
			<point x="356" y="1168" type="curve" smooth="yes"/>
			<point x="299" y="1168"/>
			<point x="268" y="1205"/>
			<point x="268" y="1281" type="curve" smooth="yes"/>
			<point x="268" y="1464"/>
			<point x="386" y="1654"/>
			<point x="506" y="1654" type="curve" smooth="yes"/>
			<point x="564" y="1654"/>
			<point x="595" y="1617"/>
			<point x="595" y="1541" type="curve" smooth="yes"/>
			<point x="595" y="1358"/>
			<point x="477" y="1168"/>
		</contour>
	</outline>
</glyph>
<glyph name="arrowdown" format="2">
	<unicode hex="2193"/>
	<advance width="1417"/>
	<outline>
		<contour>
			<point x="594" y="1438" type="curve" smooth="yes"/>
			<point x="594" y="391" type="line"/>
			<point x="305" y="680" type="line" smooth="yes"/>
			<point x="280" y="705"/>
			<point x="266" y="711"/>
			<point x="247" y="711" type="curve" smooth="yes"/>
			<point x="187" y="711"/>
			<point x="116" y="634"/>
			<point x="116" y="584" type="curve" smooth="yes"/>
			<point x="116" y="558"/>
			<point x="123" y="545"/>
			<point x="176" y="495" type="curve" smooth="yes"/>
			<point x="539" y="154" type="line" smooth="yes"/>
			<point x="632" y="67"/>
			<point x="663" y="47"/>
			<point x="708" y="47" type="curve" smooth="yes"/>
			<point x="753" y="47"/>
			<point x="786" y="67"/>
			<point x="879" y="154" type="curve" smooth="yes"/>
			<point x="1242" y="495" type="line" smooth="yes"/>
			<point x="1295" y="545"/>
			<point x="1302" y="558"/>
			<point x="1302" y="584" type="curve" smooth="yes"/>
			<point x="1302" y="634"/>
			<point x="1231" y="711"/>
			<point x="1171" y="711" type="curve" smooth="yes"/>
			<point x="1148" y="711"/>
			<point x="1136" y="706"/>
			<point x="1082" y="651" type="curve" smooth="yes"/>
			<point x="824" y="391" type="line"/>
			<point x="824" y="1432" type="line" smooth="yes"/>
			<point x="824" y="1482"/>
			<point x="789" y="1520"/>
			<point x="709" y="1520" type="curve" smooth="yes"/>
			<point x="629" y="1520"/>
			<point x="594" y="1488"/>
		</contour>
	</outline>
</glyph>
<glyph name="infinity" format="2">
	<unicode hex="221E"/>
	<advance width="1200"/>
	<outline>
		<contour>
			<point x="306" y="560" type="curve" smooth="yes"/>
			<point x="607" y="560"/>
			<point x="677" y="997"/>
			<point x="877" y="997" type="curve" smooth="yes"/>
			<point x="935" y="997"/>
			<point x="969" y="963"/>
			<point x="969" y="895" type="curve" smooth="yes"/>
			<point x="969" y="812"/>
			<point x="905" y="740"/>
			<point x="838" y="740" type="curve" smooth="yes"/>
			<point x="658" y="740"/>
			<point x="739" y="1180"/>
			<point x="423" y="1180" type="curve" smooth="yes"/>
			<point x="239" y="1180"/>
			<point x="79" y="1021"/>
			<point x="79" y="813" type="curve" smooth="yes"/>
			<point x="79" y="649"/>
			<point x="176" y="560"/>
		</contour>
		<contour>
			<point x="801" y="560" type="curve" smooth="yes"/>
			<point x="985" y="560"/>
			<point x="1145" y="719"/>
			<point x="1145" y="927" type="curve" smooth="yes"/>
			<point x="1145" y="1091"/>
			<point x="1048" y="1180"/>
			<point x="918" y="1180" type="curve" smooth="yes"/>
			<point x="624" y="1180"/>
			<point x="547" y="743"/>
			<point x="347" y="743" type="curve" smooth="yes"/>
			<point x="289" y="743"/>
			<point x="255" y="777"/>
			<point x="255" y="845" type="curve" smooth="yes"/>
			<point x="255" y="928"/>
			<point x="319" y="1000"/>
			<point x="386" y="1000" type="curve" smooth="yes"/>
			<point x="566" y="1000"/>
			<point x="485" y="560"/>
		</contour>
	</outline>
</glyph>
<glyph name="whitecircle" format="2">
	<unicode hex="25CB"/>
	<advance width="1810"/>
	<outline>
		<contour>
			<point x="905" y="200" type="curve" smooth="yes"/>
			<point x="1212" y="200"/>
			<point x="1460" y="448"/>
			<point x="1460" y="755" type="curve" smooth="yes"/>
			<point x="1460" y="1062"/>
			<point x="1212" y="1310"/>
			<point x="905" y="1310" type="curve" smooth="yes"/>
			<point x="598" y="1310"/>
			<point x="350" y="1062"/>
			<point x="350" y="755" type="curve" smooth="yes"/>
			<point x="350" y="448"/>
			<point x="598" y="200"/>
		</contour>
		<contour>
			<point x="905" y="432" type="curve" smooth="yes"/>
			<point x="726" y="432"/>
			<point x="582" y="576"/>
			<point x="582" y="755" type="curve" smooth="yes"/>
			<point x="582" y="934"/>
			<point x="726" y="1078"/>
			<point x="905" y="1078" type="curve" smooth="yes"/>
			<point x="1084" y="1078"/>
			<point x="1228" y="934"/>
			<point x="1228" y="755" type="curve" smooth="yes"/>
			<point x="1228" y="576"/>
			<point x="1084" y="432"/>
		</contour>
	</outline>
</glyph>
<glyph name="upperRightPencil" format="2">
	<unicode hex="2710"/>
	<advance width="1431"/>
	<outline>
		<contour>
			<point x="667" y="-646" type="curve"/>
			<point x="1131" y="1458" type="line"/>
			<point x="1099" y="1873" type="line" smooth="yes"/>
			<point x="1095" y="1933"/>
			<point x="1086" y="1953"/>
			<point x="1070" y="1953" type="curve" smooth="yes"/>
			<point x="1054" y="1953"/>
			<point x="1041" y="1941"/>
			<point x="1014" y="1904" type="curve" smooth="yes"/>
			<point x="760" y="1553" type="line"/>
			<point x="300" y="-563" type="line"/>
			<point x="332" y="-656"/>
			<point x="412" y="-703"/>
			<point x="501" y="-703" type="curve" smooth="yes"/>
			<point x="556" y="-703"/>
			<point x="615" y="-685"/>
		</contour>
		<contour>
			<point x="1066" y="1765" type="curve"/>
			<point x="1090" y="1455" type="line"/>
			<point x="1057" y="1441"/>
			<point x="1016" y="1433"/>
			<point x="977" y="1433" type="curve" smooth="yes"/>
			<point x="913" y="1433"/>
			<point x="843" y="1470"/>
			<point x="803" y="1537" type="curve"/>
			<point x="986" y="1797" type="line"/>
			<point x="990" y="1772"/>
			<point x="1007" y="1755"/>
			<point x="1031" y="1755" type="curve" smooth="yes"/>
			<point x="1045" y="1755"/>
			<point x="1057" y="1759"/>
		</contour>
	</outline>
</glyph>
<glyph name="snowflake" format="2">
	<unicode hex="2744"/>
	<advance width="2361"/>
	<outline>
		<contour>
			<point x="1148" y="-129" type="curve" smooth="yes"/>
			<point x="1164" y="-119"/>
			<point x="1168" y="-80"/>
			<point x="1174" y="36" type="curve" smooth="yes"/>
			<point x="1208" y="727"/>
			<point x="1234" y="1150"/>
			<point x="1247" y="1331" type="curve" smooth="yes"/>
			<point x="1267" y="1610" type="line" smooth="yes"/>
			<point x="1271" y="1661"/>
			<point x="1271" y="1688"/>
			<point x="1264" y="1700" type="curve" smooth="yes"/>
			<point x="1260" y="1709"/>
			<point x="1247" y="1712"/>
			<point x="1237" y="1707" type="curve" smooth="yes"/>
			<point x="1216" y="1695"/>
			<point x="1209" y="1609"/>
			<point x="1181" y="1301" type="curve" smooth="yes"/>
			<point x="1160" y="1056"/>
			<point x="1133" y="498"/>
			<point x="1118" y="247" type="curve" smooth="yes"/>
			<point x="1102" y="5"/>
			<point x="1101" y="-97"/>
			<point x="1116" y="-123" type="curve" smooth="yes"/>
			<point x="1124" y="-136"/>
			<point x="1135" y="-136"/>
		</contour>
		<contour>
			<point x="1997" y="318" type="curve" smooth="yes"/>
			<point x="1997" y="337"/>
			<point x="1965" y="360"/>
			<point x="1867" y="423" type="curve" smooth="yes"/>
			<point x="1285" y="796"/>
			<point x="930" y="1029"/>
			<point x="780" y="1130" type="curve" smooth="yes"/>
			<point x="548" y="1286" type="line" smooth="yes"/>
			<point x="506" y="1315"/>
			<point x="482" y="1329"/>
			<point x="468" y="1329" type="curve" smooth="yes"/>
			<point x="458" y="1329"/>
			<point x="449" y="1320"/>
			<point x="449" y="1308" type="curve" smooth="yes"/>
			<point x="449" y="1284"/>
			<point x="520" y="1235"/>
			<point x="773" y="1058" type="curve" smooth="yes"/>
			<point x="975" y="918"/>
			<point x="1446" y="617"/>
			<point x="1656" y="479" type="curve" smooth="yes"/>
			<point x="1858" y="345"/>
			<point x="1946" y="294"/>
			<point x="1976" y="294" type="curve" smooth="yes"/>
			<point x="1991" y="294"/>
			<point x="1997" y="304"/>
		</contour>
		<contour>
			<point x="377" y="318" type="curve" smooth="yes"/>
			<point x="377" y="304"/>
			<point x="383" y="294"/>
			<point x="398" y="294" type="curve" smooth="yes"/>
			<point x="428" y="294"/>
			<point x="516" y="345"/>
			<point x="718" y="479" type="curve" smooth="yes"/>
			<point x="928" y="617"/>
			<point x="1399" y="918"/>
			<point x="1601" y="1058" type="curve" smooth="yes"/>
			<point x="1854" y="1235"/>
			<point x="1925" y="1284"/>
			<point x="1925" y="1308" type="curve" smooth="yes"/>
			<point x="1925" y="1320"/>
			<point x="1916" y="1329"/>
			<point x="1906" y="1329" type="curve" smooth="yes"/>
			<point x="1892" y="1329"/>
			<point x="1868" y="1315"/>
			<point x="1826" y="1286" type="curve" smooth="yes"/>
			<point x="1594" y="1130" type="line" smooth="yes"/>
			<point x="1444" y="1029"/>
			<point x="1089" y="796"/>
			<point x="507" y="423" type="curve" smooth="yes"/>
			<point x="409" y="360"/>
			<point x="377" y="337"/>
		</contour>
		<contour>
			<point x="1232" y="1457" type="curve"/>
			<point x="1222" y="1188" type="line"/>
			<point x="1451" y="1414" type="line" smooth="yes"/>
			<point x="1533" y="1495"/>
			<point x="1540" y="1541"/>
			<point x="1519" y="1578" type="curve" smooth="yes"/>
			<point x="1508" y="1599"/>
			<point x="1474" y="1616"/>
			<point x="1432" y="1593" type="curve" smooth="yes"/>
			<point x="1418" y="1584"/>
			<point x="1364" y="1556"/>
		</contour>
		<contour>
			<point x="1586" y="1341" type="curve" smooth="yes"/>
			<point x="1484" y="1036" type="line"/>
			<point x="1721" y="1164" type="line"/>
			<point x="1751" y="1326"/>
			<point x="1752" y="1387"/>
			<point x="1754" y="1404" type="curve" smooth="yes"/>
			<point x="1756" y="1451"/>
			<point x="1726" y="1474"/>
			<point x="1702" y="1475" type="curve" smooth="yes"/>
			<point x="1660" y="1478"/>
			<point x="1622" y="1451"/>
		</contour>
		<contour>
			<point x="1513" y="1017" type="line"/>
			<point x="1761" y="954"/>
			<point x="1859" y="931"/>
			<point x="1898" y="930" type="curve" smooth="yes"/>
			<point x="1949" y="928"/>
			<point x="1978" y="949"/>
			<point x="1980" y="988" type="curve" smooth="yes"/>
			<point x="1981" y="1012"/>
			<point x="1958" y="1047"/>
			<point x="1924" y="1063" type="curve" smooth="yes"/>
			<point x="1731" y="1161" type="line"/>
		</contour>
		<contour>
			<point x="1552" y="617" type="curve"/>
			<point x="1760" y="459" type="line"/>
			<point x="1951" y="550" type="line" smooth="yes"/>
			<point x="1986" y="563"/>
			<point x="2011" y="597"/>
			<point x="2011" y="620" type="curve" smooth="yes"/>
			<point x="2011" y="659"/>
			<point x="1983" y="682"/>
			<point x="1934" y="685" type="curve" smooth="yes"/>
			<point x="1895" y="686"/>
			<point x="1798" y="668"/>
		</contour>
		<contour>
			<point x="1749" y="447" type="curve"/>
			<point x="1522" y="591" type="line"/>
			<point x="1602" y="279" type="line" smooth="yes"/>
			<point x="1631" y="168"/>
			<point x="1667" y="139"/>
			<point x="1710" y="138" type="curve" smooth="yes"/>
			<point x="1733" y="137"/>
			<point x="1765" y="158"/>
			<point x="1766" y="206" type="curve" smooth="yes"/>
			<point x="1766" y="223"/>
			<point x="1768" y="283"/>
		</contour>
		<contour>
			<point x="1184" y="394" type="curve"/>
			<point x="1152" y="135" type="line"/>
			<point x="1326" y="15" type="line" smooth="yes"/>
			<point x="1355" y="-8"/>
			<point x="1397" y="-13"/>
			<point x="1417" y="-1" type="curve" smooth="yes"/>
			<point x="1451" y="18"/>
			<point x="1457" y="54"/>
			<point x="1434" y="98" type="curve" smooth="yes"/>
			<point x="1416" y="132"/>
			<point x="1351" y="207"/>
		</contour>
		<contour>
			<point x="1136" y="138" type="curve"/>
			<point x="1146" y="407" type="line"/>
			<point x="917" y="181" type="line" smooth="yes"/>
			<point x="835" y="100"/>
			<point x="828" y="54"/>
			<point x="849" y="17" type="curve" smooth="yes"/>
			<point x="860" y="-4"/>
			<point x="894" y="-21"/>
			<point x="936" y="2" type="curve" smooth="yes"/>
			<point x="950" y="11"/>
			<point x="1004" y="39"/>
		</contour>
		<contour>
			<point x="736" y="264" type="curve" smooth="yes"/>
			<point x="836" y="570" type="line"/>
			<point x="600" y="442" type="line"/>
			<point x="570" y="279"/>
			<point x="568" y="219"/>
			<point x="567" y="202" type="curve" smooth="yes"/>
			<point x="565" y="154"/>
			<point x="596" y="131"/>
			<point x="619" y="131" type="curve" smooth="yes"/>
			<point x="662" y="129"/>
			<point x="699" y="155"/>
		</contour>
		<contour>
			<point x="808" y="598" type="line"/>
			<point x="566" y="665"/>
			<point x="470" y="690"/>
			<point x="431" y="691" type="curve" smooth="yes"/>
			<point x="382" y="691"/>
			<point x="353" y="670"/>
			<point x="350" y="631" type="curve" smooth="yes"/>
			<point x="348" y="609"/>
			<point x="371" y="573"/>
			<point x="405" y="558" type="curve" smooth="yes"/>
			<point x="590" y="454" type="line"/>
		</contour>
		<contour>
			<point x="849" y="1014" type="curve"/>
			<point x="641" y="1172" type="line"/>
			<point x="442" y="1087" type="line" smooth="yes"/>
			<point x="407" y="1073"/>
			<point x="382" y="1040"/>
			<point x="382" y="1016" type="curve" smooth="yes"/>
			<point x="381" y="977"/>
			<point x="409" y="954"/>
			<point x="459" y="952" type="curve" smooth="yes"/>
			<point x="499" y="951"/>
			<point x="598" y="967"/>
		</contour>
		<contour>
			<point x="652" y="1184" type="curve"/>
			<point x="880" y="1041" type="line"/>
			<point x="799" y="1352" type="line" smooth="yes"/>
			<point x="770" y="1464"/>
			<point x="734" y="1493"/>
			<point x="692" y="1493" type="curve" smooth="yes"/>
			<point x="668" y="1494"/>
			<point x="636" y="1473"/>
			<point x="635" y="1426" type="curve" smooth="yes"/>
			<point x="636" y="1409"/>
			<point x="633" y="1348"/>
		</contour>
		<contour>
			<point x="1184" y="1201" type="curve"/>
			<point x="1216" y="1460" type="line"/>
			<point x="1042" y="1590" type="line" smooth="yes"/>
			<point x="1013" y="1613"/>
			<point x="971" y="1618"/>
			<point x="951" y="1606" type="curve" smooth="yes"/>
			<point x="917" y="1587"/>
			<point x="911" y="1551"/>
			<point x="934" y="1507" type="curve" smooth="yes"/>
			<point x="953" y="1472"/>
			<point x="1017" y="1394"/>
		</contour>
	</outline>
</glyph>
<glyph name="E.isol" format="2">
	<advance width="1248"/>
	<outline>
		<contour>
			<point x="424" y="1527" type="line"/>
			<point x="118" y="466" type="line" smooth="yes"/>
			<point x="92" y="370"/>
			<point x="75" y="300"/>
			<point x="75" y="241" type="curve" smooth="yes"/>
			<point x="75" y="112"/>
			<point x="172" y="0"/>
			<point x="311" y="0" type="curve" smooth="yes"/>
			<point x="859" y="0" type="line" smooth="yes"/>
			<point x="937" y="0"/>
			<point x="984" y="53"/>
			<point x="984" y="130" type="curve" smooth="yes"/>
			<point x="984" y="207"/>
			<point x="945" y="230"/>
			<point x="886" y="230" type="curve" smooth="yes"/>
			<point x="365" y="230" type="line" smooth="yes"/>
			<point x="326" y="230"/>
			<point x="310" y="241"/>
			<point x="310" y="275" type="curve" smooth="yes"/>
			<point x="310" y="296"/>
			<point x="320" y="338"/>
			<point x="337" y="397" type="curve" smooth="yes"/>
			<point x="642" y="1445" type="line"/>
		</contour>
		<contour>
			<point x="356" y="1375" type="curve" smooth="yes"/>
			<point x="409" y="1375"/>
			<point x="1094" y="1382"/>
			<point x="1161" y="1385" type="curve" smooth="yes"/>
			<point x="1235" y="1388"/>
			<point x="1268" y="1437"/>
			<point x="1268" y="1525" type="curve" smooth="yes"/>
			<point x="1268" y="1584"/>
			<point x="1238" y="1613"/>
			<point x="1167" y="1613" type="curve" smooth="yes"/>
			<point x="865" y="1613"/>
			<point x="439" y="1604"/>
			<point x="368" y="1600" type="curve" smooth="yes"/>
			<point x="314" y="1597"/>
			<point x="285" y="1546"/>
			<point x="285" y="1481" type="curve" smooth="yes"/>
			<point x="285" y="1422"/>
			<point x="311" y="1375"/>
		</contour>
		<contour>
			<point x="628" y="948" type="curve" smooth="yes"/>
			<point x="385" y="938" type="line"/>
			<point x="351" y="722" type="line"/>
			<point x="423" y="723"/>
			<point x="758" y="728"/>
			<point x="859" y="733" type="curve" smooth="yes"/>
			<point x="926" y="736"/>
			<point x="962" y="773"/>
			<point x="962" y="861" type="curve" smooth="yes"/>
			<point x="962" y="929"/>
			<point x="933" y="957"/>
			<point x="891" y="957" type="curve" smooth="yes"/>
			<point x="843" y="957"/>
			<point x="719" y="952"/>
		</contour>
	</outline>
	<anchor name="bottom" x="502" y="0"/>
	<anchor name="center" x="695" y="830"/>
	<anchor name="ogonek" x="788" y="0"/>
	<anchor name="top" x="750" y="1600"/>
</glyph>
<glyph name="Eogonek.isol" format="2">
	<advance width="1248"/>
	<outline>
		<contour>
			<point x="424" y="1527" type="line"/>
			<point x="118" y="466" type="line" smooth="yes"/>
			<point x="92" y="370"/>
			<point x="75" y="300"/>
			<point x="75" y="241" type="curve" smooth="yes"/>
			<point x="75" y="112"/>
			<point x="172" y="0"/>
			<point x="311" y="0" type="curve" smooth="yes"/>
			<point x="761" y="0" type="line"/>
			<point x="754" y="21" type="line"/>
			<point x="560" y="-108"/>
			<point x="501" y="-207"/>
			<point x="501" y="-300" type="curve" smooth="yes"/>
			<point x="501" y="-385"/>
			<point x="578" y="-444"/>
			<point x="676" y="-444" type="curve" smooth="yes"/>
			<point x="761" y="-444"/>
			<point x="837" y="-407"/>
			<point x="892" y="-341" type="curve" smooth="yes"/>
			<point x="921" y="-306"/>
			<point x="926" y="-285"/>
			<point x="926" y="-268" type="curve" smooth="yes"/>
			<point x="926" y="-230"/>
			<point x="897" y="-211"/>
			<point x="870" y="-211" type="curve" smooth="yes"/>
			<point x="859" y="-211"/>
			<point x="851" y="-214"/>
			<point x="833" y="-224" type="curve" smooth="yes"/>
			<point x="796" y="-245"/>
			<point x="762" y="-259"/>
			<point x="739" y="-259" type="curve" smooth="yes"/>
			<point x="715" y="-259"/>
			<point x="701" y="-244"/>
			<point x="701" y="-222" type="curve" smooth="yes"/>
			<point x="701" y="-164"/>
			<point x="770" y="-87"/>
			<point x="905" y="-9" type="curve" smooth="yes"/>
			<point x="964" y="25"/>
			<point x="984" y="53"/>
			<point x="984" y="130" type="curve" smooth="yes"/>
			<point x="984" y="207"/>
			<point x="945" y="230"/>
			<point x="886" y="230" type="curve" smooth="yes"/>
			<point x="365" y="230" type="line" smooth="yes"/>
			<point x="326" y="230"/>
			<point x="310" y="241"/>
			<point x="310" y="275" type="curve" smooth="yes"/>
			<point x="310" y="296"/>
			<point x="320" y="338"/>
			<point x="337" y="397" type="curve" smooth="yes"/>
			<point x="642" y="1445" type="line"/>
		</contour>
		<contour>
			<point x="356" y="1375" type="curve" smooth="yes"/>
			<point x="409" y="1375"/>
			<point x="1091" y="1382"/>
			<point x="1161" y="1385" type="curve" smooth="yes"/>
			<point x="1235" y="1388"/>
			<point x="1268" y="1437"/>
			<point x="1268" y="1525" type="curve" smooth="yes"/>
			<point x="1268" y="1584"/>
			<point x="1238" y="1613"/>
			<point x="1167" y="1613" type="curve" smooth="yes"/>
			<point x="969" y="1613"/>
			<point x="439" y="1604"/>
			<point x="368" y="1600" type="curve" smooth="yes"/>
			<point x="314" y="1597"/>
			<point x="285" y="1546"/>
			<point x="285" y="1481" type="curve" smooth="yes"/>
			<point x="285" y="1422"/>
			<point x="311" y="1375"/>
		</contour>
		<contour>
			<point x="628" y="948" type="curve" smooth="yes"/>
			<point x="385" y="938" type="line"/>
			<point x="351" y="722" type="line"/>
			<point x="423" y="723"/>
			<point x="758" y="728"/>
			<point x="859" y="733" type="curve" smooth="yes"/>
			<point x="926" y="736"/>
			<point x="962" y="773"/>
			<point x="962" y="861" type="curve" smooth="yes"/>
			<point x="962" y="929"/>
			<point x="933" y="957"/>
			<point x="891" y="957" type="curve" smooth="yes"/>
			<point x="843" y="957"/>
			<point x="719" y="952"/>
		</contour>
	</outline>
	<anchor name="bottom" x="502" y="0"/>
	<anchor name="center" x="695" y="830"/>
	<anchor name="top" x="750" y="1600"/>
</glyph>
<glyph name="IJ.e" format="2">
	<advance width="1017"/>
	<outline>
		<contour>
			<point x="718" y="-137" type="curve"/>
			<point x="762" y="47" type="line"/>
			<point x="335" y="-115"/>
			<point x="193" y="-290"/>
			<point x="193" y="-470" type="curve" smooth="yes"/>
			<point x="193" y="-603"/>
			<point x="287" y="-690"/>
			<point x="433" y="-690" type="curve" smooth="yes"/>
			<point x="641" y="-690"/>
			<point x="864" y="-538"/>
			<point x="945" y="-13" type="curve" smooth="yes"/>
			<point x="1007" y="388"/>
			<point x="1052" y="608"/>
			<point x="1132" y="892" type="curve" smooth="yes"/>
			<point x="1181" y="1069"/>
			<point x="1219" y="1191"/>
			<point x="1282" y="1402" type="curve" smooth="yes"/>
			<point x="1301" y="1465"/>
			<point x="1312" y="1510"/>
			<point x="1312" y="1528" type="curve" smooth="yes"/>
			<point x="1312" y="1560"/>
			<point x="1259" y="1600"/>
			<point x="1174" y="1600" type="curve" smooth="yes"/>
			<point x="1115" y="1600"/>
			<point x="1091" y="1591"/>
			<point x="1074" y="1531" type="curve" smooth="yes"/>
			<point x="998" y="1261"/>
			<point x="939" y="1083"/>
			<point x="870" y="918" type="curve" smooth="yes"/>
			<point x="699" y="513"/>
			<point x="536" y="318"/>
			<point x="389" y="318" type="curve" smooth="yes"/>
			<point x="327" y="318"/>
			<point x="296" y="354"/>
			<point x="296" y="427" type="curve" smooth="yes"/>
			<point x="296" y="506"/>
			<point x="315" y="585"/>
			<point x="389" y="781" type="curve" smooth="yes"/>
			<point x="474" y="1005"/>
			<point x="540" y="1199"/>
			<point x="592" y="1383" type="curve" smooth="yes"/>
			<point x="618" y="1473"/>
			<point x="622" y="1499"/>
			<point x="622" y="1528" type="curve" smooth="yes"/>
			<point x="622" y="1562"/>
			<point x="569" y="1600"/>
			<point x="484" y="1600" type="curve" smooth="yes"/>
			<point x="423" y="1600"/>
			<point x="401" y="1589"/>
			<point x="377" y="1494" type="curve" smooth="yes"/>
			<point x="322" y="1281"/>
			<point x="246" y="1040"/>
			<point x="179" y="857" type="curve" smooth="yes"/>
			<point x="100" y="636"/>
			<point x="64" y="516"/>
			<point x="64" y="420" type="curve" smooth="yes"/>
			<point x="64" y="237"/>
			<point x="161" y="118"/>
			<point x="319" y="118" type="curve" smooth="yes"/>
			<point x="528" y="118"/>
			<point x="753" y="338"/>
			<point x="953" y="832" type="curve"/>
			<point x="943" y="862" type="line"/>
			<point x="830" y="527"/>
			<point x="782" y="301"/>
			<point x="719" y="-21" type="curve" smooth="yes"/>
			<point x="648" y="-384"/>
			<point x="558" y="-510"/>
			<point x="462" y="-510" type="curve" smooth="yes"/>
			<point x="424" y="-510"/>
			<point x="403" y="-487"/>
			<point x="403" y="-440" type="curve" smooth="yes"/>
			<point x="403" y="-347"/>
			<point x="495" y="-224"/>
		</contour>
	</outline>
</glyph>
<glyph name="J.isol" format="2">
	<advance width="956"/>
	<outline>
		<contour>
			<point x="718" y="1378" type="curve"/>
			<point x="675" y="1401" type="line"/>
			<point x="576" y="1087"/>
			<point x="434" y="531"/>
			<point x="282" y="-75" type="curve" smooth="yes"/>
			<point x="210" y="-360"/>
			<point x="115" y="-460"/>
			<point x="-2" y="-460" type="curve" smooth="yes"/>
			<point x="-68" y="-460"/>
			<point x="-131" y="-442"/>
			<point x="-192" y="-410" type="curve" smooth="yes"/>
			<point x="-215" y="-398"/>
			<point x="-228" y="-393"/>
			<point x="-246" y="-393" type="curve" smooth="yes"/>
			<point x="-298" y="-393"/>
			<point x="-350" y="-468"/>
			<point x="-350" y="-523" type="curve" smooth="yes"/>
			<point x="-350" y="-604"/>
			<point x="-195" y="-690"/>
			<point x="-19" y="-690" type="curve" smooth="yes"/>
			<point x="251" y="-690"/>
			<point x="416" y="-511"/>
			<point x="499" y="-170" type="curve" smooth="yes"/>
			<point x="659" y="484"/>
			<point x="815" y="1078"/>
			<point x="890" y="1314" type="curve" smooth="yes"/>
			<point x="931" y="1443"/>
			<point x="946" y="1491"/>
			<point x="946" y="1523" type="curve" smooth="yes"/>
			<point x="946" y="1570"/>
			<point x="915" y="1600"/>
			<point x="872" y="1600" type="curve" smooth="yes"/>
			<point x="847" y="1600"/>
			<point x="799" y="1596"/>
			<point x="771" y="1595" type="curve" smooth="yes"/>
			<point x="737" y="1594"/>
			<point x="661" y="1591"/>
			<point x="619" y="1591" type="curve" smooth="yes"/>
			<point x="576" y="1591"/>
			<point x="528" y="1592"/>
			<point x="480" y="1594" type="curve" smooth="yes"/>
			<point x="440" y="1596"/>
			<point x="380" y="1600"/>
			<point x="320" y="1600" type="curve" smooth="yes"/>
			<point x="265" y="1600"/>
			<point x="222" y="1568"/>
			<point x="222" y="1464" type="curve" smooth="yes"/>
			<point x="222" y="1419"/>
			<point x="245" y="1389"/>
			<point x="277" y="1381" type="curve" smooth="yes"/>
			<point x="328" y="1368"/>
			<point x="375" y="1367"/>
			<point x="470" y="1367" type="curve" smooth="yes"/>
			<point x="574" y="1367"/>
			<point x="670" y="1370"/>
		</contour>
	</outline>
	<anchor name="bottom" x="-64" y="-690"/>
	<anchor name="center" x="488" y="717"/>
	<anchor name="top" x="843" y="1600"/>
</glyph>
<glyph name="J.isol.salt" format="2">
	<advance width="996"/>
	<outline>
		<contour>
			<point x="738" y="1378" type="curve"/>
			<point x="695" y="1401" type="line"/>
			<point x="632" y="1202"/>
			<point x="543" y="851"/>
			<point x="447" y="466" type="curve" smooth="yes"/>
			<point x="398" y="276"/>
			<point x="314" y="205"/>
			<point x="218" y="205" type="curve" smooth="yes"/>
			<point x="152" y="205"/>
			<point x="89" y="223"/>
			<point x="28" y="255" type="curve" smooth="yes"/>
			<point x="5" y="267"/>
			<point x="-8" y="272"/>
			<point x="-26" y="272" type="curve" smooth="yes"/>
			<point x="-78" y="272"/>
			<point x="-130" y="197"/>
			<point x="-130" y="142" type="curve" smooth="yes"/>
			<point x="-130" y="61"/>
			<point x="25" y="-25"/>
			<point x="201" y="-25" type="curve" smooth="yes"/>
			<point x="422" y="-25"/>
			<point x="594" y="88"/>
			<point x="664" y="371" type="curve" smooth="yes"/>
			<point x="765" y="786"/>
			<point x="862" y="1164"/>
			<point x="910" y="1314" type="curve" smooth="yes"/>
			<point x="951" y="1443"/>
			<point x="966" y="1491"/>
			<point x="966" y="1523" type="curve" smooth="yes"/>
			<point x="966" y="1570"/>
			<point x="935" y="1600"/>
			<point x="892" y="1600" type="curve" smooth="yes"/>
			<point x="867" y="1600"/>
			<point x="819" y="1596"/>
			<point x="791" y="1595" type="curve" smooth="yes"/>
			<point x="757" y="1594"/>
			<point x="681" y="1591"/>
			<point x="639" y="1591" type="curve" smooth="yes"/>
			<point x="596" y="1591"/>
			<point x="548" y="1592"/>
			<point x="500" y="1594" type="curve" smooth="yes"/>
			<point x="460" y="1596"/>
			<point x="400" y="1600"/>
			<point x="340" y="1600" type="curve" smooth="yes"/>
			<point x="285" y="1600"/>
			<point x="242" y="1568"/>
			<point x="242" y="1464" type="curve" smooth="yes"/>
			<point x="242" y="1419"/>
			<point x="265" y="1389"/>
			<point x="297" y="1381" type="curve" smooth="yes"/>
			<point x="348" y="1368"/>
			<point x="395" y="1367"/>
			<point x="490" y="1367" type="curve" smooth="yes"/>
			<point x="594" y="1367"/>
			<point x="690" y="1370"/>
		</contour>
	</outline>
	<anchor name="bottom" x="201" y="-25"/>
	<anchor name="center" x="508" y="717"/>
	<anchor name="top" x="850" y="1600"/>
</glyph>
<glyph name="K.isol" format="2">
	<advance width="1347"/>
	<outline>
		<contour>
			<point x="327" y="117" type="curve" smooth="yes"/>
			<point x="437" y="553"/>
			<point x="564" y="1043"/>
			<point x="687" y="1448" type="curve" smooth="yes"/>
			<point x="702" y="1497"/>
			<point x="705" y="1514"/>
			<point x="705" y="1528" type="curve" smooth="yes"/>
			<point x="705" y="1560"/>
			<point x="652" y="1600"/>
			<point x="567" y="1600" type="curve" smooth="yes"/>
			<point x="510" y="1600"/>
			<point x="486" y="1590"/>
			<point x="460" y="1504" type="curve" smooth="yes"/>
			<point x="343" y="1117"/>
			<point x="214" y="636"/>
			<point x="111" y="228" type="curve" smooth="yes"/>
			<point x="86" y="129"/>
			<point x="80" y="101"/>
			<point x="80" y="81" type="curve" smooth="yes"/>
			<point x="80" y="27"/>
			<point x="133" y="-12"/>
			<point x="201" y="-12" type="curve" smooth="yes"/>
			<point x="269" y="-12"/>
			<point x="305" y="28"/>
		</contour>
		<contour>
			<point x="498" y="976" type="curve"/>
			<point x="431" y="713" type="line"/>
			<point x="483" y="620"/>
			<point x="760" y="204"/>
			<point x="928" y="0" type="curve" smooth="yes"/>
			<point x="962" y="-42"/>
			<point x="992" y="-60"/>
			<point x="1024" y="-60" type="curve" smooth="yes"/>
			<point x="1093" y="-60"/>
			<point x="1157" y="6"/>
			<point x="1157" y="61" type="curve" smooth="yes"/>
			<point x="1157" y="85"/>
			<point x="1149" y="102"/>
			<point x="1122" y="136" type="curve" smooth="yes"/>
			<point x="868" y="465"/>
			<point x="647" y="770"/>
			<point x="544" y="906" type="curve"/>
			<point x="502" y="784" type="line"/>
			<point x="754" y="929"/>
			<point x="1117" y="1166"/>
			<point x="1354" y="1393" type="curve" smooth="yes"/>
			<point x="1388" y="1426"/>
			<point x="1397" y="1451"/>
			<point x="1397" y="1483" type="curve" smooth="yes"/>
			<point x="1397" y="1540"/>
			<point x="1333" y="1600"/>
			<point x="1270" y="1600" type="curve" smooth="yes"/>
			<point x="1240" y="1600"/>
			<point x="1227" y="1596"/>
			<point x="1170" y="1540" type="curve" smooth="yes"/>
			<point x="978" y="1352"/>
			<point x="767" y="1171"/>
		</contour>
	</outline>
	<anchor name="bottom" x="577" y="0"/>
	<anchor name="ogonek" x="124" y="0"/>
	<anchor name="top" x="928" y="1600"/>
	<anchor name="topleft" x="419" y="1600"/>
</glyph>
<glyph name="L.swsh" format="2">
	<advance width="1129"/>
	<outline>
		<contour>
			<point x="0" y="144" type="curve" smooth="yes"/>
			<point x="0" y="54"/>
			<point x="83" y="-25"/>
			<point x="180" y="-25" type="curve" smooth="yes"/>
			<point x="271" y="-25"/>
			<point x="407" y="44"/>
			<point x="484" y="223" type="curve" smooth="yes"/>
			<point x="557" y="392"/>
			<point x="612" y="595"/>
			<point x="678" y="891" type="curve" smooth="yes"/>
			<point x="777" y="1333"/>
			<point x="876" y="1425"/>
			<point x="1022" y="1425" type="curve" smooth="yes"/>
			<point x="1076" y="1425"/>
			<point x="1143" y="1406"/>
			<point x="1217" y="1367" type="curve" smooth="yes"/>
			<point x="1251" y="1349"/>
			<point x="1261" y="1346"/>
			<point x="1273" y="1346" type="curve" smooth="yes"/>
			<point x="1320" y="1346"/>
			<point x="1371" y="1408"/>
			<point x="1371" y="1465" type="curve" smooth="yes"/>
			<point x="1371" y="1489"/>
			<point x="1362" y="1505"/>
			<point x="1330" y="1530" type="curve" smooth="yes"/>
			<point x="1262" y="1583"/>
			<point x="1150" y="1625"/>
			<point x="1038" y="1625" type="curve" smooth="yes"/>
			<point x="744" y="1625"/>
			<point x="555" y="1433"/>
			<point x="460" y="948" type="curve" smooth="yes"/>
			<point x="370" y="490"/>
			<point x="347" y="374"/>
			<point x="285" y="222" type="curve" smooth="yes"/>
			<point x="257" y="153"/>
			<point x="221" y="137"/>
			<point x="187" y="137" type="curve" smooth="yes"/>
			<point x="175" y="137"/>
			<point x="156" y="141"/>
			<point x="155" y="162" type="curve" smooth="yes"/>
			<point x="155" y="177"/>
			<point x="169" y="192"/>
			<point x="203" y="192" type="curve" smooth="yes"/>
			<point x="270" y="192"/>
			<point x="353" y="143"/>
			<point x="610" y="-67" type="curve" smooth="yes"/>
			<point x="1034" y="-414"/>
			<point x="1232" y="-468"/>
			<point x="1503" y="-468" type="curve" smooth="yes"/>
			<point x="1626" y="-468"/>
			<point x="1747" y="-428"/>
			<point x="1823" y="-365" type="curve" smooth="yes"/>
			<point x="1877" y="-320"/>
			<point x="1886" y="-296"/>
			<point x="1886" y="-268" type="curve" smooth="yes"/>
			<point x="1886" y="-225"/>
			<point x="1855" y="-183"/>
			<point x="1819" y="-183" type="curve" smooth="yes"/>
			<point x="1802" y="-183"/>
			<point x="1787" y="-189"/>
			<point x="1754" y="-205" type="curve" smooth="yes"/>
			<point x="1697" y="-233"/>
			<point x="1617" y="-258"/>
			<point x="1532" y="-258" type="curve" smooth="yes"/>
			<point x="1285" y="-258"/>
			<point x="1101" y="-189"/>
			<point x="759" y="88" type="curve" smooth="yes"/>
			<point x="533" y="271"/>
			<point x="369" y="351"/>
			<point x="260" y="351" type="curve" smooth="yes"/>
			<point x="92" y="351"/>
			<point x="0" y="267"/>
		</contour>
	</outline>
	<anchor name="bottom" x="453" y="0"/>
	<anchor name="center" x="554" y="840"/>
	<anchor name="top" x="984" y="1625"/>
	<anchor name="topright" x="1350" y="1600"/>
</glyph>
<glyph name="Y_e_a_h_exclam" format="2">
	<advance width="5571"/>
	<outline>
		<contour>
			<point x="231" y="-244" type="curve" smooth="yes"/>
			<point x="261" y="-244"/>
			<point x="280" y="-234"/>
			<point x="319" y="-172" type="curve" smooth="yes"/>
			<point x="686" y="407"/>
			<point x="1137" y="1009"/>
			<point x="1618" y="1551" type="curve" smooth="yes"/>
			<point x="1664" y="1603"/>
			<point x="1674" y="1614"/>
			<point x="1673" y="1647" type="curve" smooth="yes"/>
			<point x="1673" y="1705"/>
			<point x="1605" y="1755"/>
			<point x="1550" y="1755" type="curve" smooth="yes"/>
			<point x="1517" y="1755"/>
			<point x="1506" y="1749"/>
			<point x="1480" y="1720" type="curve" smooth="yes"/>
			<point x="1236" y="1447"/>
			<point x="1006" y="1154"/>
			<point x="782" y="856" type="curve"/>
			<point x="576" y="1808" type="line" smooth="yes"/>
			<point x="558" y="1891"/>
			<point x="532" y="1910"/>
			<point x="483" y="1910" type="curve" smooth="yes"/>
			<point x="411" y="1910"/>
			<point x="336" y="1875"/>
			<point x="336" y="1819" type="curve" smooth="yes"/>
			<point x="336" y="1791"/>
			<point x="345" y="1757"/>
			<point x="353" y="1725" type="curve" smooth="yes"/>
			<point x="614" y="627" type="line"/>
			<point x="451" y="396"/>
			<point x="291" y="195"/>
			<point x="125" y="-71" type="curve" smooth="yes"/>
			<point x="102" y="-108"/>
			<point x="100" y="-120"/>
			<point x="100" y="-142" type="curve" smooth="yes"/>
			<point x="100" y="-183"/>
			<point x="162" y="-244"/>
		</contour>
		<contour>
			<point x="1565" y="-12" type="curve" smooth="yes"/>
			<point x="1906" y="0"/>
			<point x="2062" y="269"/>
			<point x="2128" y="360" type="curve"/>
			<point x="2127" y="342"/>
			<point x="2126" y="324"/>
			<point x="2126" y="306" type="curve" smooth="yes"/>
			<point x="2126" y="91"/>
			<point x="2231" y="-12"/>
			<point x="2336" y="-12" type="curve" smooth="yes"/>
			<point x="2453" y="-12"/>
			<point x="2583" y="102"/>
			<point x="2703" y="316" type="curve"/>
			<point x="2688" y="262"/>
			<point x="2678" y="231"/>
			<point x="2678" y="178" type="curve" smooth="yes"/>
			<point x="2678" y="67"/>
			<point x="2768" y="-12"/>
			<point x="2878" y="-12" type="curve" smooth="yes"/>
			<point x="3033" y="-12"/>
			<point x="3192" y="93"/>
			<point x="3479" y="493" type="curve"/>
			<point x="3366" y="139" type="line" smooth="yes"/>
			<point x="3360" y="121"/>
			<point x="3356" y="102"/>
			<point x="3356" y="74" type="curve" smooth="yes"/>
			<point x="3356" y="27"/>
			<point x="3422" y="-12"/>
			<point x="3502" y="-12" type="curve" smooth="yes"/>
			<point x="3550" y="-12"/>
			<point x="3572" y="7"/>
			<point x="3597" y="96" type="curve" smooth="yes"/>
			<point x="3632" y="219"/>
			<point x="3678" y="333"/>
			<point x="3728" y="437" type="curve" smooth="yes"/>
			<point x="3828" y="645"/>
			<point x="3968" y="800"/>
			<point x="4052" y="800" type="curve" smooth="yes"/>
			<point x="4084" y="800"/>
			<point x="4110" y="777"/>
			<point x="4110" y="732" type="curve" smooth="yes"/>
			<point x="4110" y="687"/>
			<point x="4087" y="621"/>
			<point x="4022" y="471" type="curve" smooth="yes"/>
			<point x="3952" y="310"/>
			<point x="3933" y="228"/>
			<point x="3933" y="162" type="curve" smooth="yes"/>
			<point x="3933" y="50"/>
			<point x="4011" y="-12"/>
			<point x="4151" y="-12" type="curve" smooth="yes"/>
			<point x="4299" y="-12"/>
			<point x="4382" y="33"/>
			<point x="4460" y="95" type="curve" smooth="yes"/>
			<point x="4519" y="142"/>
			<point x="4530" y="174"/>
			<point x="4530" y="199" type="curve" smooth="yes"/>
			<point x="4530" y="241"/>
			<point x="4482" y="290"/>
			<point x="4440" y="290" type="curve" smooth="yes"/>
			<point x="4428" y="290"/>
			<point x="4415" y="284"/>
			<point x="4395" y="269" type="curve" smooth="yes"/>
			<point x="4320" y="213"/>
			<point x="4251" y="188"/>
			<point x="4205" y="188" type="curve" smooth="yes"/>
			<point x="4183" y="188"/>
			<point x="4173" y="197"/>
			<point x="4173" y="225" type="curve" smooth="yes"/>
			<point x="4173" y="269"/>
			<point x="4199" y="343"/>
			<point x="4260" y="488" type="curve" smooth="yes"/>
			<point x="4315" y="620"/>
			<point x="4350" y="725"/>
			<point x="4350" y="824" type="curve" smooth="yes"/>
			<point x="4350" y="941"/>
			<point x="4259" y="1020"/>
			<point x="4162" y="1020" type="curve" smooth="yes"/>
			<point x="4011" y="1020"/>
			<point x="3855" y="880"/>
			<point x="3678" y="538" type="curve"/>
			<point x="3760" y="873" type="line"/>
			<point x="4031" y="1213"/>
			<point x="4113" y="1374"/>
			<point x="4113" y="1476" type="curve" smooth="yes"/>
			<point x="4113" y="1569"/>
			<point x="4042" y="1625"/>
			<point x="3957" y="1625" type="curve" smooth="yes"/>
			<point x="3848" y="1625"/>
			<point x="3697" y="1560"/>
			<point x="3634" y="1227" type="curve" smooth="yes"/>
			<point x="3611" y="1102"/>
			<point x="3591" y="998"/>
			<point x="3577" y="880" type="curve"/>
			<point x="3206" y="321"/>
			<point x="3055" y="188"/>
			<point x="2958" y="188" type="curve" smooth="yes"/>
			<point x="2932" y="188"/>
			<point x="2918" y="196"/>
			<point x="2918" y="219" type="curve" smooth="yes"/>
			<point x="2918" y="244"/>
			<point x="2924" y="268"/>
			<point x="2941" y="335" type="curve" smooth="yes"/>
			<point x="3075" y="855" type="line" smooth="yes"/>
			<point x="3087" y="900"/>
			<point x="3090" y="924"/>
			<point x="3090" y="936" type="curve" smooth="yes"/>
			<point x="3090" y="986"/>
			<point x="3028" y="1020"/>
			<point x="2948" y="1020" type="curve" smooth="yes"/>
			<point x="2887" y="1020"/>
			<point x="2865" y="1005"/>
			<point x="2845" y="931" type="curve" smooth="yes"/>
			<point x="2792" y="732" type="line" smooth="yes"/>
			<point x="2724" y="478"/>
			<point x="2533" y="188"/>
			<point x="2440" y="188" type="curve" smooth="yes"/>
			<point x="2400" y="188"/>
			<point x="2371" y="229"/>
			<point x="2371" y="346" type="curve" smooth="yes"/>
			<point x="2371" y="591"/>
			<point x="2496" y="820"/>
			<point x="2621" y="820" type="curve" smooth="yes"/>
			<point x="2645" y="820"/>
			<point x="2665" y="814"/>
			<point x="2687" y="805" type="curve" smooth="yes"/>
			<point x="2708" y="797"/>
			<point x="2717" y="792"/>
			<point x="2732" y="792" type="curve" smooth="yes"/>
			<point x="2779" y="792"/>
			<point x="2808" y="864"/>
			<point x="2808" y="904" type="curve" smooth="yes"/>
			<point x="2808" y="946"/>
			<point x="2717" y="1020"/>
			<point x="2612" y="1020" type="curve" smooth="yes"/>
			<point x="2498" y="1020"/>
			<point x="2387" y="963"/>
			<point x="2296" y="845" type="curve" smooth="yes"/>
			<point x="2256" y="792"/>
			<point x="2247" y="780"/>
			<point x="2162" y="649" type="curve" smooth="yes"/>
			<point x="1940" y="308"/>
			<point x="1777" y="188"/>
			<point x="1612" y="188" type="curve" smooth="yes"/>
			<point x="1491" y="188"/>
			<point x="1415" y="236"/>
			<point x="1391" y="345" type="curve" smooth="yes"/>
			<point x="1391" y="347"/>
			<point x="1391" y="350"/>
			<point x="1391" y="352" type="curve"/>
			<point x="1726" y="401"/>
			<point x="1956" y="577"/>
			<point x="1956" y="797" type="curve" smooth="yes"/>
			<point x="1956" y="935"/>
			<point x="1853" y="1020"/>
			<point x="1703" y="1020" type="curve" smooth="yes"/>
			<point x="1401" y="1020"/>
			<point x="1151" y="736"/>
			<point x="1151" y="393" type="curve" smooth="yes"/>
			<point x="1151" y="151"/>
			<point x="1316" y="-8"/>
		</contour>
		<contour>
			<point x="1388" y="500" type="curve"/>
			<point x="1412" y="689"/>
			<point x="1528" y="840"/>
			<point x="1644" y="840" type="curve" smooth="yes"/>
			<point x="1696" y="840"/>
			<point x="1724" y="806"/>
			<point x="1724" y="751" type="curve" smooth="yes"/>
			<point x="1724" y="646"/>
			<point x="1619" y="547"/>
		</contour>
		<contour>
			<point x="3901" y="1437" type="curve" smooth="yes"/>
			<point x="3915" y="1437"/>
			<point x="3925" y="1427"/>
			<point x="3925" y="1405" type="curve" smooth="yes"/>
			<point x="3925" y="1359"/>
			<point x="3869" y="1256"/>
			<point x="3779" y="1114" type="curve"/>
			<point x="3791" y="1189"/>
			<point x="3810" y="1290"/>
			<point x="3826" y="1344" type="curve" smooth="yes"/>
			<point x="3846" y="1411"/>
			<point x="3871" y="1437"/>
		</contour>
		<contour>
			<point x="4848" y="185" type="curve" smooth="yes"/>
			<point x="4892" y="185"/>
			<point x="4917" y="215"/>
			<point x="4944" y="306" type="curve" smooth="yes"/>
			<point x="5006" y="512"/>
			<point x="5085" y="775"/>
			<point x="5170" y="1028" type="curve" smooth="yes"/>
			<point x="5275" y="1342"/>
			<point x="5380" y="1646"/>
			<point x="5439" y="1806" type="curve" smooth="yes"/>
			<point x="5463" y="1872"/>
			<point x="5471" y="1903"/>
			<point x="5471" y="1929" type="curve" smooth="yes"/>
			<point x="5471" y="1984"/>
			<point x="5412" y="2027"/>
			<point x="5339" y="2027" type="curve" smooth="yes"/>
			<point x="5292" y="2027"/>
			<point x="5248" y="2009"/>
			<point x="5226" y="1944" type="curve" smooth="yes"/>
			<point x="5150" y="1719"/>
			<point x="5049" y="1407"/>
			<point x="4959" y="1106" type="curve" smooth="yes"/>
			<point x="4878" y="837"/>
			<point x="4807" y="574"/>
			<point x="4768" y="394" type="curve" smooth="yes"/>
			<point x="4752" y="318"/>
			<point x="4747" y="294"/>
			<point x="4747" y="262" type="curve" smooth="yes"/>
			<point x="4747" y="217"/>
			<point x="4788" y="185"/>
		</contour>
		<contour>
			<point x="4663" y="-646" type="curve" smooth="yes"/>
			<point x="4843" y="-646"/>
			<point x="4997" y="-484"/>
			<point x="4997" y="-298" type="curve" smooth="yes"/>
			<point x="4997" y="-150"/>
			<point x="4899" y="-53"/>
			<point x="4762" y="-53" type="curve" smooth="yes"/>
			<point x="4589" y="-53"/>
			<point x="4439" y="-205"/>
			<point x="4439" y="-400" type="curve" smooth="yes"/>
			<point x="4439" y="-538"/>
			<point x="4514" y="-646"/>
		</contour>
		<contour>
			<point x="4689" y="-467" type="curve" smooth="yes"/>
			<point x="4645" y="-467"/>
			<point x="4607" y="-431"/>
			<point x="4607" y="-372" type="curve" smooth="yes"/>
			<point x="4607" y="-298"/>
			<point x="4664" y="-240"/>
			<point x="4730" y="-240" type="curve" smooth="yes"/>
			<point x="4784" y="-240"/>
			<point x="4822" y="-279"/>
			<point x="4822" y="-330" type="curve" smooth="yes"/>
			<point x="4822" y="-403"/>
			<point x="4757" y="-467"/>
		</contour>
	</outline>
</glyph>
